<svg xmlns="http://www.w3.org/2000/svg" viewBox="0 0 197 190">
<path fill="#FFFFFF" d="M48.1,66.3c2,0,4,0.2,5.9,0.7c1.9,0.5,3.7,1.3,5.3,2.4c1.6,1.1,2.9,2.6,3.8,4.4
	c1,2.1,1.5,4.4,1.4,6.7c0,2.6-0.7,5.2-2,7.5c-1.3,2.3-3.4,4-5.8,4.9c1.3,0.5,2.4,1.3,3.4,2.2c1,0.9,1.8,2,2.5,3.2
	c1.3,2.4,2.1,5,2.1,7.8c0.1,2.5-0.5,5-1.5,7.3c-0.9,2-2.3,3.8-3.9,5.3c-1.7,1.4-3.6,2.5-5.7,3.2c-2.2,0.7-4.6,1-6.9,1
	c-3.1,0-6.3-0.5-9.2-1.7c-2.4-0.9-4.7-2.2-6.7-3.9l3.7-5.5c1.6,1.4,3.5,2.6,5.6,3.3c2,0.8,4.1,1.2,6.2,1.2c3,0.2,5.9-0.7,8.3-2.5
	c2.1-1.8,3.2-4.4,3.1-7.1c0.1-2.7-0.8-5.3-2.5-7.4c-1.6-1.9-4-2.9-6.5-2.8h-6.3v-6.2h6.4c1.1,0,2.1-0.2,3.1-0.6c1-0.4,2-1,2.8-1.7
	c0.9-0.8,1.5-1.8,2-2.9c0.5-1.3,0.8-2.8,0.8-4.2c0.1-2.5-1.1-4.9-3.3-6.2c-1-0.7-2.2-1.1-3.3-1.4c-1.2-0.3-2.5-0.4-3.8-0.4
	c-2.1,0-4.2,0.5-6.1,1.3c-1.9,0.8-3.7,1.8-5.3,3.1L32,72c2-1.7,4.3-3.1,6.8-4C41.8,66.9,44.9,66.3,48.1,66.3z M77.7,81
	c0-2.1,0.4-4.3,1.4-6.2c0.9-1.8,2.1-3.4,3.7-4.6c1.6-1.3,3.4-2.3,5.4-2.9c2.1-0.7,4.3-1,6.5-1c3-0.1,6.1,0.5,8.9,1.7
	c2.3,1,4.4,2.4,6.3,4l-4,5.6c-1.5-1.4-3.3-2.6-5.2-3.4c-1.8-0.8-3.8-1.2-5.8-1.2c-1.1,0-2.2,0.2-3.3,0.5c-1.2,0.3-2.3,0.8-3.2,1.6
	c-1,0.8-1.9,1.8-2.5,3c-0.7,1.4-1.1,2.9-1,4.5v9.1c2.2-1.5,4.6-2.7,7.2-3.6c1.8-0.6,3.7-0.9,5.7-1c1.9,0,3.8,0.3,5.5,1
	c1.6,0.7,3,1.7,4.1,3c1.2,1.3,2.1,2.8,2.7,4.5c0.6,1.9,0.9,3.8,0.9,5.8v6.6c0,2.1-0.4,4.3-1.4,6.2c-0.9,1.8-2.1,3.4-3.7,4.7
	c-1.6,1.3-3.4,2.3-5.3,2.9c-2,0.7-4.2,1-6.3,1c-2.2,0-4.4-0.3-6.5-1c-1.9-0.6-3.7-1.6-5.2-2.8c-1.5-1.2-2.7-2.8-3.5-4.6
	c-0.9-1.9-1.3-4-1.3-6.2V81z M103.8,101.9c0-2.8-0.7-4.8-2.1-6.1c-1.4-1.3-3.2-2-5.1-1.9c-1.9,0-3.9,0.4-5.7,1.2
	c-2.2,0.9-4.2,2.1-6.2,3.4v8.2c0,1.5,0.3,3,0.9,4.4c0.5,1.1,1.3,2.2,2.3,3c0.9,0.7,1.9,1.3,3,1.7c1.1,0.3,2.2,0.5,3.3,0.5
	c1.1,0,2.2-0.2,3.3-0.5c1.1-0.3,2.2-0.9,3.1-1.7c1-0.8,1.7-1.8,2.3-2.9c0.7-1.4,1-2.8,0.9-4.3L103.8,101.9L103.8,101.9z
	 M155.4,108.4c0,2.1-0.5,4.2-1.5,6c-1,1.7-2.3,3.3-3.9,4.5c-1.6,1.2-3.5,2.2-5.4,2.8c-2,0.6-4,1-6.1,1c-2.1,0-4.2-0.3-6.1-1
	c-1.9-0.6-3.8-1.5-5.4-2.8c-1.6-1.2-2.9-2.7-3.8-4.5c-1-1.8-1.5-3.9-1.5-6V80.7c0-2.1,0.5-4.2,1.5-6.1c1-1.8,2.3-3.3,3.9-4.6
	c1.6-1.3,3.5-2.2,5.4-2.9c3.9-1.3,8.2-1.3,12.1,0c2,0.6,3.8,1.6,5.4,2.9c1.6,1.2,3,2.8,3.9,4.6c1,1.9,1.5,4,1.5,6.1L155.4,108.4
	L155.4,108.4z M148.5,82.4c0-1.6-0.3-3.1-1-4.5c-0.6-1.2-1.4-2.2-2.4-3c-0.9-0.8-2-1.3-3.1-1.7c-2.2-0.6-4.5-0.6-6.7,0
	c-2.4,0.7-4.5,2.4-5.6,4.7c-0.7,1.4-1,3-0.9,4.5v24.2c-0.1,1.5,0.3,3.1,0.9,4.5c0.6,1.2,1.4,2.2,2.4,3c0.9,0.8,2,1.3,3.2,1.7
	c2.2,0.6,4.5,0.6,6.7,0c1.2-0.3,2.2-0.9,3.2-1.7c2.2-1.8,3.5-4.6,3.4-7.4L148.5,82.4L148.5,82.4z M188.5,83.6c0,1.5-0.3,2.9-1,4.2
	c-0.6,1.2-1.5,2.3-2.5,3.2c-1.1,0.9-2.4,1.6-3.7,2c-1.4,0.5-3,0.7-4.5,0.7c-1.5,0-3.1-0.2-4.6-0.7c-1.4-0.4-2.6-1.1-3.7-2
	c-1-0.9-1.9-2-2.5-3.2c-0.6-1.3-0.9-2.8-0.9-4.2v-6.7c0-1.4,0.3-2.9,0.9-4.2c0.6-1.3,1.5-2.4,2.5-3.3c1.1-0.9,2.4-1.6,3.7-2.1
	c1.5-0.5,3-0.7,4.6-0.7c1.6,0,3.2,0.2,4.7,0.7c1.4,0.4,2.6,1.1,3.7,2.1c1,0.9,1.8,2,2.4,3.3c0.6,1.3,0.9,2.7,0.9,4.2L188.5,83.6
	L188.5,83.6z M182.8,77.7c0-0.9-0.2-1.8-0.6-2.6c-0.4-0.7-0.8-1.3-1.4-1.8c-0.5-0.5-1.2-0.8-1.8-1.1c-0.7-0.2-1.4-0.3-2.1-0.3
	c-0.7,0-1.4,0.1-2.1,0.3c-2.4,0.7-4.1,3-4,5.5v5.2c-0.2,1.7,0.5,3.3,1.8,4.4c1.2,0.9,2.7,1.4,4.3,1.3c0.7,0,1.4-0.1,2.1-0.3
	c1.4-0.4,2.6-1.4,3.3-2.8c0.4-0.8,0.6-1.7,0.6-2.6L182.8,77.7L182.8,77.7z"/>
</svg>
