<svg id="Слой_2" data-name="Слой 2" xmlns="http://www.w3.org/2000/svg" xmlns:xlink="http://www.w3.org/1999/xlink" width="28.11mm" height="16.27mm" viewBox="0 0 79.68 46.13">
  <defs>
    <style>
      .cls-1 {
        fill: none;
      }

      .cls-2, .cls-4 {
        fill: #fff;
      }

      .cls-3 {
        clip-path: url(#clip-path);
      }

      .cls-4 {
        fill-rule: evenodd;
      }
    </style>
    <clipPath id="clip-path">
      <rect class="cls-1" x="34.4" y="0.36" width="45.28" height="45.41"/>
    </clipPath>
  </defs>
  <title>_</title>
  <g>
    <path class="cls-2" d="M45,11.95H44.76l-1.4,3.43h0.49l0.31-.77h1.73l0.31,0.77h0.49L45.3,11.95H45Zm0,2.29H44.29L45,12.38h0l0.74,1.85H45Z"/>
    <path class="cls-2" d="M47.77,14h0.7l0.11,0.17,0.77,1.2h0.51L48.92,14a1.07,1.07,0,0,0,.34-0.09,1,1,0,0,0,.29-0.2,0.92,0.92,0,0,0,.2-0.3,1.17,1.17,0,0,0,0-.84,0.93,0.93,0,0,0-.23-0.33A1,1,0,0,0,49.17,12a1.28,1.28,0,0,0-.44-0.07H47.34v3.43h0.43V14h0Zm0-1.69h0.91a0.78,0.78,0,0,1,.36.08,0.61,0.61,0,0,1,.24.23,0.7,0.7,0,0,1,0,.69,0.62,0.62,0,0,1-.24.23,0.76,0.76,0,0,1-.36.08H47.77V12.33h0Z"/>
    <polygon class="cls-2" points="51.48 15.38 51.91 15.38 51.91 12.33 53.02 12.33 53.02 11.95 50.38 11.95 50.38 12.33 51.48 12.33 51.48 15.38 51.48 15.38 51.48 15.38"/>
    <path class="cls-2" d="M46.2,18.71a1.61,1.61,0,0,0-.56-0.36,1.85,1.85,0,0,0-.45-0.11l-0.29,0H43.72v3.43h1.19l0.29,0a1.87,1.87,0,0,0,.45-0.11,1.62,1.62,0,0,0,.56-0.36,1.59,1.59,0,0,0,.36-0.54,1.91,1.91,0,0,0,0-1.36,1.62,1.62,0,0,0-.36-0.54h0Zm-0.05,1.74a1.25,1.25,0,0,1-.26.42,1.19,1.19,0,0,1-.42.29,1.35,1.35,0,0,1-.27.08l-0.29,0H44.15V18.59h0.75l0.29,0a1.32,1.32,0,0,1,.28.08,1.16,1.16,0,0,1,.42.29,1.22,1.22,0,0,1,.26.43,1.52,1.52,0,0,1,.09.52,1.51,1.51,0,0,1-.09.52h0Z"/>
    <polygon class="cls-2" points="47.96 18.21 47.53 18.21 47.53 21.64 47.96 21.64 47.96 18.21 47.96 18.21 47.96 18.21"/>
    <path class="cls-2" d="M48.94,21.65h0.43V20.28h0.7l0.11,0.17,0.77,1.2h0.51l-0.94-1.4a1.09,1.09,0,0,0,.34-0.09,1,1,0,0,0,.29-0.2,0.92,0.92,0,0,0,.2-0.3,1.17,1.17,0,0,0,0-.84,0.93,0.93,0,0,0-.23-0.33,1,1,0,0,0-.35-0.21,1.28,1.28,0,0,0-.44-0.07H48.94v3.43h0Zm0.43-3.05h0.91a0.8,0.8,0,0,1,.36.08,0.6,0.6,0,0,1,.24.23,0.66,0.66,0,0,1,.09.34,0.67,0.67,0,0,1-.09.34,0.62,0.62,0,0,1-.24.23,0.76,0.76,0,0,1-.36.08H49.37V18.59h0Z"/>
    <polygon class="cls-2" points="54.55 18.59 54.55 18.21 52.28 18.21 52.28 21.64 54.55 21.64 54.55 21.27 52.71 21.27 52.71 20.08 54.51 20.08 54.51 19.7 52.71 19.7 52.71 18.59 54.55 18.59 54.55 18.59 54.55 18.59"/>
    <path class="cls-2" d="M58,20.83a1.09,1.09,0,0,1-.25.26,1.23,1.23,0,0,1-.33.18,1.13,1.13,0,0,1-.38.06,1.34,1.34,0,0,1-.53-0.1,1.27,1.27,0,0,1-.42-0.29,1.33,1.33,0,0,1-.28-0.44,1.6,1.6,0,0,1,0-1.13,1.29,1.29,0,0,1,.28-0.44,1.27,1.27,0,0,1,.42-0.29,1.37,1.37,0,0,1,.53-0.1,1.16,1.16,0,0,1,.38.06,1.18,1.18,0,0,1,.33.17A1.08,1.08,0,0,1,58,19l0.36-.2A1.65,1.65,0,0,0,58,18.49a1.48,1.48,0,0,0-.44-0.24A1.66,1.66,0,0,0,57,18.16a1.92,1.92,0,0,0-.57.08,1.76,1.76,0,0,0-.49.24,1.67,1.67,0,0,0-.63.86,2,2,0,0,0,0,1.18,1.67,1.67,0,0,0,.63.86,1.77,1.77,0,0,0,.49.24,2,2,0,0,0,.57.08,1.64,1.64,0,0,0,.55-0.09A1.47,1.47,0,0,0,58,21.38,1.82,1.82,0,0,0,58.37,21L58,20.83h0Z"/>
    <polygon class="cls-2" points="59.86 21.64 60.29 21.64 60.29 18.59 61.39 18.59 61.39 18.21 58.76 18.21 58.76 18.59 59.86 18.59 59.86 21.64 59.86 21.64 59.86 21.64"/>
    <path class="cls-2" d="M64.74,18.66a1.58,1.58,0,0,0-.54-0.37,1.81,1.81,0,0,0-.7-0.13h0a1.79,1.79,0,0,0-.7.13,1.58,1.58,0,0,0-.54.37,1.67,1.67,0,0,0-.35.56,2,2,0,0,0,0,1.41,1.66,1.66,0,0,0,.35.56,1.59,1.59,0,0,0,.54.37,1.83,1.83,0,0,0,.7.13h0a1.83,1.83,0,0,0,.7-0.13,1.59,1.59,0,0,0,.54-0.37,1.65,1.65,0,0,0,.35-0.56,2,2,0,0,0,0-1.41,1.66,1.66,0,0,0-.35-0.56h0Zm-0.06,1.82a1.3,1.3,0,0,1-.26.44,1.18,1.18,0,0,1-.4.29,1.3,1.3,0,0,1-.52.11h0A1.3,1.3,0,0,1,63,21.22a1.17,1.17,0,0,1-.4-0.29,1.31,1.31,0,0,1-.25-0.44,1.77,1.77,0,0,1,0-1.11,1.28,1.28,0,0,1,.25-0.44,1.16,1.16,0,0,1,.4-0.29,1.32,1.32,0,0,1,.53-0.1h0a1.31,1.31,0,0,1,.52.1,1.18,1.18,0,0,1,.4.29,1.28,1.28,0,0,1,.26.44,1.73,1.73,0,0,1,0,1.11h0Z"/>
    <path class="cls-2" d="M68,20.16a1,1,0,0,0,.29-0.2,0.92,0.92,0,0,0,.2-0.3,1.17,1.17,0,0,0,0-.84,0.93,0.93,0,0,0-.23-0.33,1,1,0,0,0-.35-0.21,1.28,1.28,0,0,0-.44-0.07H66.06v3.43h0.43V20.28h0.7l0.11,0.17,0.77,1.2h0.51l-0.93-1.4A1.09,1.09,0,0,0,68,20.16h0Zm-0.69-.25h-0.8V18.59H67.4a0.8,0.8,0,0,1,.36.08,0.61,0.61,0,0,1,.24.23,0.66,0.66,0,0,1,.09.34,0.67,0.67,0,0,1-.09.34,0.62,0.62,0,0,1-.24.23,0.76,0.76,0,0,1-.36.08H67.29Z"/>
    <path class="cls-2" d="M71.7,20.29A0.83,0.83,0,0,0,71.47,20a1.39,1.39,0,0,0-.33-0.19l-0.38-.13-0.38-.1-0.33-.11a0.68,0.68,0,0,1-.23-0.16,0.35,0.35,0,0,1-.09-0.24,0.47,0.47,0,0,1,.09-0.29,0.6,0.6,0,0,1,.25-0.19,0.94,0.94,0,0,1,.37-0.07,1.56,1.56,0,0,1,.37,0,1.27,1.27,0,0,1,.34.13,1.21,1.21,0,0,1,.29.24l0.26-.31a1.49,1.49,0,0,0-.53-0.36,1.83,1.83,0,0,0-.7-0.13,1.59,1.59,0,0,0-.48.07,1.21,1.21,0,0,0-.38.2,0.93,0.93,0,0,0-.25.3,0.87,0.87,0,0,0-.09.39,0.81,0.81,0,0,0,.09.38,0.77,0.77,0,0,0,.23.26,1.46,1.46,0,0,0,.33.17L70.32,20l0.38,0.1a1.92,1.92,0,0,1,.33.12,0.68,0.68,0,0,1,.23.18,0.43,0.43,0,0,1,.09.27,0.54,0.54,0,0,1,0,.21,0.53,0.53,0,0,1-.14.19,0.68,0.68,0,0,1-.25.14,1.21,1.21,0,0,1-.39.06,1.43,1.43,0,0,1-.45-0.07,1.41,1.41,0,0,1-.37-0.18,1.44,1.44,0,0,1-.27-0.24l-0.26.33a1.57,1.57,0,0,0,.34.28,1.71,1.71,0,0,0,.44.19,2.07,2.07,0,0,0,.55.07,1.84,1.84,0,0,0,.59-0.09,1.07,1.07,0,0,0,.4-0.23,0.9,0.9,0,0,0,.22-0.32,1,1,0,0,0,.07-0.37,0.89,0.89,0,0,0-.09-0.41h0Z"/>
    <path class="cls-2" d="M46.07,27.35a1.19,1.19,0,0,1-.33.18,1.13,1.13,0,0,1-.38.06,1.35,1.35,0,0,1-.53-0.1,1.28,1.28,0,0,1-.42-0.29,1.33,1.33,0,0,1-.28-0.44,1.6,1.6,0,0,1,0-1.13,1.3,1.3,0,0,1,.28-0.44,1.27,1.27,0,0,1,.42-0.29,1.37,1.37,0,0,1,.53-0.1,1.19,1.19,0,0,1,.71.24,1.11,1.11,0,0,1,.25.26l0.36-.2a1.69,1.69,0,0,0-.33-0.35,1.46,1.46,0,0,0-.44-0.24,1.65,1.65,0,0,0-.55-0.09,1.92,1.92,0,0,0-.57.08,1.74,1.74,0,0,0-.49.24,1.65,1.65,0,0,0-.38.37,1.67,1.67,0,0,0-.25.49,2,2,0,0,0,0,1.18,1.68,1.68,0,0,0,.25.49,1.63,1.63,0,0,0,.38.37,1.73,1.73,0,0,0,.49.24,2,2,0,0,0,.57.08,1.65,1.65,0,0,0,.55-0.09,1.49,1.49,0,0,0,.43-0.24,1.81,1.81,0,0,0,.33-0.35l-0.36-.19a1.12,1.12,0,0,1-.25.26h0Z"/>
    <polygon class="cls-2" points="47.35 27.91 49.39 27.91 49.39 27.53 47.78 27.53 47.78 24.48 47.35 24.48 47.35 27.91 47.35 27.91 47.35 27.91"/>
    <path class="cls-2" d="M51.41,28a1.8,1.8,0,0,0,.62-0.1,1.14,1.14,0,0,0,.71-0.72,1.75,1.75,0,0,0,.09-0.58V24.48H52.39v2.09a1.23,1.23,0,0,1-.11.55,0.81,0.81,0,0,1-.33.35,1.22,1.22,0,0,1-1.08,0,0.8,0.8,0,0,1-.33-0.35,1.25,1.25,0,0,1-.11-0.55V24.48H50v2.1a1.74,1.74,0,0,0,.09.57,1.14,1.14,0,0,0,.71.72,1.77,1.77,0,0,0,.62.1h0Z"/>
    <path class="cls-2" d="M56.2,26.43A0.84,0.84,0,0,0,56,26.24a0.7,0.7,0,0,0-.26-0.1,0.75,0.75,0,0,0,.23-0.09,0.77,0.77,0,0,0,.33-0.4,0.86,0.86,0,0,0,.05-0.3,0.88,0.88,0,0,0-.12-0.46,0.8,0.8,0,0,0-.33-0.31,1.14,1.14,0,0,0-.52-0.11H53.81v3.43h1.58a1.2,1.2,0,0,0,.54-0.12,0.82,0.82,0,0,0,.34-0.32A1,1,0,0,0,56.4,27a0.86,0.86,0,0,0-.05-0.3,0.9,0.9,0,0,0-.15-0.26h0Zm-2-1.57h1a0.67,0.67,0,0,1,.33.08,0.49,0.49,0,0,1,.2.2,0.57,0.57,0,0,1,.07.28,0.56,0.56,0,0,1-.07.28,0.49,0.49,0,0,1-.2.2,0.71,0.71,0,0,1-.33.07h-1V24.86h0Zm1.63,2.39a0.5,0.5,0,0,1-.22.2,0.77,0.77,0,0,1-.34.07H54.24V26.35h1.07a0.77,0.77,0,0,1,.28,0,0.56,0.56,0,0,1,.2.13,0.53,0.53,0,0,1,.12.19,0.62,0.62,0,0,1,0,.22,0.61,0.61,0,0,1-.08.32h0Z"/>
    <path class="cls-2" d="M45.64,32.69a1,1,0,0,0,.29-0.2,0.93,0.93,0,0,0,.2-0.3,1.17,1.17,0,0,0,0-.84A0.93,0.93,0,0,0,45.9,31a1,1,0,0,0-.35-0.21,1.29,1.29,0,0,0-.44-0.07H43.72v3.43h0.43V32.81h0.7L45,33l0.77,1.2h0.51l-0.94-1.4a1.1,1.1,0,0,0,.34-0.09h0ZM45,32.44h-0.8V31.13h0.91a0.79,0.79,0,0,1,.36.08,0.6,0.6,0,0,1,.24.23,0.66,0.66,0,0,1,.09.34,0.67,0.67,0,0,1-.09.34,0.62,0.62,0,0,1-.24.23,0.77,0.77,0,0,1-.36.08H45Z"/>
    <path class="cls-2" d="M49.45,32.83a1.23,1.23,0,0,1-.11.54,0.81,0.81,0,0,1-.33.35,1.21,1.21,0,0,1-1.08,0,0.8,0.8,0,0,1-.33-0.35,1.24,1.24,0,0,1-.11-0.54V30.75H47.06v2.1a1.75,1.75,0,0,0,.09.57,1.18,1.18,0,0,0,.27.44,1.17,1.17,0,0,0,.44.28,1.78,1.78,0,0,0,.62.1,1.83,1.83,0,0,0,.62-0.1,1.14,1.14,0,0,0,.71-0.72,1.75,1.75,0,0,0,.09-0.58V30.75H49.45v2.09h0Z"/>
    <path class="cls-2" d="M52.81,32.55a1.41,1.41,0,0,0-.33-0.19l-0.38-.13-0.38-.1L51.4,32a0.67,0.67,0,0,1-.23-0.16,0.35,0.35,0,0,1-.09-0.24,0.47,0.47,0,0,1,.09-0.29,0.6,0.6,0,0,1,.25-0.19,0.94,0.94,0,0,1,.37-0.07,1.58,1.58,0,0,1,.37,0,1.3,1.3,0,0,1,.34.13,1.19,1.19,0,0,1,.29.23l0.26-.31a1.5,1.5,0,0,0-.53-0.36,1.84,1.84,0,0,0-.7-0.13,1.61,1.61,0,0,0-.48.07A1.2,1.2,0,0,0,51,31a0.9,0.9,0,0,0-.25.3,0.86,0.86,0,0,0-.09.39,0.82,0.82,0,0,0,.09.39,0.77,0.77,0,0,0,.23.26,1.42,1.42,0,0,0,.33.17l0.38,0.12L52,32.69a1.94,1.94,0,0,1,.33.12,0.67,0.67,0,0,1,.23.18,0.43,0.43,0,0,1,.09.27,0.53,0.53,0,0,1,0,.21,0.55,0.55,0,0,1-.14.19,0.68,0.68,0,0,1-.25.14,1.24,1.24,0,0,1-.39.06,1.44,1.44,0,0,1-.45-0.07,1.42,1.42,0,0,1-.64-0.42l-0.26.33a1.55,1.55,0,0,0,.34.28,1.72,1.72,0,0,0,.44.19,2.09,2.09,0,0,0,.55.07,1.82,1.82,0,0,0,.59-0.09,1.06,1.06,0,0,0,.4-0.23,0.89,0.89,0,0,0,.22-0.32,1,1,0,0,0,.07-0.37A0.88,0.88,0,0,0,53,32.83a0.82,0.82,0,0,0-.23-0.28h0Z"/>
    <path class="cls-2" d="M56,32.55a1.41,1.41,0,0,0-.33-0.19l-0.38-.13-0.38-.1L54.61,32a0.67,0.67,0,0,1-.23-0.16,0.35,0.35,0,0,1-.09-0.24,0.47,0.47,0,0,1,.09-0.29,0.59,0.59,0,0,1,.25-0.19A0.94,0.94,0,0,1,55,31.08a1.58,1.58,0,0,1,.37,0,1.3,1.3,0,0,1,.34.13,1.19,1.19,0,0,1,.29.23l0.26-.31a1.5,1.5,0,0,0-.53-0.36,1.84,1.84,0,0,0-.7-0.13,1.61,1.61,0,0,0-.48.07,1.2,1.2,0,0,0-.38.2,0.91,0.91,0,0,0-.25.3,0.86,0.86,0,0,0-.09.39,0.82,0.82,0,0,0,.09.39,0.77,0.77,0,0,0,.23.26,1.42,1.42,0,0,0,.33.17l0.38,0.12,0.38,0.1a2,2,0,0,1,.33.12,0.67,0.67,0,0,1,.23.18,0.43,0.43,0,0,1,.09.27,0.54,0.54,0,0,1,0,.21,0.55,0.55,0,0,1-.14.19,0.69,0.69,0,0,1-.25.14,1.24,1.24,0,0,1-.39.06A1.43,1.43,0,0,1,54,33.36l-0.26.33a1.54,1.54,0,0,0,.34.28,1.72,1.72,0,0,0,.44.19,2.08,2.08,0,0,0,.55.07,1.81,1.81,0,0,0,.59-0.09,1.06,1.06,0,0,0,.4-0.23,0.88,0.88,0,0,0,.22-0.32,1,1,0,0,0,.07-0.37,0.9,0.9,0,0,0-.09-0.41A0.83,0.83,0,0,0,56,32.55h0Z"/>
    <polygon class="cls-2" points="57.16 34.18 57.59 34.18 57.59 30.75 57.16 30.75 57.16 34.18 57.16 34.18 57.16 34.18"/>
    <g class="cls-3">
      <path class="cls-2" d="M59.88,30.75H59.61l-1.4,3.43h0.49L59,33.41h1.73L61,34.18h0.49l-1.39-3.43H59.88Zm0,2.29H59.14l0.73-1.85h0L60.61,33H59.88Z"/>
      <path class="cls-4" d="M38.26,0.36h-1L34.4,7.77h1.86l0.46-1.24H39.8l0.46,1.24h1.86L39.27,0.36h-1Zm0,4.71H37.18l1.08-3,1.08,3H38.26Z"/>
      <path class="cls-4" d="M79.6,3.23A3.56,3.56,0,0,0,76.23.39H76.15c-0.23,0-.45,0-0.68,0H72.82V7.77h2.65c0.23,0,.45,0,0.68,0h0.08A3.56,3.56,0,0,0,79.6,4.9a4.15,4.15,0,0,0,0-1.66h0ZM77.85,5a1.9,1.9,0,0,1-1.62,1.3,4.28,4.28,0,0,1-.7.05H74.47V1.82h1.07a4.34,4.34,0,0,1,.7.05,1.9,1.9,0,0,1,1.62,1.3,2.72,2.72,0,0,1,0,1.78h0Z"/>
      <path class="cls-4" d="M78.71,38.92a2.19,2.19,0,0,0-.36-0.28,2.72,2.72,0,0,0-1.47-.39H72.82v7.41h1.65V43.17h2.13l0.65,2.48H79l-0.82-2.84a2.16,2.16,0,0,0,.69-0.51,2.68,2.68,0,0,0-.16-3.38h0Zm-2.63,2.8H74.47v-2h2.19a1.24,1.24,0,0,1,.54.11,1,1,0,0,1,0,1.78,1.48,1.48,0,0,1-.72.12H76.08Z"/>
      <path class="cls-4" d="M38.29,39.66a2,2,0,0,1,2.13,1.07l1.37-.79a3.84,3.84,0,0,0-1.41-1.35,3.83,3.83,0,1,0,0,6.72,3.86,3.86,0,0,0,1.41-1.35l-1.37-.79a2,2,0,0,1-2.13,1.07,2.18,2.18,0,0,1-1.83-2.28h0a2.17,2.17,0,0,1,1.83-2.28h0Z"/>
    </g>
  </g>
</svg>
