<svg id="Слой_2" data-name="Слой 2" xmlns="http://www.w3.org/2000/svg" width="28.11mm" height="12.79mm" viewBox="0 0 79.68 36.26">
  <defs>
    <style>
      .cls-1 {
        fill: #fff;
      }
    </style>
  </defs>
  <title>_</title>
  <path id="adspro" class="cls-1" d="M71.33,19.4c-3.43-1.3-5.53-2.21-5.53-4.56V1.21a1.21,1.21,0,0,0-2.42,0V24.94A8.9,8.9,0,1,1,54.49,16a1.21,1.21,0,0,0,0-2.42,11.33,11.33,0,0,0-10.11,6.23,11.31,11.31,0,1,0-10.11,16.4,1.21,1.21,0,0,0,0-2.42,8.89,8.89,0,1,1,8.89-8.89v9.82a1.21,1.21,0,0,0,2.42,0V31.92a11.31,11.31,0,0,0,20.21-7V19.42a19.86,19.86,0,0,0,4.68,2.24c4.22,1.59,6.78,2.82,6.78,6.47a5.74,5.74,0,0,1-6,5.7H67.11a1.21,1.21,0,0,0,0,2.42h4.13a8.2,8.2,0,0,0,8.45-8.12C79.68,22.55,75.05,20.8,71.33,19.4Z"/>
</svg>
