<?xml version="1.0" encoding="utf-8"?>
<!-- Generator: Adobe Illustrator 19.0.0, SVG Export Plug-In . SVG Version: 6.00 Build 0)  -->
<svg version="1.1" id="Layer_1" xmlns="http://www.w3.org/2000/svg" xmlns:xlink="http://www.w3.org/1999/xlink" x="0px" y="0px"
	 viewBox="0 0 78 15.9" style="enable-background:new 0 0 78 15.9;" xml:space="preserve">
<style type="text/css">
	.st0{fill:#FFFFFF;}
</style>
<g>
	<path class="st0" d="M28.2,10.1c-1.3,0.3-2.4,1.4-2.4,2.9c0,1.6,1.3,2.9,2.9,2.9c0.9,0,1.7-0.4,2.2-1c0.7-0.8,2.6-1.2,3.8-1.2
		c1,0,2.7,0.3,3.4,1.1c0.6,0.6,1.4,1.1,2.3,1.1c1.6,0,2.9-1.3,2.9-2.9c0-1.4-1.1-2.5-2.4-2.9c-1-0.2-2.2-1.5-2.7-2.4
		c-0.6-1-1.1-2.9-0.8-3.9c0.1-0.3,0.2-0.6,0.2-1c0-1.6-1.3-2.9-2.9-2.9c-1.6,0-2.9,1.3-2.9,2.9c0,0.3,0.1,0.6,0.2,0.9
		c0.3,1-0.1,2.7-0.7,3.7C30.6,8.5,29.3,9.9,28.2,10.1z M37.8,11.5c-0.8,0.5-2.2,0.9-3.1,0.9c-0.9,0-2.4-0.3-3.3-0.9
		c0-1,0.4-2.5,0.9-3.3c0.5-0.8,1.4-1.8,2.3-2.2c0.9,0.5,2,1.6,2.4,2.4C37.5,9.2,37.8,10.5,37.8,11.5z"/>
	<path class="st0" d="M2.4,10.1C1,10.4,0,11.6,0,13c0,1.6,1.3,2.9,2.9,2.9c0.9,0,1.7-0.4,2.2-1c0.7-0.8,2.6-1.2,3.8-1.2
		c1,0,2.7,0.3,3.4,1.1c0.6,0.6,1.4,1.1,2.3,1.1c1.6,0,2.9-1.3,2.9-2.9c0-1.4-1.1-2.5-2.4-2.9c-1-0.2-2.2-1.5-2.7-2.4
		c-0.6-1-1.1-2.9-0.8-3.9c0.1-0.3,0.2-0.6,0.2-1c0-1.6-1.3-2.9-2.9-2.9S5.8,1.3,5.8,2.9c0,0.3,0.1,0.6,0.2,0.9
		c0.3,1-0.1,2.7-0.7,3.7C4.8,8.5,3.4,9.9,2.4,10.1z M11.9,11.5c-0.8,0.5-2.2,0.9-3.1,0.9c-0.9,0-2.4-0.3-3.3-0.9
		c0-1,0.4-2.5,0.9-3.3c0.5-0.8,1.4-1.8,2.3-2.2c0.9,0.5,2,1.6,2.4,2.4C11.6,9.2,12,10.5,11.9,11.5z"/>
	<g>
		<path class="st0" d="M50.3,1.4h0.3l1.3,2.8h-0.3l-0.3-0.7h-1.5l-0.3,0.7h-0.3L50.3,1.4z M51.1,3.1l-0.6-1.4l-0.6,1.4H51.1z"/>
		<path class="st0" d="M52,3.1c0-0.6,0.5-1.1,1-1.1c0.4,0,0.6,0.2,0.8,0.4l-0.2,0.2c-0.2-0.2-0.4-0.3-0.6-0.3
			c-0.4,0-0.7,0.4-0.7,0.8c0,0.4,0.3,0.8,0.8,0.8c0.3,0,0.5-0.1,0.6-0.3l0.2,0.2C53.6,4,53.4,4.2,53,4.2C52.4,4.2,52,3.7,52,3.1z"/>
		<path class="st0" d="M54,3.1c0-0.6,0.5-1.1,1-1.1c0.4,0,0.6,0.2,0.8,0.4l-0.2,0.2c-0.2-0.2-0.4-0.3-0.6-0.3
			c-0.4,0-0.7,0.4-0.7,0.8c0,0.4,0.3,0.8,0.8,0.8c0.3,0,0.5-0.1,0.6-0.3l0.2,0.2c-0.2,0.2-0.5,0.4-0.8,0.4C54.5,4.2,54,3.7,54,3.1z"
			/>
		<path class="st0" d="M56.1,3.1c0-0.6,0.5-1.1,1.1-1.1c0.6,0,1.1,0.5,1.1,1.1c0,0.6-0.5,1.1-1.1,1.1C56.5,4.2,56.1,3.7,56.1,3.1z
			 M57.9,3.1c0-0.4-0.3-0.8-0.8-0.8c-0.4,0-0.7,0.4-0.7,0.8c0,0.4,0.3,0.8,0.8,0.8C57.6,3.9,57.9,3.6,57.9,3.1z"/>
		<path class="st0" d="M60.4,4.2h-1.8v-2h0.3v1.8h1.1V2.1h0.3v1.8h0.3l0,0.8h-0.3V4.2z"/>
		<path class="st0" d="M61,2.1h0.3v1.6l1.2-1.6h0.3v2h-0.3V2.5l-1.2,1.6H61V2.1z"/>
		<path class="st0" d="M63.2,3.6c0-0.4,0.4-0.7,0.9-0.7c0.3,0,0.4,0,0.6,0.1V2.9c0-0.4-0.2-0.6-0.6-0.6c-0.2,0-0.4,0.1-0.6,0.1
			l-0.1-0.2c0.2-0.1,0.4-0.2,0.7-0.2c0.3,0,0.5,0.1,0.7,0.2C64.9,2.4,65,2.6,65,2.9v1.3h-0.3V3.9C64.6,4,64.3,4.2,64,4.2
			C63.6,4.2,63.2,4,63.2,3.6z M64.7,3.4V3.2c-0.2,0-0.3-0.1-0.6-0.1c-0.4,0-0.6,0.2-0.6,0.4C63.5,3.8,63.7,4,64,4
			C64.4,4,64.7,3.7,64.7,3.4z"/>
		<path class="st0" d="M67.3,4.2h-1.8v-2h0.3v1.8h1.1V2.1h0.3v1.8h0.3l0,0.8h-0.3V4.2z"/>
		<path class="st0" d="M67.9,2.1h0.3v1.6l1.2-1.6h0.3v2h-0.3V2.5l-1.2,1.6h-0.3V2.1z"/>
		<path class="st0" d="M70.6,3.4c-0.3-0.1-0.5-0.3-0.5-0.6c0-0.4,0.3-0.6,0.8-0.6h1v2h-0.3V3.4H71c-0.2,0.2-0.4,0.5-0.6,0.7H70
			L70.6,3.4z M71.5,3.2V2.4h-0.6c-0.3,0-0.5,0.1-0.5,0.4c0,0.2,0.2,0.4,0.5,0.4H71.5z"/>
		<path class="st0" d="M49.3,6.9h0.3v1.6l1.2-1.6h0.3v2h-0.3V7.3l-1.2,1.6h-0.3V6.9z"/>
		<path class="st0" d="M51.6,6.9h0.3v0.9h1.2V6.9h0.3v2h-0.3V8h-1.2v0.9h-0.3V6.9z"/>
		<path class="st0" d="M54.4,7.1h-0.7V6.9h1.8v0.3h-0.7v1.8h-0.3V7.1z"/>
		<path class="st0" d="M55.6,7.9c0-0.6,0.4-1.1,1-1.1c0.6,0,1,0.5,1,1.1c0,0,0,0.1,0,0.1h-1.6c0,0.4,0.4,0.7,0.7,0.7
			c0.3,0,0.5-0.1,0.6-0.3l0.2,0.2C57.2,8.8,57,9,56.6,9C56,9,55.6,8.5,55.6,7.9z M57.2,7.8c0-0.4-0.2-0.7-0.7-0.7
			c-0.4,0-0.6,0.3-0.7,0.7H57.2z"/>
		<path class="st0" d="M57.9,6.9h0.3v0.4C58.4,7,58.7,6.8,59,6.8c0.5,0,1,0.4,1,1.1c0,0.7-0.5,1.1-1,1.1c-0.4,0-0.6-0.2-0.8-0.4v1
			h-0.3V6.9z M59.7,7.9c0-0.5-0.3-0.8-0.7-0.8c-0.4,0-0.7,0.3-0.7,0.8s0.4,0.8,0.7,0.8C59.4,8.7,59.7,8.4,59.7,7.9z"/>
		<path class="st0" d="M60.3,8.3c0-0.4,0.4-0.7,0.9-0.7c0.3,0,0.4,0,0.6,0.1V7.7c0-0.4-0.2-0.6-0.6-0.6c-0.2,0-0.4,0.1-0.6,0.1
			L60.5,7c0.2-0.1,0.4-0.2,0.7-0.2c0.3,0,0.5,0.1,0.7,0.2c0.1,0.1,0.2,0.3,0.2,0.6v1.3h-0.3V8.6c-0.1,0.2-0.4,0.3-0.7,0.3
			C60.7,8.9,60.3,8.7,60.3,8.3z M61.8,8.2V8c-0.2,0-0.3-0.1-0.6-0.1c-0.4,0-0.6,0.2-0.6,0.4c0,0.3,0.2,0.4,0.5,0.4
			C61.5,8.7,61.8,8.5,61.8,8.2z"/>
		<path class="st0" d="M62.6,6.9h0.3V8L64,6.9h0.4l-0.9,0.9l0.9,1.2H64L63.3,8l-0.4,0.4v0.5h-0.3V6.9z"/>
		<path class="st0" d="M65.2,7.1h-0.7V6.9h1.8v0.3h-0.7v1.8h-0.3V7.1z"/>
		<path class="st0" d="M66.6,6.9h0.3v1.6l1.2-1.6h0.3v2h-0.3V7.3l-1.2,1.6h-0.3V6.9z"/>
		<path class="st0" d="M68.9,6.9h1c0.4,0,0.7,0.2,0.7,0.5c0,0.3-0.2,0.4-0.3,0.5c0.2,0.1,0.5,0.2,0.5,0.5c0,0.3-0.3,0.6-0.7,0.6h-1
			V6.9z M69.8,7.7c0.2,0,0.4-0.1,0.4-0.3c0-0.2-0.1-0.3-0.4-0.3h-0.6v0.6H69.8z M69.9,8.6c0.3,0,0.5-0.1,0.5-0.3
			c0-0.2-0.2-0.3-0.5-0.3h-0.6v0.7H69.9z"/>
		<path class="st0" d="M71.1,6.9h0.3v0.9h1.2V6.9h0.3v2h-0.3V8h-1.2v0.9h-0.3V6.9z"/>
		<path class="st0" d="M73.4,6.9h0.3v0.8h0.5c0.4,0,0.8,0.2,0.8,0.6c0,0.4-0.3,0.7-0.8,0.7h-0.9V6.9z M74.3,8.6
			c0.3,0,0.5-0.1,0.5-0.4c0-0.2-0.2-0.4-0.5-0.4h-0.5v0.7H74.3z M75.4,6.9h0.3v2h-0.3V6.9z"/>
		<path class="st0" d="M76.8,7.9l-0.8-1h0.3L77,7.7l0.6-0.8H78l-0.8,1l0.8,1h-0.4L77,8.1l-0.6,0.8H76L76.8,7.9z"/>
		<path class="st0" d="M49.1,13.1c0-0.4,0.4-0.7,0.9-0.7c0.3,0,0.4,0,0.6,0.1v-0.1c0-0.4-0.2-0.6-0.6-0.6c-0.2,0-0.4,0.1-0.6,0.1
			l-0.1-0.2c0.2-0.1,0.4-0.2,0.7-0.2c0.3,0,0.5,0.1,0.7,0.2c0.1,0.1,0.2,0.3,0.2,0.6v1.3h-0.3v-0.3c-0.1,0.2-0.4,0.3-0.7,0.3
			C49.5,13.7,49.1,13.5,49.1,13.1z M50.6,12.9v-0.2c-0.2,0-0.3-0.1-0.6-0.1c-0.4,0-0.6,0.2-0.6,0.4c0,0.3,0.2,0.4,0.5,0.4
			C50.3,13.5,50.6,13.2,50.6,12.9z"/>
		<path class="st0" d="M51.4,11.6h1.4v0.3h-1.1v1.8h-0.3V11.6z"/>
		<path class="st0" d="M52.9,12.6c0-0.6,0.4-1.1,1-1.1c0.6,0,1,0.5,1,1.1c0,0,0,0.1,0,0.1h-1.6c0,0.4,0.4,0.7,0.7,0.7
			c0.3,0,0.5-0.1,0.6-0.3l0.2,0.2c-0.2,0.2-0.5,0.4-0.8,0.4C53.3,13.7,52.9,13.3,52.9,12.6z M54.5,12.5c0-0.4-0.2-0.7-0.7-0.7
			c-0.4,0-0.6,0.3-0.7,0.7H54.5z"/>
		<path class="st0" d="M55.2,11.6h0.3v0.9h1.2v-0.9H57v2h-0.3v-0.9h-1.2v0.9h-0.3V11.6z"/>
		<path class="st0" d="M58,11.9h-0.7v-0.3h1.8v0.3h-0.7v1.8H58V11.9z"/>
		<path class="st0" d="M59.2,12.6c0-0.6,0.5-1.1,1-1.1c0.4,0,0.6,0.2,0.8,0.4l-0.2,0.2c-0.2-0.2-0.4-0.3-0.6-0.3
			c-0.4,0-0.7,0.4-0.7,0.8c0,0.4,0.3,0.8,0.8,0.8c0.3,0,0.5-0.1,0.6-0.3l0.2,0.2c-0.2,0.2-0.5,0.4-0.8,0.4
			C59.6,13.7,59.2,13.2,59.2,12.6z"/>
		<path class="st0" d="M61.9,11.9h-0.7v-0.3H63v0.3h-0.7v1.8h-0.3V11.9z"/>
		<path class="st0" d="M63.3,11.6h1c0.4,0,0.7,0.2,0.7,0.5c0,0.3-0.2,0.4-0.3,0.5c0.2,0.1,0.5,0.2,0.5,0.5c0,0.3-0.3,0.6-0.7,0.6h-1
			V11.6z M64.2,12.5c0.2,0,0.4-0.1,0.4-0.3c0-0.2-0.1-0.3-0.4-0.3h-0.6v0.6H64.2z M64.3,13.4c0.3,0,0.5-0.1,0.5-0.3
			c0-0.2-0.2-0.3-0.5-0.3h-0.6v0.7H64.3z"/>
	</g>
	<path class="st0" d="M23.6,5.1c0.6-0.5,1-1.3,1-2.2c0-1.6-1.3-2.9-2.9-2.9c-1.6,0-2.9,1.3-2.9,2.9c0,0.9,0.4,1.6,1,2.2
		C20.5,5.8,21,6.8,21,7.9c0,1.1-0.5,2.2-1.3,2.9c-0.6,0.5-1,1.3-1,2.2c0,1.6,1.3,2.9,2.9,2.9c1.6,0,2.9-1.3,2.9-2.9
		c0-0.9-0.4-1.6-1-2.2c-0.8-0.7-1.3-1.7-1.3-2.9C22.3,6.8,22.8,5.8,23.6,5.1z"/>
</g>
</svg>
