<svg id="Слой_2" data-name="Слой 2" xmlns="http://www.w3.org/2000/svg" xmlns:xlink="http://www.w3.org/1999/xlink" width="28.11mm" height="14.07mm" viewBox="0 0 79.68 39.89">
  <defs>
    <style>
      .cls-1 {
        fill: none;
      }

      .cls-2 {
        fill: #fff;
      }

      .cls-3 {
        clip-path: url(#clip-path);
      }
    </style>
    <clipPath id="clip-path">
      <rect class="cls-1" x="19.11" width="59.85" height="39.89"/>
    </clipPath>
  </defs>
  <title>_</title>
  <g>
    <path class="cls-2" d="M58.2,9.69h-3.4l1.7-3.92,1.7,3.92h0ZM57.73,0V0H55.45L49,14l0,0v1.93h3.1L53.38,13h6.26l1.27,2.94h3.25V14L57.73,0h0Z"/>
    <g class="cls-3">
      <polygon class="cls-2" points="43.77 7.89 48.14 2.01 48.15 2 48.15 0 45.01 0 40.46 6.3 38.74 6.3 38.74 0 34.9 0 34.9 15.94 38.74 15.94 38.74 9.8 40.49 9.8 45.16 15.93 45.17 15.94 48.39 15.94 48.39 13.99 43.77 7.89 43.77 7.89"/>
      <path class="cls-2" d="M24.92,9.69l1.7-3.92,1.7,3.92h-3.4ZM27.84,0V0H25.56L19.13,14l0,0v1.93h3.1L23.49,13h6.26L31,15.94h3.25V14L27.84,0h0Z"/>
    </g>
    <path class="cls-2" d="M68.78,3.3h3.74a2.14,2.14,0,0,1-.12,4.28H68.78V3.3h0Zm4-3.3H64.93V15.94h3.85V10.89h4.09c2.65,0,5.49-1.43,5.49-5.44S75.33,0,72.74,0h0Z"/>
    <path class="cls-2" d="M21.53,26.23l-0.67-1.74-0.67,1.74h1.34Zm-2.3,1.24,1.4-3.61h0.47l1.41,3.61v0.16H22.06l-0.38-1H20.05l-0.39,1H19.24V27.47h0Z"/>
    <path class="cls-2" d="M23,26.35V25.14a1.28,1.28,0,0,1,1.44-1.36,1.25,1.25,0,0,1,1.37,1.28v0.05H25.38V25.06a0.94,0.94,0,0,0-1.88,0v1.28a0.94,0.94,0,0,0,1.88,0V26.37h0.47v0.05a1.25,1.25,0,0,1-1.37,1.28A1.28,1.28,0,0,1,23,26.35h0Z"/>
    <path class="cls-2" d="M26.58,26.35V25.14A1.28,1.28,0,0,1,28,23.78a1.25,1.25,0,0,1,1.37,1.28v0.05H28.93V25.06a0.94,0.94,0,0,0-1.88,0v1.28a0.94,0.94,0,0,0,1.88,0V26.37H29.4v0.05A1.25,1.25,0,0,1,28,27.71a1.28,1.28,0,0,1-1.44-1.36h0Z"/>
    <path class="cls-2" d="M32.56,26.38V25.11a1,1,0,0,0-2,0v1.27a1,1,0,0,0,2,0h0Zm-2.43,0V25.13a1.45,1.45,0,0,1,2.9,0v1.23a1.45,1.45,0,0,1-2.9,0h0Z"/>
    <polygon class="cls-2" points="36.66 27.63 33.92 27.63 33.92 23.86 34.38 23.86 34.38 27.21 36.16 27.21 36.16 23.86 36.62 23.86 36.62 27.21 37.09 27.21 37.09 28.4 36.66 28.4 36.66 27.63 36.66 27.63"/>
    <polygon class="cls-2" points="37.8 23.86 38.27 23.86 38.27 26.82 40.15 23.86 40.58 23.86 40.58 27.63 40.12 27.63 40.12 24.67 38.23 27.63 37.8 27.63 37.8 23.86 37.8 23.86"/>
    <path class="cls-2" d="M43.51,26.23l-0.67-1.74-0.67,1.74h1.34Zm-2.3,1.24,1.4-3.61h0.47l1.41,3.61v0.16H44l-0.38-1H42l-0.39,1H41.21V27.47h0Z"/>
    <polygon class="cls-2" points="47.85 27.63 45.12 27.63 45.12 23.86 45.58 23.86 45.58 27.21 47.35 27.21 47.35 23.86 47.82 23.86 47.82 27.21 48.29 27.21 48.29 28.4 47.85 28.4 47.85 27.63 47.85 27.63"/>
    <polygon class="cls-2" points="49 23.86 49.46 23.86 49.46 26.82 51.35 23.86 51.78 23.86 51.78 27.63 51.31 27.63 51.31 24.67 49.43 27.63 49 27.63 49 23.86 49 23.86"/>
    <path class="cls-2" d="M54.78,25.74V24.27h-1a0.65,0.65,0,0,0-.69.74,0.64,0.64,0,0,0,.69.73h1Zm-2.22,1.73L53.4,26.1a1.16,1.16,0,0,1,.31-2.24h1.53v3.77H54.78V26.16H53.89L53,27.63H52.56V27.47h0Z"/>
    <polygon class="cls-2" points="19.61 29.95 20.08 29.95 20.08 31.62 20.68 31.62 21.78 29.95 22.21 29.95 22.21 30.11 21.09 31.8 22.28 33.56 22.28 33.72 21.82 33.72 20.69 32.04 20.08 32.04 20.08 33.72 19.61 33.72 19.61 29.95 19.61 29.95"/>
    <path class="cls-2" d="M25.17,32.47V31.2a1,1,0,0,0-2,0v1.27a1,1,0,0,0,2,0h0Zm-2.43,0V31.22a1.29,1.29,0,0,1,1.45-1.35,1.29,1.29,0,0,1,1.45,1.35v1.23a1.29,1.29,0,0,1-1.45,1.35,1.29,1.29,0,0,1-1.45-1.35h0Z"/>
    <polygon class="cls-2" points="26.53 29.95 26.99 29.95 28.2 31.86 29.42 29.95 29.85 29.95 29.85 33.72 29.4 33.72 29.4 30.78 28.35 32.44 28.04 32.44 26.99 30.79 26.99 33.72 26.53 33.72 26.53 29.95 26.53 29.95"/>
    <polygon class="cls-2" points="30.86 29.95 31.31 29.95 32.52 31.86 33.74 29.95 34.18 29.95 34.18 33.72 33.72 33.72 33.72 30.78 32.67 32.44 32.36 32.44 31.31 30.79 31.31 33.72 30.86 33.72 30.86 29.95 30.86 29.95"/>
    <polygon class="cls-2" points="36.08 32.7 34.75 30.11 34.75 29.95 35.18 29.95 36.31 32.18 37.29 29.95 37.71 29.95 37.71 30.11 36.11 33.72 35.66 33.72 35.66 33.56 36.08 32.7 36.08 32.7"/>
    <polygon class="cls-2" points="38.28 29.95 38.74 29.95 38.74 31.62 40.58 31.62 40.58 29.95 41.05 29.95 41.05 33.72 40.58 33.72 40.58 32.04 38.74 32.04 38.74 33.72 38.28 33.72 38.28 29.95 38.28 29.95"/>
    <polygon class="cls-2" points="42.05 29.95 42.52 29.95 42.52 32.91 44.41 29.95 44.84 29.95 44.84 33.72 44.37 33.72 44.37 30.77 42.48 33.72 42.05 33.72 42.05 29.95 42.05 29.95"/>
    <polygon class="cls-2" points="45.84 29.95 46.3 29.95 46.3 31.62 46.91 31.62 48 29.95 48.44 29.95 48.44 30.11 47.32 31.8 48.51 33.56 48.51 33.72 48.04 33.72 46.91 32.04 46.3 32.04 46.3 33.72 45.84 33.72 45.84 29.95 45.84 29.95"/>
    <path class="cls-2" d="M51.05,32.32l-0.67-1.74-0.67,1.74h1.34Zm-2.3,1.24L50.16,30h0.47L52,33.56v0.16H51.57l-0.38-1H49.57l-0.39,1H48.75V33.56h0Z"/>
    <polygon class="cls-2" points="55.4 33.72 52.66 33.72 52.66 29.95 53.13 29.95 53.13 33.3 54.9 33.3 54.9 29.95 55.37 29.95 55.37 33.3 55.84 33.3 55.84 34.49 55.4 34.49 55.4 33.72 55.4 33.72"/>
    <polygon class="cls-2" points="56.54 29.95 57.01 29.95 57.01 32.91 58.9 29.95 59.33 29.95 59.33 33.72 58.86 33.72 58.86 30.77 56.97 33.72 56.54 33.72 56.54 29.95 56.54 29.95"/>
    <path class="cls-2" d="M62.65,32.47V31.2a1,1,0,0,0-2,0v1.27a1,1,0,0,0,2,0h0Zm-2.43,0V31.22a1.45,1.45,0,0,1,2.89,0v1.23a1.45,1.45,0,0,1-2.89,0h0Z"/>
    <polygon class="cls-2" points="64.01 29.95 64.48 29.95 64.48 31.62 66.31 31.62 66.31 29.95 66.78 29.95 66.78 33.72 66.31 33.72 66.31 32.04 64.48 32.04 64.48 33.72 64.01 33.72 64.01 29.95 64.01 29.95"/>
    <polygon class="cls-2" points="67.78 29.95 68.25 29.95 68.25 31.62 70.09 31.62 70.09 29.95 70.55 29.95 70.55 33.72 70.09 33.72 70.09 32.04 68.25 32.04 68.25 33.72 67.78 33.72 67.78 29.95 67.78 29.95"/>
    <g class="cls-3">
      <path class="cls-2" d="M74.79,30h0.47v3.77H74.79V30h0Zm-1.73,3.35a0.72,0.72,0,0,0,0-1.44H72v1.44h1ZM71.55,30H72v1.5h1.09a1.14,1.14,0,0,1,0,2.27H71.55V30h0Z"/>
      <polygon class="cls-2" points="75.94 33.56 77.16 31.79 76 30.11 76 29.95 76.47 29.95 77.45 31.42 78.45 29.95 78.89 29.95 78.89 30.11 77.73 31.79 78.97 33.56 78.97 33.72 78.49 33.72 77.44 32.16 76.38 33.72 75.94 33.72 75.94 33.56 75.94 33.56"/>
    </g>
    <path class="cls-2" d="M21.53,38.41l-0.67-1.74-0.67,1.74h1.34Zm-2.3,1.24L20.64,36h0.47l1.41,3.61v0.16H22.06l-0.38-1H20.05l-0.39,1H19.24V39.66h0Z"/>
    <polygon class="cls-2" points="23.14 36.05 25.44 36.05 25.44 36.46 23.61 36.46 23.61 39.81 23.14 39.81 23.14 36.05 23.14 36.05"/>
    <polygon class="cls-2" points="25.95 36.05 28.3 36.05 28.3 36.46 26.42 36.46 26.42 37.71 28.05 37.71 28.05 38.12 26.42 38.12 26.42 39.4 28.3 39.4 28.3 39.81 25.95 39.81 25.95 36.05 25.95 36.05"/>
    <polygon class="cls-2" points="29.09 36.05 29.56 36.05 29.56 37.71 31.4 37.71 31.4 36.05 31.86 36.05 31.86 39.81 31.4 39.81 31.4 38.13 29.56 38.13 29.56 39.81 29.09 39.81 29.09 36.05 29.09 36.05"/>
    <path class="cls-2" d="M35.64,38.54V37.32A1.28,1.28,0,0,1,37.08,36a1.25,1.25,0,0,1,1.37,1.28V37.3H38V37.25a0.94,0.94,0,0,0-1.88,0v1.28a0.94,0.94,0,0,0,1.88,0V38.56h0.47v0.05a1.25,1.25,0,0,1-1.37,1.28,1.28,1.28,0,0,1-1.44-1.36h0Z"/>
    <polygon class="cls-2" points="33.63 36.46 32.49 36.46 32.49 36.05 35.24 36.05 35.24 36.46 34.1 36.46 34.1 39.81 33.63 39.81 33.63 36.46 33.63 36.46"/>
    <polygon class="cls-2" points="40.07 36.46 38.92 36.46 38.92 36.05 41.67 36.05 41.67 36.46 40.53 36.46 40.53 39.81 40.07 39.81 40.07 36.46 40.07 36.46"/>
    <path class="cls-2" d="M44,39.4a0.65,0.65,0,0,0,0-1.29H42.84V39.4H44Zm-0.12-1.69a0.62,0.62,0,0,0,0-1.25h-1v1.25h1ZM42.37,36H44a0.91,0.91,0,0,1,1,1,0.8,0.8,0,0,1-.49.82,0.86,0.86,0,0,1,.63.93,0.93,0.93,0,0,1-1,1H42.37V36h0Z"/>
    <path class="cls-2" d="M49.84,37.9a0.72,0.72,0,0,0,0-1.44h-1V37.9h1ZM48.34,36h1.58a1.14,1.14,0,0,1,0,2.27H48.81v1.5H48.34V36h0Z"/>
    <path class="cls-2" d="M54,38.56V37.29a1,1,0,0,0-2,0v1.27a1,1,0,0,0,2,0h0Zm-2.43,0V37.32a1.45,1.45,0,0,1,2.9,0v1.23a1.45,1.45,0,0,1-2.9,0h0Z"/>
    <path class="cls-2" d="M55.29,38.54V37.32A1.28,1.28,0,0,1,56.73,36a1.25,1.25,0,0,1,1.37,1.28V37.3H57.64V37.25a0.94,0.94,0,0,0-1.88,0v1.28a0.94,0.94,0,0,0,1.88,0V38.56H58.1v0.05a1.25,1.25,0,0,1-1.37,1.28,1.28,1.28,0,0,1-1.44-1.36h0Z"/>
    <path class="cls-2" d="M58.84,38.54V37.32A1.28,1.28,0,0,1,60.28,36a1.25,1.25,0,0,1,1.37,1.28V37.3H61.18V37.25a0.94,0.94,0,0,0-1.88,0v1.28a0.94,0.94,0,0,0,1.88,0V38.56h0.47v0.05a1.25,1.25,0,0,1-1.37,1.28,1.28,1.28,0,0,1-1.44-1.36h0Z"/>
    <polygon class="cls-2" points="62.49 36.05 62.96 36.05 62.96 39 64.85 36.05 65.28 36.05 65.28 39.81 64.81 39.81 64.81 36.86 62.92 39.81 62.49 39.81 62.49 36.05 62.49 36.05"/>
    <polygon class="cls-2" points="66.28 36.05 66.75 36.05 66.75 39 68.64 36.05 69.07 36.05 69.07 39.81 68.6 39.81 68.6 36.86 66.71 39.81 66.28 39.81 66.28 36.05 66.28 36.05"/>
  </g>
</svg>
