<svg id="Слой_2" data-name="Слой 2" xmlns="http://www.w3.org/2000/svg" width="28.01mm" height="22.11mm" viewBox="0 0 79.41 62.67">
  <defs>
    <style>
      .cls-1 {
        fill: #fff;
      }
    </style>
  </defs>
  <title>-</title>
  <g id="arround">
    <path class="cls-1" d="M39.82,0l0.64,0.15L50,2.69l1.46,0.41a0.88,0.88,0,0,1,.4.24L60,11.51a1.39,1.39,0,0,1,.39.65c0.66,2.49,1.34,5,2,7.46q0.45,1.65.89,3.31a2.38,2.38,0,0,0,.08.34,1.52,1.52,0,0,1,0,1.05c-0.41,1.49-.79,3-1.18,4.49-0.57,2.15-1.15,4.31-1.72,6.46a1.07,1.07,0,0,1-.39.65,4,4,0,0,0-.44.42L52,44.1a1.16,1.16,0,0,1-.54.33L46,45.89l-5.79,1.55a1.33,1.33,0,0,1-.72,0l-7.76-2.06-3.53-.92a0.94,0.94,0,0,1-.44-0.26l-7.78-7.78c-0.17-.17-0.34-0.36-0.53-0.51a1.08,1.08,0,0,1-.35-0.58l-1.67-6.2c-0.44-1.65-.88-3.3-1.33-4.95a1.2,1.2,0,0,1,0-.68c0.33-1.18.64-2.37,1-3.56l2-7.38a0.23,0.23,0,0,0,0,0,1.92,1.92,0,0,1,.7-1.24q3.74-3.73,7.46-7.48a1.87,1.87,0,0,1,1.24-.74L38.64,0.29l0.84-.22ZM37.16,1.36c-0.11,0-.21.09-0.32,0.12L30.65,3.15l-2,.54a14.57,14.57,0,0,0,1.18,2l0.34-.18,6.72-3.89,0.29-.19a0.23,0.23,0,0,0,0-.11h0l0,0Zm5-.08,0,0h0a0.21,0.21,0,0,0,0,.11l0.29,0.18,7,4.06,0.37,0.19c0.21-.37.41-0.72,0.61-1.07A10.25,10.25,0,0,0,51,3.69L50.7,3.58,44.49,1.93ZM28.48,29.88l0.2-.08,10.33-6a0.17,0.17,0,0,0,0-.08c-0.22-.17-10-5.81-10.44-6a0.41,0.41,0,0,0-.12,0C28.42,18,28.43,29.33,28.48,29.88Zm11.73-5.52a1.16,1.16,0,0,0,0,.18q0,6,0,12a0.06,0.06,0,0,0,0,0l0,0h0l0.19-.09,10.26-6,0,0a0.25,0.25,0,0,0,0-.05,1,1,0,0,0-.13-0.1Zm-0.77,0C39,24.58,29.17,30.3,28.9,30.51a0.29,0.29,0,0,0,0,.07l0.14,0.09,10.29,5.91h0.08C39.5,36.24,39.49,24.81,39.44,24.39Zm0-13.41-0.09,0h0L39.21,11,29,17l0,0a0.27,0.27,0,0,0,0,.06l0.35,0.22L35,20.56l4.14,2.38a0.44,0.44,0,0,0,.36.13V11Zm11.63,6.71-0.05,0h0l-0.15.08L40.62,23.68l0,0a0.24,0.24,0,0,0,0,.07L40.9,24l9.79,5.63a2.49,2.49,0,0,0,.23.13,1.07,1.07,0,0,0,.19,0c0-4,0-8,0-12A0.42,0.42,0,0,0,51.09,17.69ZM40.2,10.93a0.87,0.87,0,0,0-.06.49q0,3.35,0,6.7,0,2.33,0,4.65a0.47,0.47,0,0,0,.05.33L40.36,23l10.3-6,0,0a0.11,0.11,0,0,0,0,0c-0.26-.21-6.58-3.88-10.17-5.91ZM51,16.3a0.24,0.24,0,0,0,0-.09q-0.66-4.67-1.32-9.33a0.41,0.41,0,0,0,0-.12l0,0-0.12,0-8.9,3.46,0,0a0.1,0.1,0,0,0,0,0,0.17,0.17,0,0,0,0,.07l10.28,5.92A0.44,0.44,0,0,0,51,16.3Zm-22.48.08a0.66,0.66,0,0,0,.41-0.17l5.82-3.38,3.91-2.27a0.34,0.34,0,0,0,.25-0.24l-8.79-3.5a0.34,0.34,0,0,0-.12,0,0.2,0.2,0,0,0-.06.07q-0.71,4.66-1.42,9.32A1.22,1.22,0,0,0,28.52,16.37Zm1.58,24.42c0.34-.08,8.44-3.38,8.84-3.6v0l0,0L38.76,37,28.63,31.2h0l-0.06,0L30,40.64A0.79,0.79,0,0,0,30.11,40.79Zm10.52-3.59a0.65,0.65,0,0,0,.13.11l8.86,3.47a1.43,1.43,0,0,0,.06-0.19L51,31.32a0.24,0.24,0,0,0,0-.08,0.18,0.18,0,0,0-.08,0l-10.18,5.9Zm11.19-7.42,0.49-.37,2.1-1.69,4.77-3.84a0.32,0.32,0,0,0,.2-0.28l-7.44-5.83a0.19,0.19,0,0,0-.08,0,0.16,0.16,0,0,0,0,.07C51.81,21.78,51.81,25.73,51.81,29.78Zm-24.09-12a0.91,0.91,0,0,0-.31.2l-2,1.61-5,4c-0.08.07-.16,0.15-0.25,0.24l7.41,5.81a0.45,0.45,0,0,0,.11,0,0.19,0.19,0,0,0,.05-0.07q0-5.8,0-11.61C27.75,17.92,27.74,17.86,27.73,17.76Zm1.63,23-1.48-9.27a2.63,2.63,0,0,0-.08-0.28,0.29,0.29,0,0,0-.1,0l-0.23.12-7.13,4.14,0,0a0.12,0.12,0,0,0,0,0C20.61,35.74,28.9,40.51,29.36,40.72Zm21-.1,0.39-.21,4.88-2.82,3.45-2a0.23,0.23,0,0,0,.19-0.23l-7.4-4.25a0.39,0.39,0,0,0-.12,0C51.68,31.42,50.45,40,50.41,40.61ZM39.38,1L39,1.25,34.35,3.93,30.78,6a0.35,0.35,0,0,0-.25.24l8.75,3.48a0.56,0.56,0,0,0,.15,0c0-.09,0-0.17,0-0.26C39.5,7.36,39.46,1.51,39.38,1ZM19.91,34.87l0.46-.24,3.16-1.83,3.72-2.16a0.29,0.29,0,0,0,.23-0.25L20,24.56a0.2,0.2,0,0,0-.09,0,0.45,0.45,0,0,0,0,.11C19.91,28,19.91,31.42,19.91,34.87ZM39.46,46.53a0.61,0.61,0,0,0,.05-0.38c0-.61,0-1.22,0-1.83q0-3,0-6.09a1.12,1.12,0,0,0,0-.48L39,37.95,34.4,39.82l-3.54,1.44a0.27,0.27,0,0,0-.26.22l8.72,5A0.48,0.48,0,0,0,39.46,46.53ZM19.91,12.7c0,0.22,0,.36,0,0.5q0,3.56,0,7.13c0,0.83,0,1.65,0,2.48A0.18,0.18,0,0,0,20,23l0.33-.26,1.12-.9,5.72-4.6A0.38,0.38,0,0,0,27.39,17Zm0.34-.61,0.44,0.27,4.9,2.81,1.88,1.08a0.35,0.35,0,0,0,.34.09l1.4-9.25a0.52,0.52,0,0,0,0-.14A1,1,0,0,0,29,7ZM59.65,24.4c-0.56.39-7.23,5.77-7.48,6l0.33,0.21L54.95,32l4.29,2.47a0.9,0.9,0,0,0,.42.19c0.08-.44.09-7.24,0-10C59.68,24.62,59.67,24.54,59.65,24.4ZM40.18,37.83c0,0.23,0,.39,0,0.55q0,3.24,0,6.47c0,0.48,0,1,0,1.43a0.15,0.15,0,0,0,.07.18c0.38-.16,8.55-4.9,8.82-5.12a1,1,0,0,0-.15-0.09ZM59.66,23c0-.23,0-0.37,0-0.51q0-1.8,0-3.61,0-2.89,0-5.78a0.67,0.67,0,0,0,0-.37c-0.38.15-7.2,4.11-7.5,4.35ZM40.18,9.58a0.44,0.44,0,0,0,.14,0l8.61-3.35A0.24,0.24,0,0,0,49,6.14l-0.37-.22-5.23-3L40.45,1.22a0.34,0.34,0,0,0-.31-0.1q0,4.15,0,8.29A0.79,0.79,0,0,0,40.18,9.58Zm19.06,2.48-0.4-.24-4.4-2.54L50.76,7.16a0.34,0.34,0,0,0-.3-0.1,0.35,0.35,0,0,0,0,.09L51.68,16c0,0.11,0,.23.07,0.34l0,0,0,0C52.1,16.24,58.76,12.39,59.24,12.06ZM16.82,24.12a0.18,0.18,0,0,0,0,.05,0.8,0.8,0,0,0,0,.17l2.33,8.58,0,0h0.07q0-4.32,0-8.64a1.72,1.72,0,0,0,0-.21,0.54,0.54,0,0,0-.14,0l-2,0Zm43.56,8.7,0.05,0,0,0a0.75,0.75,0,0,0,.05-0.12l2.26-8.52a0.09,0.09,0,0,0,0,0l0,0-0.12,0H60.54a0.57,0.57,0,0,0-.16.05v8.74ZM21.55,10.54l0.64-.36L28.8,6.35a0.71,0.71,0,0,0,.36-0.28,13.53,13.53,0,0,0-1.23-2C27.59,4.33,21.71,10.23,21.55,10.54Zm0.17,26.68L22,37.55l2.37,2.36,3.42,3.41a0.4,0.4,0,0,0,.3.21,15,15,0,0,0,1.1-2,0.22,0.22,0,0,0,0-.07l-7.34-4.23H21.73Zm36.13,0c-0.36.08-3.72,2-7.14,4l-0.3.2c0.38,0.68.78,1.34,1.17,2a0.63,0.63,0,0,0,.14-0.07ZM19.19,23.35a0.8,0.8,0,0,0,0-.16q0-4.25,0-8.5a0.38,0.38,0,0,0-.14.22l-2.21,8.34a0.34,0.34,0,0,0,0,.12A14.74,14.74,0,0,0,19.19,23.35ZM42.44,46.08a0.15,0.15,0,0,0,.07,0c2.82-.74,5.63-1.51,8.45-2.27a12.67,12.67,0,0,0-1.18-2C49.21,42.08,42.71,45.87,42.44,46.08Zm8-39.92a1.12,1.12,0,0,0,.37.26L54.45,8.5l3.2,1.84a0.23,0.23,0,0,0,.23.08L51.73,4.22a0.51,0.51,0,0,0-.13-0.06ZM62.72,23.29C62,20.5,61.23,17.74,60.47,15a0.12,0.12,0,0,0-.1-0.13c0,0.07,0,.14,0,0.21q0,4.08,0,8.17a0.08,0.08,0,0,0,0,0l0,0A16.14,16.14,0,0,0,62.72,23.29ZM37.18,46.13A0.87,0.87,0,0,0,37.07,46l-6.84-4L30,41.91H29.85l-0.36.62-0.38.68a2.7,2.7,0,0,0-.33.68Z"/>
    <g>
      <path class="cls-1" d="M38.84,51.72a6.27,6.27,0,0,1,2.51.47,5.1,5.1,0,0,1,3.14,4A5.71,5.71,0,0,1,44.3,59a5.06,5.06,0,0,1-3.06,3.23,6.26,6.26,0,0,1-4.83,0,5,5,0,0,1-3.15-3.68,5.64,5.64,0,0,1,.16-3.21A5.19,5.19,0,0,1,37,51.95,6.85,6.85,0,0,1,38.84,51.72Zm-2.7,5.49a2.6,2.6,0,0,0,.71,1.89,2.68,2.68,0,0,0,2.66.77,2.47,2.47,0,0,0,1.93-1.8,3,3,0,0,0,.11-1.25,2.68,2.68,0,0,0-.59-1.47,2.8,2.8,0,0,0-4.09-.11A2.67,2.67,0,0,0,36.13,57.21Z"/>
      <path class="cls-1" d="M67.21,62.36H64.89L64.62,62l-3.49-4.77-0.27-.34a0.34,0.34,0,0,0-.07.3q0,2.33,0,4.65c0,0.16,0,.31,0,0.46a17.31,17.31,0,0,1-2.73,0,2.17,2.17,0,0,1,0-.23c0-.09,0-0.17,0-0.26q0-4.67,0-9.35c0-.16,0-0.32,0-0.5,0.14,0,.25,0,0.36,0,0.61,0,1.22,0,1.83,0a0.55,0.55,0,0,1,.5.26c0.91,1.26,1.83,2.5,2.74,3.76l0.74,1c0.06,0.08.12,0.15,0.18,0.21l0.07,0a0.08,0.08,0,0,0,0,0,0.59,0.59,0,0,0,0-.09q0-2.48,0-5a0.33,0.33,0,0,1,0-.07A0.61,0.61,0,0,1,64.67,52H67.1l0.11,0a1.73,1.73,0,0,1,.05.23c0,0.1,0,.2,0,0.3q0,4.63,0,9.26A1.45,1.45,0,0,1,67.21,62.36Z"/>
      <path class="cls-1" d="M69.85,62.35V52a1.87,1.87,0,0,1,.3,0c1.33,0,2.67,0,4,0a5.44,5.44,0,0,1,2.12.39,4.83,4.83,0,0,1,3.13,4.37,5.39,5.39,0,0,1-.22,2.1A4.91,4.91,0,0,1,75.6,62.2a5.31,5.31,0,0,1-1.42.18h-4Zm2.93-2.63a7.51,7.51,0,0,0,1.75-.06A2.28,2.28,0,0,0,76.34,58a3.12,3.12,0,0,0,.1-1.25,2.3,2.3,0,0,0-1.8-2.08,9.61,9.61,0,0,0-1.87-.09,2.36,2.36,0,0,0,0,.28C72.68,56.22,72.71,59.32,72.78,59.72Z"/>
      <path class="cls-1" d="M23.13,52c0.16,0,.27,0,0.38,0H27.6a4.17,4.17,0,0,1,1.7.32,3.44,3.44,0,0,1,2.18,3.08,3.6,3.6,0,0,1-.09,1.16,3.25,3.25,0,0,1-1.19,1.82l-0.32.25,1,1.88c0.33,0.61.67,1.2,1,1.83a30.24,30.24,0,0,1-3.19,0L27,59.24a4.88,4.88,0,0,0-.91,0,0.37,0.37,0,0,0-.1.35c0,0.75,0,1.51,0,2.26,0,0.16,0,.32,0,0.48a0.7,0.7,0,0,1-.18.06H23.32l-0.15,0a1.55,1.55,0,0,1,0-.24c0-.36,0-0.72,0-1.09q0-4.24,0-8.48V52Zm2.93,4.7a7.46,7.46,0,0,0,1.62,0,1,1,0,0,0,.86-1,1.06,1.06,0,0,0-1-1.11,13.05,13.05,0,0,0-1.46,0A10.07,10.07,0,0,0,26.06,56.71Z"/>
      <path class="cls-1" d="M19.27,58.61c0.66,1.25,1.35,2.46,2,3.71a0.73,0.73,0,0,1-.16.05h-3l-1.67-3.13a4.7,4.7,0,0,0-.94,0,0.83,0.83,0,0,0-.07.47c0,0.74,0,1.48,0,2.22,0,0.14,0,.28,0,0.42a21.21,21.21,0,0,1-2.82,0,2.26,2.26,0,0,1,0-.24c0-.09,0-0.17,0-0.26q0-4.67,0-9.34c0-.16,0-0.31,0-0.49,0.14,0,.25,0,0.37,0H17a4.11,4.11,0,0,1,1.81.39,3.43,3.43,0,0,1,2,3,3.63,3.63,0,0,1-.09,1.16,3.24,3.24,0,0,1-1.22,1.85Zm-3.81-1.9a6.12,6.12,0,0,0,1.67,0,1,1,0,0,0,.8-1,1,1,0,0,0-.72-1.06,1.85,1.85,0,0,0-.51-0.08c-0.33,0-.67,0-1,0l-0.24,0A11,11,0,0,0,15.46,56.7Z"/>
      <path class="cls-1" d="M46.48,52A0.49,0.49,0,0,1,46.62,52h2.52a1.32,1.32,0,0,1,.2,0,0.91,0.91,0,0,1,.05.48c0,1.86,0,3.71,0,5.57a3.45,3.45,0,0,0,.06.69,1.4,1.4,0,0,0,1.07,1.14,1.71,1.71,0,0,0,1.11-.05,1.5,1.5,0,0,0,.94-1.35,4,4,0,0,0,0-.43q0-2.76,0-5.52c0-.16,0-0.32,0-0.49A1.47,1.47,0,0,1,52.86,52h2.39a1.88,1.88,0,0,1,.27,0c0,0.13,0,.24,0,0.35q0,3,0,6a4.58,4.58,0,0,1-.2,1.37A3.87,3.87,0,0,1,53,62.27a5.14,5.14,0,0,1-3.94,0,3.89,3.89,0,0,1-2.5-3,5.24,5.24,0,0,1-.1-1c0-2,0-3.94,0-5.91C46.46,52.26,46.47,52.15,46.48,52Z"/>
      <path class="cls-1" d="M7.83,62.38L7.25,60.72,7,60.69H3.62c-0.26.54-.37,1.11-0.6,1.63l0,0H0a0.59,0.59,0,0,1,.1-0.45l1.79-4.57,1.92-4.89C3.89,52.3,4,52.16,4,52a19.71,19.71,0,0,1,2.83,0L10.92,62.2a0.45,0.45,0,0,1,0,.14l-0.16,0H7.83Zm-3.46-4a10.1,10.1,0,0,0,2,.05,0.88,0.88,0,0,0,.18-0.05l-1.07-3A24.6,24.6,0,0,0,4.37,58.36Z"/>
    </g>
  </g>
</svg>
