<?xml version="1.0" encoding="utf-8"?>
<!-- Generator: Adobe Illustrator 19.0.0, SVG Export Plug-In . SVG Version: 6.00 Build 0)  -->
<svg version="1.1" id="Layer_1" xmlns="http://www.w3.org/2000/svg" xmlns:xlink="http://www.w3.org/1999/xlink" x="0px" y="0px"
	 viewBox="0 0 78 37.9" style="enable-background:new 0 0 78 37.9;" xml:space="preserve">
<style type="text/css">
	.st0{fill:#FFFFFF;}
</style>
<g>
	<g>
		<path class="st0" d="M18.9,4.2L18.9,4.2L18.9,4.2c4.1,0,7.8,1.7,10.4,4.3l0,0c2.7,2.7,4.3,6.4,4.3,10.4h0v0v0h0
			c0,4.1-1.7,7.8-4.3,10.4c-2.7,2.7-6.4,4.3-10.4,4.3v0h0h0v0c-4.1,0-7.8-1.7-10.4-4.3C5.8,26.7,4.1,23,4.1,19h0v0v0h0
			c0-4.1,1.7-7.8,4.3-10.4C11.1,5.9,14.8,4.2,18.9,4.2L18.9,4.2L18.9,4.2L18.9,4.2z M23.9,10.6c0,5.9,0,11.3,0,17.2
			c-1.6,0.3-3.2,0.4-4.8,0.4c-2.1,0-4.3-0.5-5.6-2.1c-0.8-1-1.2-2.2-1.2-3.4h0v0c0-1.5,0.4-2.9,1.5-4l0,0c0.4-0.4,0.8-0.7,1.2-1
			c1.6-1,3.7-1.2,5.5-1v-2.8h-7.2l0-3.2h9.8l0,0H23.9L23.9,10.6z M20.6,25.2v-5.6c-0.4-0.1-0.8-0.1-1.2-0.1h0v0
			c-1.2,0-2.1,0.3-2.7,0.8c-0.6,0.5-0.9,1.2-0.9,2.2h0v0v0h0c0,0.9,0.3,1.6,0.9,2v0C17.6,25.3,19.3,25.3,20.6,25.2L20.6,25.2z
			 M18.9,7L18.9,7L18.9,7L18.9,7L18.9,7c-3.3,0-6.3,1.3-8.5,3.5c-2.2,2.2-3.5,5.2-3.5,8.5h0v0v0h0c0,3.3,1.3,6.3,3.5,8.5
			c2.2,2.2,5.2,3.5,8.5,3.5v0h0h0v0c3.3,0,6.3-1.3,8.5-3.5c2.2-2.2,3.5-5.2,3.5-8.5h0v0v0h0c0-3.3-1.3-6.3-3.5-8.5v0
			C25.2,8.3,22.2,7,18.9,7L18.9,7z"/>
		<g>
			<path class="st0" d="M4.2,30.8l1.9-1.6l0.6,0.7c0.5,0.5,0.2,1,0,1.1c-0.2,0.2-0.7,0.4-1.2-0.2l-0.3-0.3l-0.4,0.3l0.7,0.8L5.3,32
				L4.2,30.8L4.2,30.8z M5.6,30.3l0.2,0.2c0.2,0.2,0.4,0.3,0.6,0.1c0.2-0.2,0.2-0.4,0-0.6l-0.2-0.2L5.6,30.3L5.6,30.3z"/>
			<path class="st0" d="M10.4,32.9L9,35.2l0.5,0.3l0.5-0.9l0.3,0.2c0.6,0.4,1.1,0.1,1.2-0.2c0.1-0.1,0.4-0.8-0.5-1.3L10.4,32.9
				L10.4,32.9z M10.2,34.2l0.4-0.7l0.2,0.1c0.3,0.2,0.3,0.4,0.2,0.6c-0.1,0.2-0.3,0.3-0.6,0.1L10.2,34.2L10.2,34.2z M14.1,34.5
				c-0.6-0.2-1.4-0.1-1.7,0.8c-0.3,0.9,0.1,1.5,0.8,1.8c0.6,0.2,1.4,0.1,1.7-0.8C15.2,35.3,14.8,34.7,14.1,34.5L14.1,34.5z M14,34.9
				c0.2,0.1,0.7,0.3,0.4,1.2c-0.3,0.9-0.8,0.8-1,0.7c-0.2-0.1-0.7-0.3-0.4-1.2C13.3,34.7,13.8,34.8,14,34.9L14,34.9z M18,37.4
				c-0.1,0-0.3,0.1-0.6,0c-0.5-0.1-0.9-0.4-0.8-1c0.1-0.5,0.5-0.9,1.1-0.8c0.2,0,0.4,0.1,0.5,0.2l0.1-0.5c-0.2-0.1-0.4-0.1-0.6-0.2
				c-0.8-0.1-1.6,0.3-1.7,1.2c-0.1,1,0.6,1.4,1.2,1.5c0.2,0,0.5,0,0.7,0L18,37.4L18,37.4z M21.4,37.3c-0.1,0.1-0.3,0.1-0.6,0.2
				c-0.5,0-0.9-0.2-1-0.8c0-0.5,0.3-1,0.9-1c0.2,0,0.4,0,0.5,0.1l0-0.5c-0.2,0-0.4-0.1-0.6,0c-0.8,0.1-1.5,0.6-1.4,1.5
				c0.1,1,0.8,1.3,1.5,1.2c0.2,0,0.5-0.1,0.7-0.2L21.4,37.3L21.4,37.3z M22.2,34.9l0.7,2.6l0.6-0.2l0.5-1.8l0.1-0.4l0,0l0.2,0.6
				l0.4,1.3l0.5-0.2l-0.7-2.6l-0.6,0.2l-0.5,1.8l-0.1,0.4l0,0l-0.2-0.6l-0.4-1.3L22.2,34.9L22.2,34.9z M25.5,33.9l1.2,2.4l0.6-0.3
				l0.1-1.9l0-0.4l0,0l0.3,0.6l0.6,1.2l0.5-0.2l-1.2-2.4L27,33.1L26.9,35l0,0.4l0,0l-0.3-0.6L26,33.6L25.5,33.9L25.5,33.9z"/>
			<path class="st0" d="M4.4,27.5c0.1,0.1,0.3,0.2,0.4,0.4c0.3,0.4,0.3,0.8-0.2,1.2c-0.4,0.3-0.9,0.2-1.2-0.2
				c-0.1-0.2-0.2-0.3-0.2-0.5l-0.4,0.2c0.1,0.2,0.1,0.3,0.2,0.5c0.4,0.6,1.1,0.9,1.8,0.4c0.7-0.5,0.6-1.3,0.3-1.8
				c-0.1-0.2-0.3-0.3-0.5-0.5L4.4,27.5L4.4,27.5z M3.3,25.5c0.1,0.1,0.2,0.2,0.3,0.4c0.2,0.4,0.2,0.9-0.4,1.1
				c-0.5,0.2-0.9,0.1-1.2-0.4C2.1,26.5,2,26.3,2,26.2l-0.4,0.2c0,0.2,0.1,0.4,0.2,0.5c0.4,0.7,1,1,1.8,0.6c0.8-0.4,0.8-1.2,0.5-1.7
				c-0.1-0.2-0.2-0.4-0.4-0.5L3.3,25.5L3.3,25.5z M0.9,24.5c0.2,0.6,0.7,1,1.6,0.8c0.9-0.3,1-1,0.8-1.5c-0.2-0.6-0.7-1-1.6-0.8
				C0.9,23.3,0.7,24,0.9,24.5L0.9,24.5z M1.3,24.4c-0.1-0.2-0.1-0.7,0.7-0.9c0.8-0.3,1,0.2,1.1,0.4c0.1,0.2,0.1,0.7-0.7,0.9
				C1.5,25.1,1.3,24.6,1.3,24.4L1.3,24.4z M0.4,22.5l2.5-0.3l-0.2-1.8l0.5-0.1l-0.1-0.5L2.1,20l0,0.3l-2,0.2L0.2,21l2-0.2l0.1,1
				l-2,0.2L0.4,22.5L0.4,22.5z M0,19.5l2.5,0.1l0-0.6L1,18.1l-0.4-0.2l0,0l0.6,0l1.3,0l0-0.5l-2.5-0.1l0,0.6l1.5,0.9l0.4,0.2v0
				l-0.6,0L0,19L0,19.5L0,19.5z M0.6,14L3,14.8L3.6,13l0.5,0.2l0.1-0.4l-0.9-0.3l-0.1,0.3l-1.9-0.7l-0.2,0.5l1.9,0.7l-0.3,0.9
				l-1.9-0.7L0.6,14L0.6,14z M1.6,11.1l2.2,1.2l0.3-0.5l-0.9-1.5L2.9,10l0,0l0.5,0.3l1.1,0.6l0.2-0.4L2.6,9.2L2.4,9.8l0.9,1.5
				l0.2,0.3l0,0L3,11.3l-1.1-0.6L1.6,11.1L1.6,11.1z M4.1,7.1L3.7,7.8C3.6,7.9,3.1,8.5,3.7,9c0.4,0.3,0.7,0.1,0.8,0L5,10.1l0.4-0.5
				L4.9,8.7l0.2-0.2L5.9,9l0.3-0.4L4.1,7.1L4.1,7.1z M4.8,8.2L4.6,8.4c0,0.1-0.3,0.4-0.6,0.1C3.9,8.5,3.8,8.3,4,8l0.2-0.2L4.8,8.2
				L4.8,8.2z M6,5.1L7.6,7l0.7-0.6c0.5-0.5,0.4-0.9,0.2-1.1C8.3,5,7.9,4.7,7.3,5.2L7,5.5L6.7,5.1l0.8-0.7L7.2,4L6,5.1L6,5.1z
				 M7.2,5.8l0.2-0.2c0.2-0.2,0.4-0.2,0.6,0C8.2,5.8,8.2,6,8,6.1L7.7,6.3L7.2,5.8L7.2,5.8z M8,3.4l1.3,2.1l0.4-0.3L9.2,4.5l0.3-0.2
				C10.1,4,10,3.5,9.8,3.2C9.8,3.1,9.4,2.6,8.6,3L8,3.4L8,3.4z M9,4.1L8.6,3.5l0.2-0.1c0.2-0.2,0.4-0.1,0.6,0.1
				C9.5,3.6,9.5,3.9,9.2,4L9,4.1L9,4.1z M10,2.3l1.1,2.2l1.3-0.7l-0.2-0.4l-0.9,0.4L11,3.3l0.8-0.4l-0.2-0.4l-0.8,0.4l-0.3-0.5
				L11.5,2l-0.2-0.4L10,2.3L10,2.3z M12,1.3l0.8,2.4l0.5-0.2l-0.3-1l1-0.3l0.3,1L14.7,3l-0.8-2.4l-0.5,0.2l0.3,0.9l-1,0.3l-0.3-0.9
				L12,1.3L12,1.3z M14.9,2.5l0.2,0.9l0.5-0.1l-0.1-0.5L17,2.5l0.1,0.5L17.5,3L17.4,2l-0.3,0l-0.4-2l-1.6,0.3l0.1,0.8
				c0.1,0.4,0.1,0.8-0.1,1.3L14.9,2.5L14.9,2.5z M16.3,0.6l0.3,1.6l-0.9,0.2c0.2-0.4,0.1-0.8,0-1.3l-0.1-0.3L16.3,0.6L16.3,0.6z
				 M17.7,0l0,2.5l0.6,0L19.2,1l0.2-0.4l0,0v0.6l0,1.3l0.5,0l0-2.5l-0.6,0l-0.8,1.5l-0.2,0.4h0V1.3l0-1.3L17.7,0L17.7,0z M20.8,0.1
				l-0.4,2.4l0.5,0.1l0.2-1.1l1,0.2l-0.2,1.1l0.5,0.1l0.4-2.4l-0.5-0.1l-0.2,1l-1-0.2l0.2-1L20.8,0.1L20.8,0.1z M23.5,0.6L22.9,3
				l0.5,0.1l0.5-2l1,0.3L25,1L23.5,0.6L23.5,0.6z M26.6,1.7c-0.6-0.2-1.3-0.2-1.6,0.7c-0.4,0.8,0,1.4,0.6,1.6
				c0.6,0.2,1.3,0.2,1.6-0.7C27.6,2.5,27.2,1.9,26.6,1.7L26.6,1.7z M26.5,2c0.2,0.1,0.6,0.3,0.3,1.1c-0.3,0.8-0.8,0.6-1,0.6
				c-0.2-0.1-0.6-0.3-0.3-1.1C25.8,1.8,26.3,1.9,26.5,2L26.5,2z M28.4,2.6l-1.3,2.1l0.7,0.4c0.7,0.4,1,0.2,1.2-0.1
				c0.2-0.3,0.1-0.6-0.1-0.8l0,0c0.2,0,0.4,0,0.6-0.3c0.2-0.4,0-0.7-0.4-1L28.4,2.6L28.4,2.6z M28.6,3.2l0.2,0.1
				C29.1,3.5,29,3.7,29,3.8c-0.1,0.1-0.2,0.2-0.5,0.1l-0.2-0.1L28.6,3.2L28.6,3.2z M28.1,4l0.2,0.1c0.3,0.2,0.3,0.4,0.2,0.5
				c-0.1,0.1-0.3,0.2-0.6,0.1l-0.2-0.1L28.1,4L28.1,4z M31,4.4l-0.4-0.3l-1.7,1.8l0.6,0.6c0.5,0.5,1,0.3,1.2,0
				c0.1-0.1,0.5-0.6-0.2-1.2l-0.3-0.2L31,4.4L31,4.4z M30.1,5.4l0.2,0.2c0.3,0.3,0.2,0.5,0.1,0.6c-0.2,0.2-0.4,0.2-0.6,0l-0.2-0.2
				L30.1,5.4L30.1,5.4z M32.2,5.5l-1.7,1.8l0.4,0.3l1.7-1.8L32.2,5.5L32.2,5.5z M33,6.4l-0.4,1.3l-1.5,0.2l0.3,0.4l0.9-0.1l0.2,0
				l0,0l-0.1,0.2l-0.3,0.9l0.4,0.5L33,8.3l1.4-0.2l-0.3-0.4l-0.8,0.1l-0.2,0l0,0l0.1-0.2l0.3-0.7L33,6.4L33,6.4z M35.7,10.4l-2.2,1
				l0.2,0.5l1.1-0.5l0,0l-0.7,1.4l0.3,0.6l0.8-1.6l1.5,0.5l-0.3-0.5L35,11.3l0,0l1-0.4L35.7,10.4L35.7,10.4z M37.1,14
				c-0.2-0.6-0.7-1.1-1.6-0.8c-0.9,0.2-1.1,0.9-0.9,1.5c0.2,0.6,0.7,1.1,1.6,0.8C37.1,15.3,37.3,14.6,37.1,14L37.1,14z M36.8,14.1
				c0.1,0.2,0.1,0.7-0.7,0.9c-0.8,0.2-1-0.2-1.1-0.4c-0.1-0.2-0.1-0.7,0.7-0.9C36.5,13.5,36.7,13.9,36.8,14.1L36.8,14.1z M35.2,18
				l1.8,0.4l0.4,0.1l0,0l-0.4,0l-1.7,0.2l0,0.5l2.5-0.2l-0.1-0.8l-1.5-0.4l-0.4-0.1l0,0l0.4-0.1l1.4-0.6l-0.1-0.8l-2.5,0.2l0,0.5
				l1.7-0.2l0.4,0v0l-0.3,0.1l-1.7,0.8L35.2,18L35.2,18z M37.7,20l-2.5-0.3l-0.1,0.5l2.1,0.3l-0.1,1l-2.1-0.3L35,21.6l2.5,0.3
				L37.7,20L37.7,20z M36.6,25.3l-2.3-1l-0.2,0.5l1,0.4l-0.4,0.9l-1-0.4l-0.2,0.5l2.3,1l0.2-0.5l-0.9-0.4l0.4-0.9l0.9,0.4L36.6,25.3
				L36.6,25.3z M35.4,27.9l-2.1-1.3L33,27.1l0.8,1.5L34,29l0,0l-0.5-0.3L32.4,28l-0.3,0.4l2.1,1.3l0.3-0.5l-0.8-1.5l-0.2-0.3l0,0
				l0.5,0.3l1.1,0.7L35.4,27.9L35.4,27.9z M33.7,30.4l-1.9-1.6l-0.4,0.5l0.6,1.6l0.2,0.4l0,0l-0.5-0.4l-1-0.8l-0.3,0.4l1.9,1.6
				l0.4-0.5l-0.6-1.6L32,29.6l0,0l0.5,0.4l1,0.8L33.7,30.4L33.7,30.4z M33.4,32c-0.1-0.2,0-0.4,0.1-0.5c0.1-0.1,0.2-0.2,0.4-0.2
				l0.1-0.3c-0.4-0.1-0.6,0.1-0.7,0.2c-0.1,0.2-0.3,0.4-0.1,0.8L33.4,32L33.4,32z"/>
			<path class="st0" d="M0.4,15l2.4,0.5l-0.2,0.9C2.5,17,2.1,17.1,1.8,17C1.5,17,1,16.7,1.2,16l0.1-0.4l-0.5-0.1l-0.2,1.1l-0.4-0.1
				L0.4,15L0.4,15z M1.6,15.7L1.6,16c-0.1,0.3,0,0.5,0.3,0.5c0.2,0,0.4-0.1,0.4-0.4l0.1-0.3L1.6,15.7L1.6,15.7z"/>
			<path class="st0" d="M37,24.3l-2.4-0.7l0.3-0.9c0.2-0.7,0.7-0.7,0.9-0.6c0.3,0.1,0.7,0.4,0.5,1.1l-0.1,0.4l0.5,0.1l0.3-1l0.4,0.1
				L37,24.3L37,24.3z M35.8,23.5l0.1-0.3c0.1-0.3,0-0.5-0.2-0.5c-0.2-0.1-0.4,0.1-0.5,0.3l-0.1,0.3L35.8,23.5L35.8,23.5z"/>
		</g>
	</g>
	<g>
		<g>
			<polygon class="st0" points="57.8,12.9 60,12.9 60,9.5 62.4,12.9 65.1,12.9 61.7,8.6 65,4.6 62.5,4.6 60,8 60,4.6 57.8,4.6 
				57.8,12.9 			"/>
			<path class="st0" d="M66.4,12.9h2.1v-2.8h1.2l0,0v0c1.2,0,1.9-0.4,2.4-0.9c0.8-1,0.8-2.6,0-3.6c-0.5-0.5-1.2-0.9-2.4-0.9l0,0l0,0
				l0,0h-3.3V12.9L66.4,12.9z M69.1,6.2c0.6,0,0.9,0.2,1.1,0.4c0.3,0.4,0.3,1.1,0,1.5c-0.2,0.2-0.5,0.4-1.1,0.4h-0.6
				c0-0.8,0-1.5,0-2.3H69.1L69.1,6.2z"/>
			<path class="st0" d="M50,4.6c1.9,0,3.8,0,5.7,0v1.8h-3.6v1.2h1.4h0l0,0c1.2,0,1.9,0.4,2.4,0.9c0.8,1,0.8,2.5,0,3.5
				c-0.5,0.5-1.2,0.9-2.4,0.9l0,0h0l0,0H50V4.6L50,4.6z M53,11.3c0.6,0,0.9-0.2,1.1-0.4c0.3-0.4,0.3-1,0-1.4
				c-0.2-0.2-0.5-0.4-1.1-0.4h-0.9c0,0.8,0,1.5,0,2.2H53L53,11.3z"/>
			<path class="st0" d="M48.2,4.6c-1.9,0-3.8,0-5.7,0v1.8H46v1.2h-1.4h0l0,0c-1.2,0-1.9,0.4-2.4,0.9c-0.8,1-0.8,2.5,0,3.5
				c0.5,0.5,1.2,0.9,2.4,0.9l0,0h0l0,0h3.5V4.6L48.2,4.6z M45.2,11.3c-0.6,0-0.9-0.2-1.1-0.4c-0.3-0.4-0.3-1,0-1.4
				c0.2-0.2,0.5-0.4,1.1-0.4H46c0,0.8,0,1.5,0,2.2H45.2L45.2,11.3z"/>
		</g>
		<g>
			<g>
				<path class="st0" d="M44.4,15.9V19h-1.1c-0.9,0-1.1-0.6-1.1-0.9c0-0.4,0.2-1,1.1-1h0.5v-0.6h-1.4v-0.5H44.4L44.4,15.9z
					 M43.7,17.6h-0.4c-0.3,0-0.6,0.2-0.6,0.5c0,0.3,0.2,0.5,0.6,0.5h0.4V17.6L43.7,17.6z"/>
				<path class="st0" d="M47.2,18.3c-0.2,0.1-0.4,0.1-0.6,0.1c-0.6,0-1.1-0.3-1.1-1.1c0-0.6,0.4-1.1,1.1-1.1c0.2,0,0.4,0,0.6,0.1
					l0-0.5c-0.2-0.1-0.4-0.1-0.7-0.1c-1,0-1.7,0.5-1.7,1.6c0,1.1,0.8,1.6,1.6,1.6c0.2,0,0.5,0,0.8-0.1L47.2,18.3L47.2,18.3z"/>
				<path class="st0" d="M50,18.3c-0.2,0.1-0.4,0.1-0.6,0.1c-0.6,0-1.1-0.3-1.1-1.1c0-0.6,0.4-1.1,1.1-1.1c0.2,0,0.4,0,0.6,0.1
					l0-0.5c-0.2-0.1-0.4-0.1-0.7-0.1c-1,0-1.7,0.5-1.7,1.6c0,1.1,0.8,1.6,1.6,1.6c0.2,0,0.5,0,0.8-0.1L50,18.3L50,18.3z"/>
				<path class="st0" d="M51.9,15.8c-0.8,0-1.5,0.5-1.5,1.6c0,1.1,0.8,1.6,1.5,1.6c0.8,0,1.5-0.5,1.5-1.6
					C53.4,16.3,52.7,15.8,51.9,15.8L51.9,15.8z M51.9,16.3c0.2,0,0.9,0.1,0.9,1.1c0,1-0.6,1.1-0.9,1.1c-0.2,0-0.9-0.1-0.9-1.1
					C51.1,16.4,51.7,16.3,51.9,16.3L51.9,16.3z"/>
				<polygon class="st0" points="54,15.9 54,19 56.3,19 56.3,19.6 56.8,19.6 56.8,18.4 56.5,18.4 56.5,15.9 55.8,15.9 55.8,18.4 
					54.6,18.4 54.6,15.9 54,15.9 				"/>
				<polygon class="st0" points="57.2,15.9 57.2,19 58,19 59.1,17.1 59.3,16.6 59.3,16.6 59.3,17.4 59.3,19 59.9,19 59.9,15.9 
					59.2,15.9 58.1,17.8 57.9,18.2 57.8,18.2 57.9,17.5 57.9,15.9 57.2,15.9 				"/>
				<path class="st0" d="M62.7,15.9V19h-1.1c-0.9,0-1.1-0.6-1.1-0.9c0-0.4,0.2-1,1.1-1h0.5v-0.6h-1.4v-0.5H62.7L62.7,15.9z
					 M62.1,17.6h-0.4c-0.3,0-0.6,0.2-0.6,0.5c0,0.3,0.2,0.5,0.6,0.5h0.4V17.6L62.1,17.6z"/>
				<polygon class="st0" points="63.3,15.9 63.3,19 65.6,19 65.6,19.6 66.2,19.6 66.2,18.4 65.9,18.4 65.9,15.9 65.2,15.9 
					65.2,18.4 64,18.4 64,15.9 63.3,15.9 				"/>
				<polygon class="st0" points="66.6,15.9 66.6,19 67.4,19 68.5,17.1 68.7,16.6 68.7,16.6 68.7,17.4 68.7,19 69.3,19 69.3,15.9 
					68.5,15.9 67.5,17.8 67.2,18.2 67.2,18.2 67.2,17.5 67.2,15.9 66.6,15.9 				"/>
				<path class="st0" d="M72.1,15.9h-1c-0.2,0-1.2,0-1.2,1c0,0.6,0.4,0.8,0.6,0.9L69.8,19h0.8l0.6-1.2h0.4V19h0.6V15.9L72.1,15.9z
					 M71.5,17.3h-0.4c-0.1,0-0.6,0-0.6-0.5c0-0.2,0.1-0.5,0.6-0.5h0.4V17.3L71.5,17.3z"/>
			</g>
			<g>
				<path class="st0" d="M42.4,20.6v3.1h1.1c0.9,0,1.1-0.6,1.1-0.9c0-0.4-0.2-1-1.1-1H43v-0.6h1.4v-0.5H42.4L42.4,20.6z M43,22.3
					h0.4c0.3,0,0.6,0.1,0.6,0.5c0,0.3-0.2,0.5-0.6,0.5H43V22.3L43,22.3z"/>
				<path class="st0" d="M45.2,20.6v3.1h0.6v-1.2h0.4c0.8,0,1.1-0.6,1.1-1c0-0.2-0.1-1-1.2-1H45.2L45.2,20.6z M45.8,22.1v-1h0.3
					c0.4,0,0.5,0.2,0.5,0.5c0,0.2-0.1,0.5-0.5,0.5H45.8L45.8,22.1z"/>
				<polygon class="st0" points="47.8,20.6 47.8,23.7 49.7,23.7 49.7,23.2 48.4,23.2 48.4,22.4 49.6,22.4 49.6,21.9 48.4,21.9 
					48.4,21.2 49.7,21.2 49.7,20.6 47.8,20.6 				"/>
				<polygon class="st0" points="50.2,20.6 50.2,23.7 50.8,23.7 50.8,22.4 52.1,22.4 52.1,23.7 52.7,23.7 52.7,20.6 52.1,20.6 
					52.1,21.9 50.8,21.9 50.8,20.6 50.2,20.6 				"/>
				<path class="st0" d="M53.1,23.2v1.2h0.6v-0.7h1.9v0.7h0.6v-1.2h-0.4v-2.5h-2v1c0,0.6-0.1,1-0.4,1.6H53.1L53.1,23.2z M55.2,21.2
					v2h-1.1c0.3-0.5,0.3-0.9,0.3-1.6v-0.4H55.2L55.2,21.2z"/>
				<polygon class="st0" points="56.6,20.6 56.6,23.7 57.4,23.7 58.4,21.9 58.7,21.4 58.7,21.4 58.7,22.1 58.7,23.7 59.3,23.7 
					59.3,20.6 58.5,20.6 57.5,22.5 57.2,23 57.2,23 57.2,22.2 57.2,20.6 56.6,20.6 				"/>
				<polygon class="st0" points="59.9,20.6 59.9,23.7 60.5,23.7 60.5,22.4 61.8,22.4 61.8,23.7 62.4,23.7 62.4,20.6 61.8,20.6 
					61.8,21.9 60.5,21.9 60.5,20.6 59.9,20.6 				"/>
				<polygon class="st0" points="63,20.6 63,23.7 63.7,23.7 63.7,21.2 64.9,21.2 64.9,20.6 63,20.6 				"/>
				<path class="st0" d="M66.6,20.6c-0.8,0-1.5,0.5-1.5,1.6c0,1.1,0.8,1.6,1.5,1.6c0.8,0,1.5-0.5,1.5-1.6
					C68.1,21.1,67.4,20.6,66.6,20.6L66.6,20.6z M66.6,21.1c0.2,0,0.9,0.1,0.9,1.1c0,1-0.6,1.1-0.9,1.1c-0.2,0-0.9-0.1-0.9-1.1
					C65.8,21.1,66.4,21.1,66.6,21.1L66.6,21.1z"/>
				<path class="st0" d="M68.6,20.6v3.1h1c1,0,1.2-0.5,1.2-0.9c0-0.4-0.3-0.7-0.7-0.7v0c0.2-0.1,0.5-0.2,0.5-0.7
					c0-0.5-0.4-0.8-1-0.8H68.6L68.6,20.6z M69.3,21.1h0.3c0.5,0,0.5,0.3,0.5,0.4c0,0.1-0.1,0.4-0.5,0.4h-0.3V21.1L69.3,21.1z
					 M69.3,22.4h0.3c0.4,0,0.6,0.2,0.6,0.4c0,0.2-0.2,0.4-0.6,0.4h-0.3V22.4L69.3,22.4z"/>
				<path class="st0" d="M72,20.6h-0.6v3.1h1c0.9,0,1.2-0.5,1.2-1c0-0.2-0.1-0.9-1.1-0.9H72V20.6L72,20.6z M72,22.3h0.4
					c0.5,0,0.6,0.3,0.6,0.5c0,0.3-0.2,0.5-0.5,0.5H72V22.3L72,22.3z M74.1,20.6v3.1h0.6v-3.1H74.1L74.1,20.6z"/>
				<polygon class="st0" points="75.2,20.6 76.1,22.1 75.1,23.7 75.8,23.7 76.4,22.8 76.5,22.5 76.5,22.5 76.7,22.8 77.3,23.7 
					78,23.7 77,22.1 77.9,20.6 77.2,20.6 76.7,21.5 76.6,21.8 76.6,21.8 76.4,21.5 75.9,20.6 75.2,20.6 				"/>
			</g>
			<g>
				<polygon class="st0" points="42.4,25.4 42.4,28.5 43,28.5 43,27 43,27 44.2,28.5 45,28.5 43.7,26.8 44.9,25.4 44.2,25.4 
					43,26.8 43,26.8 43,25.4 42.4,25.4 				"/>
				<path class="st0" d="M46.4,25.4c-0.8,0-1.5,0.5-1.5,1.6c0,1.1,0.8,1.6,1.5,1.6c0.8,0,1.5-0.5,1.5-1.6
					C47.9,25.9,47.2,25.4,46.4,25.4L46.4,25.4z M46.4,25.8c0.2,0,0.9,0.1,0.9,1.1c0,1-0.6,1.1-0.9,1.1c-0.2,0-0.9-0.1-0.9-1.1
					C45.5,25.9,46.2,25.8,46.4,25.8L46.4,25.8z"/>
				<polygon class="st0" points="50.5,28.5 51.3,26.3 51.4,25.9 51.4,25.9 51.4,26.3 51.4,28.5 52.1,28.5 52.1,25.4 51,25.4 
					50.4,27.2 50.2,27.8 50.2,27.8 50.1,27.2 49.5,25.4 48.4,25.4 48.4,28.5 49,28.5 49,26.3 49,25.9 49,25.9 49.2,26.3 49.9,28.5 
					50.5,28.5 				"/>
				<polygon class="st0" points="52.7,25.4 52.7,28.5 53.3,28.5 53.3,25.9 54.5,25.9 54.5,28.5 55.2,28.5 55.2,25.4 52.7,25.4 				
					"/>
				<path class="st0" d="M57.9,25.4v3.1h-1.1c-0.9,0-1.1-0.6-1.1-0.9c0-0.4,0.2-1,1.1-1h0.5V26h-1.4v-0.5H57.9L57.9,25.4z
					 M57.3,27.1h-0.4c-0.3,0-0.6,0.2-0.6,0.5c0,0.3,0.2,0.5,0.6,0.5h0.4V27.1L57.3,27.1z"/>
				<polygon class="st0" points="58.6,25.4 58.6,28.5 59.2,28.5 59.2,27.2 60.5,27.2 60.5,28.5 61.1,28.5 61.1,25.4 60.5,25.4 
					60.5,26.7 59.2,26.7 59.2,25.4 58.6,25.4 				"/>
				<polygon class="st0" points="61.7,25.4 61.7,28.5 62.5,28.5 63.6,26.7 63.8,26.2 63.8,26.2 63.8,26.9 63.8,28.5 64.4,28.5 
					64.4,25.4 63.7,25.4 62.6,27.3 62.4,27.8 62.3,27.8 62.4,27 62.4,25.4 61.7,25.4 				"/>
				<path class="st0" d="M65,25.4v3.1h0.8l1.1-1.9l0.2-0.5h0l0,0.7v1.6h0.6v-3.1H67l-1.1,1.9l-0.2,0.5h0l0-0.8v-1.6H65L65,25.4z
					 M66.8,24.5c-0.1,0.3-0.4,0.3-0.5,0.3c-0.1,0-0.4,0-0.5-0.3l-0.3,0.2c0.2,0.4,0.6,0.5,0.8,0.5c0.3,0,0.6-0.1,0.8-0.5L66.8,24.5
					L66.8,24.5z"/>
			</g>
			<g>
				<path class="st0" d="M42.4,30.2v3.1H43v-1.2h0.4c0.8,0,1.1-0.6,1.1-1c0-0.2-0.1-1-1.2-1H42.4L42.4,30.2z M43,31.7v-1h0.3
					c0.4,0,0.5,0.2,0.5,0.5c0,0.2-0.1,0.5-0.5,0.5H43L43,31.7z"/>
				<path class="st0" d="M46.4,30.2c-0.8,0-1.5,0.5-1.5,1.6c0,1.1,0.8,1.6,1.5,1.6c0.8,0,1.5-0.5,1.5-1.6
					C47.9,30.6,47.2,30.2,46.4,30.2L46.4,30.2z M46.4,30.6c0.2,0,0.9,0.1,0.9,1.1c0,1-0.6,1.1-0.9,1.1c-0.2,0-0.9-0.1-0.9-1.1
					C45.6,30.7,46.2,30.6,46.4,30.6L46.4,30.6z"/>
				<path class="st0" d="M50.7,32.7c-0.2,0.1-0.4,0.1-0.6,0.1c-0.6,0-1.1-0.3-1.1-1.1c0-0.6,0.4-1.1,1.1-1.1c0.2,0,0.4,0,0.6,0.1
					l0-0.5c-0.2-0.1-0.4-0.1-0.7-0.1c-1,0-1.7,0.5-1.7,1.6c0,1.1,0.8,1.6,1.6,1.6c0.2,0,0.5,0,0.8-0.1L50.7,32.7L50.7,32.7z"/>
				<path class="st0" d="M53.4,32.7c-0.2,0.1-0.4,0.1-0.6,0.1c-0.6,0-1.1-0.3-1.1-1.1c0-0.6,0.4-1.1,1.1-1.1c0.2,0,0.4,0,0.6,0.1
					l0-0.5c-0.2-0.1-0.4-0.1-0.7-0.1c-1,0-1.7,0.5-1.7,1.6c0,1.1,0.8,1.6,1.6,1.6c0.2,0,0.5,0,0.8-0.1L53.4,32.7L53.4,32.7z"/>
				<polygon class="st0" points="53.9,30.2 53.9,33.3 54.7,33.3 55.8,31.4 56,31 56,31 56,31.7 56,33.3 56.6,33.3 56.6,30.2 
					55.9,30.2 54.8,32.1 54.5,32.6 54.5,32.6 54.5,31.8 54.5,30.2 53.9,30.2 				"/>
				<polygon class="st0" points="57.2,30.2 57.2,33.3 58,33.3 59.1,31.4 59.3,31 59.3,31 59.3,31.7 59.3,33.3 59.9,33.3 59.9,30.2 
					59.2,30.2 58.1,32.1 57.9,32.6 57.8,32.6 57.9,31.8 57.9,30.2 57.2,30.2 				"/>
			</g>
		</g>
	</g>
</g>
</svg>
