<svg id="Слой_2" data-name="Слой 2" xmlns="http://www.w3.org/2000/svg" width="28.05mm" height="8.94mm" viewBox="0 0 79.5 25.35">
  <defs>
    <style>
      .cls-1 {
        fill: #fff;
      }
    </style>
  </defs>
  <title>CCIFR_CCIFR</title>
  <g id="Слой_3" data-name="Слой 3">
    <polygon class="cls-1" points="65.98 9.11 70.49 4.61 74.99 9.11 65.98 9.11"/>
    <polygon class="cls-1" points="74.99 9.11 70.49 4.61 74.99 0.11 74.99 9.11"/>
    <polygon class="cls-1" points="74.99 0.11 70.49 4.61 65.98 0.11 74.99 0.11"/>
    <polygon class="cls-1" points="74.99 0.11 79.5 4.61 74.99 9.11 74.99 0.11"/>
    <path class="cls-1" d="M32.72,20.79V20.13H32.43a0.46,0.46,0,0,0-.23,0,0.3,0.3,0,0,0-.15.27,0.3,0.3,0,0,0,.32.34h0.35ZM32.09,21L32.14,21h0a0.51,0.51,0,0,1-.34-0.52A0.49,0.49,0,0,1,32.08,20a0.8,0.8,0,0,1,.34,0H33v1.8H32.72V21H32.39L32,21.72H31.68ZM30.79,21l-0.2-.57c0-.09-0.07-0.26-0.07-0.26h0s0,0.16-.07.26l-0.2.57h0.55Zm-0.41-1.07h0.27l0.65,1.8H31l-0.18-.52H30.17L30,21.72H29.73Zm-2.31,0h0.25v0.76h0.27L29,19.92h0.28l-0.53.85h0l0.56,0.94H29.07l-0.48-.82H28.32v0.82H28.07v-1.8Zm-1.22,0a1,1,0,0,1,.66.24l-0.13.19a0.82,0.82,0,0,0-.52-0.2,0.65,0.65,0,0,0-.67.69,0.67,0.67,0,0,0,.67.71,0.8,0.8,0,0,0,.55-0.23l0.13,0.18a1,1,0,0,1-.7.28,0.93,0.93,0,0,1,0-1.86m-2.57-.38v0h0.2v0a0.17,0.17,0,0,0,.18.17,0.17,0.17,0,0,0,.18-0.17v0H25v0a0.38,0.38,0,0,1-.75,0m-0.35.41h0.25v1.17c0,0.1,0,.26,0,0.26h0s0.09-.17.15-0.26l0.8-1.17h0.25v1.8H25.12V20.55c0-.1,0-0.26,0-0.26h0S25,20.45,25,20.55l-0.8,1.17H23.93v-1.8Zm-2.11,0h0.25v1.17c0,0.1,0,.26,0,0.26h0s0.09-.17.15-0.26L23,19.92h0.25v1.8H23V20.55c0-.1,0-0.26,0-0.26h0s-0.09.16-.15,0.26l-0.8,1.17H21.82v-1.8Zm-1.22,0a1,1,0,0,1,.66.24l-0.13.19a0.83,0.83,0,0,0-.52-0.2,0.65,0.65,0,0,0-.67.69,0.67,0.67,0,0,0,.67.71,0.81,0.81,0,0,0,.55-0.23l0.13,0.18a1,1,0,0,1-.7.28,0.93,0.93,0,0,1,0-1.86m-2,0a1,1,0,0,1,.66.24l-0.13.19a0.83,0.83,0,0,0-.52-0.2,0.65,0.65,0,0,0-.67.69,0.67,0.67,0,0,0,.67.71,0.81,0.81,0,0,0,.55-0.23l0.13,0.18a1,1,0,0,1-.7.28,0.93,0.93,0,0,1,0-1.86m-2.31,1.63A0.68,0.68,0,0,0,17,20.8a0.67,0.67,0,1,0-1.33,0,0.68,0.68,0,0,0,.67.71m0-1.63a0.91,0.91,0,0,1,.92.92,0.92,0.92,0,1,1-1.85,0,0.91,0.91,0,0,1,.93-0.92m-2,.95a0.33,0.33,0,0,0,.35-0.35,0.32,0.32,0,0,0-.35-0.34H14v0.7h0.37Zm-0.62-.91h0.66a0.53,0.53,0,0,1,.56.56,0.54,0.54,0,0,1-.56.57H14v0.67H13.72v-1.8Zm-1.36.8h0.74v0.22H12.37V20.72Zm-1.47.8a0.68,0.68,0,0,0,.66-0.71,0.66,0.66,0,1,0-1.33,0,0.68,0.68,0,0,0,.67.71m0-1.63a0.91,0.91,0,0,1,.92.92,0.92,0.92,0,1,1-1.85,0,0.91,0.91,0,0,1,.93-0.92m-2.52,0H8.63v0.76H8.9l0.46-.76H9.64l-0.53.85h0l0.56,0.94H9.38L8.9,20.89H8.63v0.82H8.38v-1.8Zm-2.11,0H6.53v0.79H7.46V19.92H7.71v1.8H7.46V20.93H6.53v0.79H6.27v-1.8ZM5.28,21l-0.2-.57C5,20.33,5,20.16,5,20.16H5s0,0.16-.07.26L4.73,21H5.28Zm-0.4-1.07H5.14l0.64,1.8H5.52L5.34,21.2H4.66l-0.18.52H4.23Zm-1.48.91a0.33,0.33,0,0,0,.35-0.35,0.32,0.32,0,0,0-.35-0.34H3v0.7H3.39Zm-0.62-.91H3.43a0.53,0.53,0,0,1,.56.56,0.54,0.54,0,0,1-.56.57H3v0.67H2.77v-1.8ZM2,20.76a0.52,0.52,0,0,0-.58-0.53V21.3A0.53,0.53,0,0,0,2,20.76m-0.83.55V20.22a0.52,0.52,0,0,0-.58.53,0.53,0.53,0,0,0,.58.55m0-1.29V19.8H1.41V20a0.76,0.76,0,1,1,0,1.51v0.23H1.15V21.52a0.76,0.76,0,1,1,0-1.51"/>
    <path class="cls-1" d="M39.55,24.39V23.74H39.27a0.49,0.49,0,0,0-.24,0,0.33,0.33,0,0,0,.17.61h0.35Zm-0.64.26L39,24.56h0A0.51,0.51,0,0,1,38.63,24a0.49,0.49,0,0,1,.28-0.47,0.79,0.79,0,0,1,.34,0H39.8v1.8H39.55V24.6H39.22l-0.42.72H38.51Zm-1.3-.06L37.42,24c0-.09-0.07-0.26-0.07-0.26h0s0,0.16-.07.26l-0.2.57h0.55Zm-0.41-1.07h0.27l0.65,1.8H37.86l-0.18-.52H37l-0.18.52H36.56Zm-2.57,0h0.25v0.79h0.94V23.52h0.25v1.8H35.83V24.53H34.89v0.79H34.64v-1.8Zm-2.11,0h0.25v0.79h0.94V23.52H34v1.8H33.72V24.53H32.78v0.79H32.53v-1.8Zm-1.62,0h1v0.22h-0.8V24.3h0.65v0.22H31.16V25.1H32v0.22H30.91v-1.8Zm-1.72.42V23.52h1.05v1.8H30V23.74H29.43v0.21c0,0.86-.15,1.36-0.65,1.39V25.11c0.3,0,.41-0.43.41-1.16m-3-.42h0.25V25.1h0.67V23.52h0.25V25.1H28V23.52h0.25v1.8H26.21v-1.8Zm-0.92,0h0.25v1.8H25.29v-1.8ZM24.45,25.1a0.3,0.3,0,0,0,.32-0.34,0.32,0.32,0,0,0-.33-0.35H24.11V25.1h0.34Zm-0.59-1.58h0.25V24.2h0.37a0.56,0.56,0,0,1,0,1.12H23.86v-1.8Zm-2.29,0h0.26l0.42,1c0,0.1.09,0.24,0.09,0.24h0s0-.14.09-0.24l0.42-1h0.26l0.14,1.8H23l-0.09-1.13c0-.11,0-0.27,0-0.27h0s-0.06.17-.1,0.27L22.45,25H22.22l-0.36-.81c0-.1-0.1-0.27-0.1-0.27h0a2.64,2.64,0,0,1,0,.27l-0.09,1.13H21.42ZM20,25.12a0.68,0.68,0,0,0,.66-0.71,0.67,0.67,0,1,0-1.33,0,0.68,0.68,0,0,0,.67.71m0-1.63a0.91,0.91,0,0,1,.92.92,0.92,0.92,0,1,1-1.85,0A0.91,0.91,0,0,1,20,23.49m-2,.95a0.33,0.33,0,0,0,.35-0.35,0.32,0.32,0,0,0-.35-0.35H17.68v0.7H18Zm-0.62-.91h0.66a0.53,0.53,0,0,1,.56.56,0.54,0.54,0,0,1-.56.57H17.68v0.67H17.43v-1.8Zm-2.09,0h1.42v1.8H16.51V23.74H15.59v1.58H15.34v-1.8Zm-1.36.8h0.74v0.22H14V24.32Zm-1.47.8a0.68,0.68,0,0,0,.66-0.71,0.67,0.67,0,1,0-1.33,0,0.68,0.68,0,0,0,.67.71m0-1.63a0.91,0.91,0,0,1,.92.92,0.92,0.92,0,1,1-1.85,0,0.91,0.91,0,0,1,.93-0.92m-2,1.61a0.29,0.29,0,0,0,.31-0.31,0.29,0.29,0,0,0-.31-0.31H10.16V25.1h0.41Zm0-.82A0.26,0.26,0,0,0,10.8,24a0.25,0.25,0,0,0-.27-0.27H10.16v0.54h0.38Zm-0.63-.76h0.63a0.46,0.46,0,0,1,.52.46,0.42,0.42,0,0,1-.22.39h0a0.43,0.43,0,0,1,.3.44,0.52,0.52,0,0,1-.58.51H9.91v-1.8Zm-1.48,1.6a0.68,0.68,0,0,0,.66-0.71,0.67,0.67,0,1,0-1.33,0,0.68,0.68,0,0,0,.67.71m0-1.63a0.91,0.91,0,0,1,.92.92,0.92,0.92,0,1,1-1.85,0,0.91,0.91,0,0,1,.93-0.92m-2.23,0h1v0.22H6.45v1.58H6.2v-1.8Zm-1.11.91a0.33,0.33,0,0,0,.35-0.35,0.32,0.32,0,0,0-.35-0.35H4.72v0.7H5.09Zm-0.62-.91H5.13a0.53,0.53,0,0,1,.56.56,0.54,0.54,0,0,1-.56.57H4.72v0.67H4.47v-1.8ZM3,25.12a0.68,0.68,0,0,0,.66-0.71,0.67,0.67,0,1,0-1.33,0,0.68,0.68,0,0,0,.67.71m0-1.63a0.91,0.91,0,0,1,.92.92,0.92,0.92,0,1,1-1.85,0A0.91,0.91,0,0,1,3,23.49m-2.11.25H0.25V23.52H1.74v0.22H1.12v1.58H0.87V23.74Z"/>
    <polygon class="cls-1" points="41.22 23.51 42.64 23.51 42.64 25.32 42.39 25.32 42.39 23.73 41.48 23.73 41.48 25.32 41.22 25.32 41.22 23.51"/>
    <path class="cls-1" d="M44.18,24.59L44,24c0-.09-0.07-0.26-0.07-0.26h0s0,0.16-.07.26l-0.2.57h0.55Zm-0.41-1.07H44l0.65,1.8H44.43l-0.18-.52H43.57l-0.18.52H43.13Z"/>
    <path class="cls-1" d="M45.47,23.94V23.51h1.05v1.8H46.27V23.73H45.71v0.21c0,0.87-.15,1.37-0.65,1.39V25.11c0.3,0,.41-0.43.41-1.16"/>
    <path class="cls-1" d="M48.06,24.59L47.86,24c0-.09-0.07-0.26-0.07-0.26h0s0,0.16-.07.26l-0.2.57h0.55Zm-0.41-1.07h0.27l0.65,1.8H48.31l-0.18-.52H47.45l-0.18.52H47Z"/>
    <polygon class="cls-1" points="49.31 23.73 48.7 23.73 48.7 23.51 50.19 23.51 50.19 23.73 49.56 23.73 49.56 25.32 49.31 25.32 49.31 23.73"/>
    <path class="cls-1" d="M51.36,24.59L51.17,24c0-.09-0.07-0.26-0.07-0.26h0s0,0.16-.07.26l-0.2.57h0.55ZM51,23.51h0.27l0.65,1.8H51.61l-0.18-.52H50.75l-0.18.52H50.31Z"/>
    <path class="cls-1" d="M0.06,13.16a2.29,2.29,0,0,1,2.4-2.33,2.06,2.06,0,0,1,1.88,1.1l-0.82.41a1.22,1.22,0,0,0-1.06-.66A1.4,1.4,0,0,0,1,13.16a1.4,1.4,0,0,0,1.41,1.48A1.21,1.21,0,0,0,3.51,14l0.82,0.4a2.07,2.07,0,0,1-1.88,1.11,2.29,2.29,0,0,1-2.4-2.33"/>
    <path class="cls-1" d="M4.65,13.16a2.29,2.29,0,0,1,2.4-2.33,2.06,2.06,0,0,1,1.88,1.1l-0.82.41a1.22,1.22,0,0,0-1.06-.66,1.4,1.4,0,0,0-1.41,1.48,1.4,1.4,0,0,0,1.41,1.48A1.21,1.21,0,0,0,8.11,14l0.82,0.4a2.07,2.07,0,0,1-1.88,1.11,2.29,2.29,0,0,1-2.4-2.33"/>
    <rect class="cls-1" x="9.56" y="10.91" width="0.96" height="4.5"/>
    <polygon class="cls-1" points="13.12 15.41 13.12 10.91 16.31 10.91 16.31 11.75 14.08 11.75 14.08 12.71 16.26 12.71 16.26 13.55 14.08 13.55 14.08 15.41 13.12 15.41"/>
    <path class="cls-1" d="M19.68,12.36A0.61,0.61,0,0,0,19,11.75H18V13h1a0.61,0.61,0,0,0,.68-0.61m-0.09,3.05-0.88-1.6H18v1.6H17v-4.5h2.11a1.4,1.4,0,0,1,1.51,1.45,1.29,1.29,0,0,1-1,1.34l1,1.71h-1.1Z"/>
    <path class="cls-1" d="M23.4,11.87l-0.7,1.94h1.4Zm1.24,3.55-0.28-.76H22.44l-0.28.76H21.06l1.74-4.5H24l1.73,4.5H24.64Z"/>
    <polygon class="cls-1" points="29.31 15.41 27.16 12.48 27.16 15.41 26.2 15.41 26.2 10.91 27.19 10.91 29.28 13.74 29.28 10.91 30.24 10.91 30.24 15.41 29.31 15.41"/>
    <path class="cls-1" d="M31,13.16a2.29,2.29,0,0,1,2.4-2.33,2.06,2.06,0,0,1,1.88,1.1l-0.83.41a1.22,1.22,0,0,0-1.06-.66A1.4,1.4,0,0,0,32,13.16a1.4,1.4,0,0,0,1.41,1.48A1.2,1.2,0,0,0,34.42,14l0.83,0.4a2.07,2.07,0,0,1-1.88,1.11A2.29,2.29,0,0,1,31,13.16"/>
    <polygon class="cls-1" points="35.86 15.41 35.86 10.91 39.05 10.91 39.05 11.75 36.82 11.75 36.82 12.71 39 12.71 39 13.55 36.82 13.55 36.82 14.57 39.05 14.57 39.05 15.41 35.86 15.41"/>
    <path class="cls-1" d="M44.14,12.36a0.61,0.61,0,0,0-.68-0.61h-1V13h1a0.61,0.61,0,0,0,.68-0.61M44,15.41l-0.88-1.6h-0.7v1.6h-1v-4.5h2.11a1.4,1.4,0,0,1,1.51,1.45,1.29,1.29,0,0,1-1,1.34l1,1.71H44Z"/>
    <path class="cls-1" d="M45.85,13.62V10.91h1v2.67a1.06,1.06,0,1,0,2.11,0V10.91h1v2.7a1.78,1.78,0,0,1-2,1.88,1.78,1.78,0,0,1-2-1.88"/>
    <path class="cls-1" d="M50.52,14.78L51,14a2,2,0,0,0,1.43.61,0.64,0.64,0,0,0,.78-0.5c0-.8-2.59-0.25-2.59-1.94a1.5,1.5,0,0,1,1.71-1.37,2.5,2.5,0,0,1,1.75.63l-0.53.7a1.94,1.94,0,0,0-1.31-.49,0.52,0.52,0,0,0-.64.45c0,0.72,2.58.24,2.58,1.92,0,0.82-.59,1.44-1.8,1.44a2.57,2.57,0,0,1-1.9-.72"/>
    <path class="cls-1" d="M54.6,14.78L55.12,14a2,2,0,0,0,1.43.61,0.65,0.65,0,0,0,.78-0.5c0-.8-2.59-0.25-2.59-1.94a1.5,1.5,0,0,1,1.71-1.37,2.5,2.5,0,0,1,1.75.63l-0.53.7a1.93,1.93,0,0,0-1.31-.49,0.52,0.52,0,0,0-.64.45c0,0.72,2.58.24,2.58,1.92,0,0.82-.59,1.44-1.8,1.44a2.57,2.57,0,0,1-1.9-.72"/>
    <rect class="cls-1" x="59.03" y="10.91" width="0.96" height="4.5"/>
    <polygon class="cls-1" points="60.95 15.41 60.95 10.91 64.13 10.91 64.13 11.75 61.91 11.75 61.91 12.71 64.08 12.71 64.08 13.55 61.91 13.55 61.91 14.57 64.13 14.57 64.13 15.41 60.95 15.41"/>
  </g>
</svg>
