<svg id="Слой_2" data-name="Слой 2" xmlns="http://www.w3.org/2000/svg" width="28.11mm" height="21.96mm" viewBox="0 0 79.68 62.25">
  <defs>
    <style>
      .cls-1 {
        fill: #fff;
      }

      .cls-2 {
        fill: #bfbebe;
      }
    </style>
  </defs>
  <title>шаблон</title>
  <g id="effie">
    <g>
      <path class="cls-1" d="M28.43,54.49h2.49a3.87,3.87,0,0,1,2.36.55,2.76,2.76,0,0,1,.55,3.46,2.18,2.18,0,0,1-1,.81l1.58,2.8h-2l-2-3.68h0.32a2.33,2.33,0,0,0,1.17-.21,1.14,1.14,0,0,0,.43-0.94,1,1,0,0,0-.45-0.89,1.6,1.6,0,0,0-.79-0.21H30.37V62.1H28.43V54.49Z"/>
      <path class="cls-1" d="M36.61,54.49v4.6a2.47,2.47,0,0,0,.13.92,0.86,0.86,0,0,0,.85.54A0.82,0.82,0,0,0,38.44,60a2.53,2.53,0,0,0,.12-1v-4.6h1.95v4.6a2.91,2.91,0,0,1-.76,2.34,2.85,2.85,0,0,1-2.13.82,3.07,3.07,0,0,1-2.19-.81,2.9,2.9,0,0,1-.76-2.35v-4.6h1.95Z"/>
      <path class="cls-1" d="M43,59.58a0.86,0.86,0,0,0,.79,1,0.73,0.73,0,0,0,.74-0.73c0-.4-0.32-0.53-1.49-1a2.3,2.3,0,0,1,.8-4.53,2.36,2.36,0,0,1,2.56,2.37H44.45a0.7,0.7,0,0,0-.7-0.74,0.63,0.63,0,0,0-.67.6c0,0.35.21,0.44,1.58,1.06s1.78,1.3,1.78,2.18a2.32,2.32,0,0,1-2.66,2.44c-2,0-2.8-1.17-2.75-2.67H43Z"/>
      <path class="cls-1" d="M48.61,59.58a0.86,0.86,0,0,0,.79,1,0.73,0.73,0,0,0,.74-0.73c0-.4-0.32-0.53-1.49-1a2.3,2.3,0,0,1,.8-4.53A2.36,2.36,0,0,1,52,56.71H50.09a0.7,0.7,0,0,0-.7-0.74,0.63,0.63,0,0,0-.67.6c0,0.35.21,0.44,1.58,1.06s1.78,1.3,1.78,2.18a2.32,2.32,0,0,1-2.66,2.44c-2,0-2.8-1.17-2.75-2.67h1.94Z"/>
      <path class="cls-1" d="M52.64,54.49h1.95V62.1H52.64V54.49Z"/>
      <path class="cls-1" d="M56.91,62.1H54.8l3-7.62H59.5l2.92,7.62H60.29L59.93,61H57.26Zm1.66-5.3-0.82,2.66h1.68Z"/>
    </g>
    <g>
      <polygon class="cls-1" points="22.02 0 17.69 14.53 16.29 14.21 19.32 4.07 13.54 3.18 9.6 16.12 8.48 15.84 9.55 12.37 4.3 11.21 0 25.1 22.39 33.02 31.56 1.19 22.02 0"/>
      <polygon class="cls-2" points="19.32 4.07 20.33 5.66 17.69 14.53 16.29 14.21 19.32 4.07"/>
      <polygon class="cls-2" points="22.39 33.02 35.22 26.6 34.08 24.66 37.4 12.87 31.56 1.19 22.39 33.02"/>
      <polygon class="cls-2" points="9.55 12.37 8.48 15.84 9.6 16.12 10.43 13.4 9.55 12.37"/>
    </g>
    <g>
      <path class="cls-1" d="M43.07,43.49a7.82,7.82,0,0,1-7.54,4.88,7.67,7.67,0,0,1-5.86-2.48,8.18,8.18,0,0,1-2.28-5.75,8,8,0,0,1,2.37-5.69A8.11,8.11,0,0,1,35.48,32c4.94,0,8.41,3.55,8.32,9.33,0,0.14,0,.32,0,0.49H32.1c0.4,1.64,1.59,2.51,3.58,2.51A3.38,3.38,0,0,0,38,43.49h5ZM39.2,38.61a3.58,3.58,0,0,0-3.67-2.45c-1.9,0-3.26,1-3.58,2.45H39.2Z"/>
      <path class="cls-1" d="M58.28,32.49H55.69c0-2.36,1.2-3.37,2.86-3.37a3,3,0,0,1,2.24.83l2.28-2.59c-1-1.54-3.93-3.09-7.62-2a4.87,4.87,0,0,0-2.27,1.43,6.46,6.46,0,0,0-4.78-.41,6.08,6.08,0,0,0-4.25,6.12H42.51V36h1.64V48h4.48V36h2.59V48h4.48V36h2.59V48h4.53V32.49H58.28Zm-9.66,0s-0.25-2.8,2.95-2.65a10.18,10.18,0,0,0-.36,2.65H48.62Z"/>
      <path class="cls-1" d="M79,43.49a7.82,7.82,0,0,1-7.54,4.88,7.67,7.67,0,0,1-5.86-2.48,8.17,8.17,0,0,1-2.28-5c0-.25,0-0.5,0-0.76a8,8,0,0,1,2.37-5.69A8.11,8.11,0,0,1,71.36,32c4.94,0,8.32,3.55,8.32,9.33v0.49H68c0.4,1.64,1.59,2.51,3.58,2.51a3.39,3.39,0,0,0,2.37-.87h5Zm-3.87-4.88a3.58,3.58,0,0,0-3.67-2.45c-1.9,0-3.26,1-3.58,2.45h7.25Z"/>
    </g>
  </g>
</svg>
