<svg id="Слой_2" data-name="Слой 2" xmlns="http://www.w3.org/2000/svg" width="28.11mm" height="9.36mm" viewBox="0 0 79.68 26.52">
  <defs>
    <style>
      .cls-1, .cls-3 {
        fill: #fff;
      }

      .cls-1, .cls-2 {
        fill-rule: evenodd;
      }

      .cls-2 {
        fill: #231f20;
      }
    </style>
  </defs>
  <title>_</title>
  <g id="event">
    <g>
      <path class="cls-1" d="M7.38,4.3V6.55H10.8a4.17,4.17,0,0,1,.46,0,0.33,0.33,0,0,1,.35.34,10.61,10.61,0,0,1-.05,1.16,0.41,0.41,0,0,1-.46.36l-0.54,0H7.38v2.4l0.18,0h4.13c0.49,0,.66.15,0.66,0.61,0,0.23,0,.46,0,0.69a0.57,0.57,0,0,1-.69.62c-0.5,0-1,0-1.51,0-0.84,0-1.69,0-2.53,0a4.55,4.55,0,0,1-1-.13A1.8,1.8,0,0,1,5.11,11a5.8,5.8,0,0,1,0-.66V3.13a2.45,2.45,0,0,1,0-.38,0.35,0.35,0,0,1,.41-0.34h6.28a0.47,0.47,0,0,1,.56.47,5.77,5.77,0,0,1,0,1,0.46,0.46,0,0,1-.47.43c-0.27,0-.54,0-0.81,0H7.38Z"/>
      <path class="cls-1" d="M23.44,10.2a0.89,0.89,0,0,0,1,1c0.69,0,1.38,0,2.06,0l1.11,0a0.21,0.21,0,0,1,.25.21c0,0.37,0,.75,0,1.13a0.26,0.26,0,0,1-.17.16c-0.3.07-.62,0.13-0.92,0.17a9.4,9.4,0,0,1-2.43.1A7.24,7.24,0,0,1,23,12.72a2,2,0,0,1-1.62-2A31.14,31.14,0,0,1,21.4,7,1.93,1.93,0,0,1,22.82,5.3a6.53,6.53,0,0,1,3.64-.09A1.7,1.7,0,0,1,28,6.83a5,5,0,0,1,0,1.51,1.81,1.81,0,0,1-1.6,1.54C25.8,10,25.23,10,24.65,10.09l-1.21.11h0Zm0-1.56c0.7-.07,1.39-0.12,2.07-0.21A0.49,0.49,0,0,0,25.9,8a3.21,3.21,0,0,0,0-.76,0.66,0.66,0,0,0-.6-0.59l-0.51-.09a1.11,1.11,0,0,0-1.41,1A9.73,9.73,0,0,0,23.4,8.64Z"/>
      <path class="cls-1" d="M29.59,9.45c0-1,0-1.91,0-2.86A0.8,0.8,0,0,1,30.1,5.8a7.54,7.54,0,0,1,4.76-.63,1.4,1.4,0,0,1,1.27,1.22,15.68,15.68,0,0,1,.13,2c0,1.31,0,2.62,0,3.92a1.5,1.5,0,0,1,0,.31,0.45,0.45,0,0,1-.47.38,13.42,13.42,0,0,1-1.35-.1,0.39,0.39,0,0,1-.33-0.47c0-.77,0-1.53,0-2.29s0-1.6,0-2.4c0-.07,0-0.14,0-0.21a0.53,0.53,0,0,0-.64-0.56A8.91,8.91,0,0,0,32.36,7a0.6,0.6,0,0,0-.61.64c0,0.42,0,.84,0,1.26,0,1.15,0,2.29,0,3.43,0,0.08,0,.16,0,0.24a0.42,0.42,0,0,1-.45.4c-0.46,0-.91-0.06-1.37-0.11a0.37,0.37,0,0,1-.3-0.44c0-.64,0-1.28,0-1.92v-1h0Z"/>
      <path class="cls-1" d="M16.89,10.48l0.87-3.06,0.48-1.68c0-.08.05-0.17,0.08-0.25a0.56,0.56,0,0,1,.54-0.41c0.43,0,.87,0,1.3,0a0.41,0.41,0,0,1,.43.58c-0.18.56-.41,1.13-0.62,1.69l-1.92,5a2.14,2.14,0,0,1-.16.35,0.69,0.69,0,0,1-.68.34c-0.22,0-.43,0-0.65-0.07a1,1,0,0,1-.88-0.65L13.26,6a2.16,2.16,0,0,1-.13-0.48,0.34,0.34,0,0,1,.31-0.42,4,4,0,0,1,1.57,0,0.54,0.54,0,0,1,.4.4c0.13,0.4.25,0.8,0.37,1.19l1,3.65a1.23,1.23,0,0,0,0,.13h0Z"/>
      <path class="cls-1" d="M40.65,7.06V7.57c0,1,0,2,0,3a0.44,0.44,0,0,0,.45.5c0.32,0.05.65,0.08,1,.1a0.3,0.3,0,0,1,.33.28c0,0.34.07,0.67,0.09,1a0.29,0.29,0,0,1-.27.27,4,4,0,0,1-2.67,0,1.58,1.58,0,0,1-1-1.36c-0.06-.57-0.05-1.15-0.06-1.72,0-.79,0-1.58,0-2.38V7.1L37.85,7c-0.39,0-.48-0.13-0.48-0.5s0-.58,0-0.88a0.5,0.5,0,0,1,.45-0.45,3.55,3.55,0,0,1,.48-0.07A0.13,0.13,0,0,0,38.48,5c0-.36,0-0.72,0-1.09a0.44,0.44,0,0,1,.45-0.53c0.34,0,.68-0.08,1-0.09a0.49,0.49,0,0,1,.6.47c0.05,0.39.05,0.77,0.06,1.16s0,0.26.29,0.26H42a0.53,0.53,0,0,1,.52.42,2.39,2.39,0,0,1,0,.54c0,0.17,0,.33-0.06.5a0.46,0.46,0,0,1-.54.46H40.65Z"/>
      <path class="cls-1" d="M46.2,1.9A2,2,0,0,1,48.06,0C48.55,0,50.88,0,54,0h3.9c7.65,0,16.93,0,16.93,0s4.78,0.37,4.84,4.21c0,1.14,0,2.42,0,3.66v1c0,2.55,0,4.69,0,4.69a2.19,2.19,0,0,1-2,1.77H50.77s-4.56-.2-4.56-4.49v-9h0ZM56.91,12H58.7V3.82H56.91V12h0ZM49.63,3.82V12h5.85V10.33H51.43V3.82H49.63Zm19.82,0V12h6.2V10.36H71.23V8.65h3.84V7.06H71.23V5.41h4.36V3.82H69.45ZM60,3.82L63.33,12h1.58l3.29-8.2H66.27L64.14,9.55,62,3.82H60Z"/>
      <path class="cls-1" d="M56.91,12H58.7V3.82H56.91V12h0ZM49.63,3.82h1.79v6.52h4.06V12H49.63V3.82h0Zm19.82,0h6.13V5.41H71.23V7.06h3.84V8.65H71.23v1.71h4.42V12h-6.2V3.82h0ZM60,3.82h2l2.13,5.73,2.13-5.73H68.2L64.91,12H63.33Z"/>
      <path class="cls-2" d="M56.91,12H58.7V3.82H56.91V12h0ZM49.63,3.82h1.79v6.52h4.06V12H49.63V3.82h0Zm19.82,0h6.13V5.41H71.23V7.06h3.84V8.65H71.23v1.71h4.42V12h-6.2V3.82h0ZM60,3.82h2l2.13,5.73,2.13-5.73H68.2L64.91,12H63.33Z"/>
    </g>
    <g>
      <path class="cls-3" d="M23,22h-0.3V21.33h-1.9V22h-0.3V21h0.21a5.88,5.88,0,0,0,.72-2.45h1.23V21H23v1Zm-0.66-1V18.88H21.67A5.2,5.2,0,0,1,21.44,20,5,5,0,0,1,21,21h1.3Z"/>
      <path class="cls-3" d="M24.94,21.33H23.41V18.6h1.53v0.28H23.73v0.88h1.13V20H23.73v1h1.21v0.28Z"/>
      <path class="cls-3" d="M27.49,21.33H27.17V18.88H26.28l-0.06.45q-0.11.9-.2,1.31a1.33,1.33,0,0,1-.23.58,0.47,0.47,0,0,1-.38.16,0.62,0.62,0,0,1-.25,0V21.06a0.48,0.48,0,0,0,.21,0A0.23,0.23,0,0,0,25.55,21a0.72,0.72,0,0,0,.13-0.28A7.5,7.5,0,0,0,25.83,20q0.09-.56.19-1.39h1.47v2.74Z"/>
      <path class="cls-3" d="M30.62,20a1.51,1.51,0,0,1-.33,1,1.17,1.17,0,0,1-.92.38A1.18,1.18,0,0,1,28.43,21a1.52,1.52,0,0,1-.33-1,1.5,1.5,0,0,1,.33-1,1.19,1.19,0,0,1,.94-0.37,1.16,1.16,0,0,1,.92.37A1.5,1.5,0,0,1,30.62,20Zm-2.18,0a1.3,1.3,0,0,0,.24.84,1,1,0,0,0,1.37,0,1.64,1.64,0,0,0,0-1.68,0.83,0.83,0,0,0-.68-0.29,0.84,0.84,0,0,0-.69.29A1.29,1.29,0,0,0,28.44,20Z"/>
      <path class="cls-3" d="M31.23,18.6H32a1.46,1.46,0,0,1,.79.16,0.57,0.57,0,0,1,.24.51,0.6,0.6,0,0,1-.14.4,0.66,0.66,0,0,1-.4.2v0a0.63,0.63,0,0,1,.62.66,0.7,0.7,0,0,1-.25.57,1,1,0,0,1-.69.21h-1V18.6Zm0.32,1.17h0.52a0.85,0.85,0,0,0,.48-0.11,0.41,0.41,0,0,0,.15-0.36A0.36,0.36,0,0,0,32.54,19a1,1,0,0,0-.52-0.1H31.55v0.9Zm0,0.27v1h0.57a0.82,0.82,0,0,0,.5-0.13,0.48,0.48,0,0,0,.17-0.4,0.42,0.42,0,0,0-.17-0.37A0.91,0.91,0,0,0,32.09,20H31.55Z"/>
      <path class="cls-3" d="M36.09,20a1.51,1.51,0,0,1-.33,1,1.17,1.17,0,0,1-.92.38A1.19,1.19,0,0,1,33.9,21a1.52,1.52,0,0,1-.33-1,1.5,1.5,0,0,1,.33-1,1.2,1.2,0,0,1,.94-0.37,1.16,1.16,0,0,1,.92.37A1.51,1.51,0,0,1,36.09,20Zm-2.18,0a1.3,1.3,0,0,0,.24.84,1,1,0,0,0,1.37,0,1.64,1.64,0,0,0,0-1.68,0.83,0.83,0,0,0-.68-0.29,0.84,0.84,0,0,0-.69.29A1.28,1.28,0,0,0,33.91,20Z"/>
      <path class="cls-3" d="M36.7,18.6H37v1.52q0,0.42,0,.76h0l1.53-2.28h0.35v2.74h-0.3V19.83q0-.38,0-0.79h0l-1.54,2.3H36.7V18.6Zm1.13-.22a0.78,0.78,0,0,1-.51-0.13,0.6,0.6,0,0,1-.18-0.44h0.29a0.4,0.4,0,0,0,.1.27,0.44,0.44,0,0,0,.3.08,0.42,0.42,0,0,0,.29-0.08,0.4,0.4,0,0,0,.11-0.27h0.29a0.6,0.6,0,0,1-.19.44A0.79,0.79,0,0,1,37.84,18.38Z"/>
      <path class="cls-3" d="M42.66,21.33H42.34V18.88H40.93v2.45H40.62V18.6h2v2.74Z"/>
      <path class="cls-3" d="M45.79,20a1.51,1.51,0,0,1-.33,1,1.17,1.17,0,0,1-.92.38A1.18,1.18,0,0,1,43.6,21a1.52,1.52,0,0,1-.33-1,1.5,1.5,0,0,1,.33-1,1.19,1.19,0,0,1,.94-0.37,1.17,1.17,0,0,1,.92.37A1.5,1.5,0,0,1,45.79,20ZM43.6,20a1.3,1.3,0,0,0,.24.84,1,1,0,0,0,1.38,0,1.64,1.64,0,0,0,0-1.68,0.83,0.83,0,0,0-.68-0.29,0.85,0.85,0,0,0-.69.29A1.29,1.29,0,0,0,43.6,20Z"/>
      <path class="cls-3" d="M48.13,19.39a0.77,0.77,0,0,1-.28.64,1.28,1.28,0,0,1-.81.22H46.71v1.08H46.4V18.6h0.71A0.82,0.82,0,0,1,48.13,19.39ZM46.71,20H47a1.06,1.06,0,0,0,.61-0.14,0.5,0.5,0,0,0,.19-0.44,0.47,0.47,0,0,0-.18-0.4,0.92,0.92,0,0,0-.55-0.13H46.71V20Z"/>
      <path class="cls-3" d="M49.55,21.33H49.23V18.88H48.36V18.6h2.05v0.28H49.55v2.45Z"/>
      <path class="cls-3" d="M52.54,21.33l-0.34-.87h-1.1l-0.34.87H50.45l1.08-2.75H51.8l1.08,2.75H52.54ZM52.1,20.18l-0.32-.85c0-.11-0.08-0.24-0.13-0.4a3.56,3.56,0,0,1-.12.4l-0.32.85H52.1Z"/>
      <path class="cls-3" d="M55.2,21.33H54.88V18.88H54l-0.06.45q-0.11.9-.2,1.31a1.33,1.33,0,0,1-.23.58,0.47,0.47,0,0,1-.38.16,0.62,0.62,0,0,1-.25,0V21.06a0.48,0.48,0,0,0,.21,0A0.23,0.23,0,0,0,53.26,21a0.73,0.73,0,0,0,.13-0.28A7.4,7.4,0,0,0,53.53,20q0.09-.56.19-1.39H55.2v2.74Z"/>
      <path class="cls-3" d="M59.1,22H58.8V21.33H56.9V22h-0.3V21h0.21a5.15,5.15,0,0,0,.49-1.18,5.25,5.25,0,0,0,.23-1.27h1.23V21H59.1v1Zm-0.66-1V18.88H57.82A5.17,5.17,0,0,1,57.59,20,5,5,0,0,1,57.14,21h1.3Z"/>
      <path class="cls-3" d="M61.51,21.33H61.19V18.88H60.3l-0.06.45q-0.11.9-.2,1.31a1.32,1.32,0,0,1-.23.58,0.47,0.47,0,0,1-.38.16,0.62,0.62,0,0,1-.25,0V21.06a0.48,0.48,0,0,0,.21,0A0.22,0.22,0,0,0,59.57,21a0.71,0.71,0,0,0,.13-0.28A7.63,7.63,0,0,0,59.85,20q0.09-.56.19-1.39h1.47v2.74Z"/>
      <path class="cls-3" d="M63.08,20.19l-0.72,1.14H62l0.77-1.2a0.81,0.81,0,0,1-.44-0.29,0.83,0.83,0,0,1-.14-0.49,0.68,0.68,0,0,1,.25-0.56,1.24,1.24,0,0,1,.77-0.2h0.75v2.74H63.63V20.19H63.08Zm0.56-1.32H63.21a1,1,0,0,0-.52.12,0.42,0.42,0,0,0-.18.38q0,0.55.71,0.54h0.41v-1Z"/>
      <path class="cls-3" d="M7.11,25.81H6.79V23.35H5.39v2.45H5.07V23.07h2v2.74Z"/>
      <path class="cls-3" d="M9.6,23.87a0.77,0.77,0,0,1-.28.64,1.28,1.28,0,0,1-.81.22H8.18v1.08H7.86V23.07H8.57A0.82,0.82,0,0,1,9.6,23.87Zm-1.42.59H8.47a1.06,1.06,0,0,0,.61-0.14,0.5,0.5,0,0,0,.19-0.44,0.47,0.47,0,0,0-.18-0.4,0.93,0.93,0,0,0-.55-0.13H8.18v1.11Z"/>
      <path class="cls-3" d="M12.54,24.43a1.51,1.51,0,0,1-.33,1,1.17,1.17,0,0,1-.92.38,1.18,1.18,0,0,1-.93-0.37,1.52,1.52,0,0,1-.33-1,1.5,1.5,0,0,1,.33-1A1.19,1.19,0,0,1,11.29,23a1.17,1.17,0,0,1,.92.37A1.51,1.51,0,0,1,12.54,24.43Zm-2.18,0a1.3,1.3,0,0,0,.24.84,0.84,0.84,0,0,0,.69.29A0.83,0.83,0,0,0,12,25.28a1.65,1.65,0,0,0,0-1.68,0.83,0.83,0,0,0-.68-0.29,0.84,0.84,0,0,0-.69.29A1.28,1.28,0,0,0,10.36,24.43Z"/>
      <path class="cls-3" d="M14.15,23h0.32v0.34H14.6a1.15,1.15,0,0,1,.55.13,0.87,0.87,0,0,1,.36.36,1.18,1.18,0,0,1,0,1.08,0.89,0.89,0,0,1-.38.36,1.26,1.26,0,0,1-.57.12H14.47v0.42H14.15V25.42H14.06a1.25,1.25,0,0,1-.57-0.12,0.9,0.9,0,0,1-.38-0.37,1.16,1.16,0,0,1,0-1.07,0.89,0.89,0,0,1,.36-0.36A1.13,1.13,0,0,1,14,23.37h0.13V23Zm0,0.61H14a0.72,0.72,0,0,0-.54.2,0.74,0.74,0,0,0-.2.54,0.76,0.76,0,0,0,.21.57,0.8,0.8,0,0,0,.59.2h0V23.64Zm0.32,1.51h0a0.8,0.8,0,0,0,.58-0.2,0.76,0.76,0,0,0,.21-0.57,0.74,0.74,0,0,0-.19-0.54,0.72,0.72,0,0,0-.54-0.2H14.47v1.51Z"/>
      <path class="cls-3" d="M17.74,25.81H16.21V23.07h1.53v0.28H16.53v0.88h1.13v0.28H16.53v1h1.21v0.28Z"/>
      <path class="cls-3" d="M19.52,23.31a0.9,0.9,0,0,0-.71.3,1.21,1.21,0,0,0-.26.82,1.23,1.23,0,0,0,.25.83,0.89,0.89,0,0,0,.72.29,2.48,2.48,0,0,0,.65-0.1v0.28a2,2,0,0,1-.7.11,1.19,1.19,0,0,1-.93-0.37,1.51,1.51,0,0,1-.33-1,1.64,1.64,0,0,1,.16-0.74,1.14,1.14,0,0,1,.46-0.49,1.38,1.38,0,0,1,.7-0.17,1.69,1.69,0,0,1,.75.16l-0.14.27A1.45,1.45,0,0,0,19.52,23.31Z"/>
      <path class="cls-3" d="M21.94,23.31a0.9,0.9,0,0,0-.71.3,1.22,1.22,0,0,0-.26.82,1.24,1.24,0,0,0,.25.83,0.9,0.9,0,0,0,.72.29,2.48,2.48,0,0,0,.65-0.1v0.28a2,2,0,0,1-.7.11,1.19,1.19,0,0,1-.93-0.37,1.51,1.51,0,0,1-.33-1,1.65,1.65,0,0,1,.16-0.74,1.14,1.14,0,0,1,.46-0.49,1.38,1.38,0,0,1,.7-0.17,1.69,1.69,0,0,1,.75.16l-0.13.27A1.45,1.45,0,0,0,21.94,23.31Z"/>
      <path class="cls-3" d="M23.19,23.07h0.3v1.52q0,0.42,0,.76h0L25,23.07h0.35v2.74h-0.3V24.3q0-.38,0-0.79h0l-1.54,2.3H23.19V23.07Z"/>
      <path class="cls-3" d="M28.48,24.43a1.51,1.51,0,0,1-.33,1,1.17,1.17,0,0,1-.92.38,1.18,1.18,0,0,1-.93-0.37,1.52,1.52,0,0,1-.33-1,1.5,1.5,0,0,1,.33-1A1.19,1.19,0,0,1,27.23,23a1.16,1.16,0,0,1,.92.37A1.5,1.5,0,0,1,28.48,24.43Zm-2.18,0a1.3,1.3,0,0,0,.24.84,1,1,0,0,0,1.38,0,1.64,1.64,0,0,0,0-1.68,0.83,0.83,0,0,0-.68-0.29,0.84,0.84,0,0,0-.69.29A1.28,1.28,0,0,0,26.3,24.43Z"/>
      <path class="cls-3" d="M31.17,25.81H30.85V24.52H29.41v1.29H29.09V23.07h0.32v1.16h1.44V23.07h0.32v2.74Z"/>
      <path class="cls-3" d="M33.64,25.81l-0.34-.87H32.2l-0.34.87H31.54l1.08-2.75h0.27L34,25.81H33.64ZM33.2,24.65l-0.32-.85q-0.06-.16-0.13-0.4a3.35,3.35,0,0,1-.12.4l-0.32.85H33.2Z"/>
      <path class="cls-3" d="M36.29,25.81H36V23.35H35.08L35,23.8q-0.11.9-.2,1.31a1.31,1.31,0,0,1-.23.58,0.47,0.47,0,0,1-.38.16,0.63,0.63,0,0,1-.25,0V25.53a0.48,0.48,0,0,0,.21,0,0.23,0.23,0,0,0,.17-0.08,0.74,0.74,0,0,0,.13-0.28q0.06-.2.14-0.76t0.19-1.39h1.47v2.74Z"/>
      <path class="cls-3" d="M39.42,24.43a1.51,1.51,0,0,1-.33,1,1.17,1.17,0,0,1-.92.38,1.18,1.18,0,0,1-.93-0.37,1.52,1.52,0,0,1-.33-1,1.5,1.5,0,0,1,.33-1A1.19,1.19,0,0,1,38.17,23a1.17,1.17,0,0,1,.92.37A1.51,1.51,0,0,1,39.42,24.43Zm-2.18,0a1.3,1.3,0,0,0,.24.84,0.84,0.84,0,0,0,.69.29,0.83,0.83,0,0,0,.69-0.29,1.64,1.64,0,0,0,0-1.68,0.83,0.83,0,0,0-.68-0.29,0.84,0.84,0,0,0-.69.29A1.28,1.28,0,0,0,37.24,24.43Z"/>
      <path class="cls-3" d="M40,23.07H40.8a1.45,1.45,0,0,1,.79.16,0.57,0.57,0,0,1,.24.51,0.6,0.6,0,0,1-.14.4,0.65,0.65,0,0,1-.4.2v0a0.63,0.63,0,0,1,.62.66,0.7,0.7,0,0,1-.25.57,1.06,1.06,0,0,1-.69.21H40V23.07Zm0.32,1.17h0.52a0.85,0.85,0,0,0,.49-0.11,0.41,0.41,0,0,0,.15-0.36,0.36,0.36,0,0,0-.16-0.33,1,1,0,0,0-.52-0.1H40.35v0.9Zm0,0.27v1h0.57a0.8,0.8,0,0,0,.5-0.13,0.47,0.47,0,0,0,.17-0.4,0.42,0.42,0,0,0-.17-0.37,0.91,0.91,0,0,0-.52-0.12H40.35Z"/>
      <path class="cls-3" d="M43.51,23.07h0.3v1.52q0,0.42,0,.76h0l1.53-2.28h0.35v2.74h-0.3V24.3q0-.38,0-0.79h0l-1.54,2.3H43.51V23.07Z"/>
      <path class="cls-3" d="M46.43,23.07H47.2a1.45,1.45,0,0,1,.79.16,0.57,0.57,0,0,1,.24.51,0.6,0.6,0,0,1-.14.4,0.66,0.66,0,0,1-.4.2v0a0.63,0.63,0,0,1,.62.66,0.71,0.71,0,0,1-.25.57,1.06,1.06,0,0,1-.69.21h-1V23.07Zm0.32,1.17h0.52a0.85,0.85,0,0,0,.48-0.11,0.41,0.41,0,0,0,.15-0.36,0.36,0.36,0,0,0-.16-0.33,1,1,0,0,0-.52-0.1H46.75v0.9Zm0,0.27v1h0.57a0.81,0.81,0,0,0,.5-0.13A0.47,0.47,0,0,0,48,25a0.42,0.42,0,0,0-.17-0.37,0.91,0.91,0,0,0-.52-0.12H46.75Z"/>
      <path class="cls-3" d="M50.44,25.81H48.91V23.07h1.53v0.28H49.23v0.88h1.13v0.28H49.23v1h1.21v0.28Z"/>
      <path class="cls-3" d="M53.12,25.81H52.8V24.52H51.36v1.29H51V23.07h0.32v1.16H52.8V23.07h0.32v2.74Z"/>
      <path class="cls-3" d="M54.71,25.81H54.4V23.35H53.53V23.07h2.05v0.28H54.71v2.45Z"/>
      <path class="cls-3" d="M57,23.07h0.3v1.52q0,0.42,0,.76h0l1.53-2.28h0.35v2.74h-0.3V24.3q0-.38,0-0.79h0l-1.54,2.3H57V23.07Z"/>
      <path class="cls-3" d="M62,25.81H61.67V24.52H60.23v1.29H59.91V23.07h0.32v1.16h1.44V23.07H62v2.74Z"/>
      <path class="cls-3" d="M64.9,26.52h-0.3V25.81h-1.9v0.71h-0.3v-1H62.6a5.17,5.17,0,0,0,.49-1.18,5.22,5.22,0,0,0,.23-1.27h1.23v2.45H64.9v1Zm-0.66-1V23.36H63.61a5.19,5.19,0,0,1-.23,1.09,5,5,0,0,1-.45,1.07h1.3Z"/>
      <path class="cls-3" d="M65.53,25.84a1.08,1.08,0,0,1-.36-0.06V25.48a0.84,0.84,0,0,0,.35.08,0.53,0.53,0,0,0,.33-0.09,1,1,0,0,0,.25-0.36l-1.07-2h0.35l0.81,1.56a1.08,1.08,0,0,1,.07.18h0l0.07-.2L67,23.07h0.34l-0.87,2a2.47,2.47,0,0,1-.28.51,0.78,0.78,0,0,1-.28.23A0.91,0.91,0,0,1,65.53,25.84Z"/>
      <path class="cls-3" d="M68.91,23.31a0.9,0.9,0,0,0-.71.3,1.21,1.21,0,0,0-.26.82,1.24,1.24,0,0,0,.25.83,0.9,0.9,0,0,0,.72.29,2.48,2.48,0,0,0,.65-0.1v0.28a2,2,0,0,1-.7.11,1.19,1.19,0,0,1-.93-0.37,1.51,1.51,0,0,1-.33-1,1.65,1.65,0,0,1,.16-0.74,1.14,1.14,0,0,1,.46-0.49,1.38,1.38,0,0,1,.7-0.17,1.69,1.69,0,0,1,.75.16l-0.14.27A1.45,1.45,0,0,0,68.91,23.31Z"/>
      <path class="cls-3" d="M71,25.81H70.68V23.35H69.81V23.07h2.05v0.28H71v2.45Z"/>
      <path class="cls-3" d="M74,23.87a0.77,0.77,0,0,1-.28.64,1.28,1.28,0,0,1-.81.22H72.6v1.08H72.28V23.07H73A0.82,0.82,0,0,1,74,23.87Zm-1.42.59h0.29a1.06,1.06,0,0,0,.61-0.14,0.5,0.5,0,0,0,.19-0.44,0.47,0.47,0,0,0-.18-0.4A0.93,0.93,0,0,0,73,23.34H72.6v1.11Z"/>
      <path class="cls-3" d="M74.59,23.07h0.3v1.52q0,0.42,0,.76h0l1.54-2.28h0.35v2.74h-0.3V24.3q0-.38,0-0.79h0l-1.54,2.3H74.59V23.07Z"/>
      <path class="cls-3" d="M77.51,23.07h0.3v1.52q0,0.42,0,.76h0l1.53-2.28h0.35v2.74h-0.3V24.3q0-.38,0-0.79h0l-1.54,2.3H77.51V23.07Z"/>
    </g>
  </g>
</svg>
