<svg id="Слой_2" data-name="Слой 2" xmlns="http://www.w3.org/2000/svg" width="28.08mm" height="18.44mm" viewBox="0 0 79.6 52.26">
  <defs>
    <style>
      .cls-1 {
        fill: #fff;
      }
    </style>
  </defs>
  <title>_</title>
  <g id="FBR">
    <g id="rivals_копия_" data-name="rivals (копия)">
      <g id="group_копия_" data-name="group (копия)">
        <path class="cls-1" d="M6.92,43.85V42.08H3.74V52H6.92V48.12A2.88,2.88,0,0,1,8.7,45.27a3.3,3.3,0,0,1,1.49-.12,0.5,0.5,0,0,0,.56-0.5V42.08A3.35,3.35,0,0,0,6.92,43.85Z"/>
      </g>
      <g id="group">
        <rect class="cls-1" x="12.09" y="42.08" width="3.18" height="9.88"/>
        <path class="cls-1" d="M13.68,36.66a1.92,1.92,0,1,0,1.91,1.92A1.91,1.91,0,0,0,13.68,36.66Z"/>
      </g>
      <g id="group_копия_2" data-name="group (копия)">
        <polygon class="cls-1" points="22.27 42.08 20.63 47.7 18.98 42.08 16.11 42.08 19.4 51.96 21.86 51.96 25.14 42.08 22.27 42.08"/>
      </g>
      <g id="group_копия_3" data-name="group (копия)">
        <path class="cls-1" d="M29.63,41.92a7,7,0,0,0-3.6.94L27,45.11a5,5,0,0,1,2.19-.61,1.56,1.56,0,0,1,1.68,1.76c-2.76-1.08-5.9.12-5.9,2.72a3.19,3.19,0,0,0,3.4,3.27,3.45,3.45,0,0,0,2.86-1.41l0.16,1.1H34V46.73C34,43.21,31.92,41.92,29.63,41.92ZM29.18,50a1,1,0,0,1-1.12-1.1c0-1.06,1.35-1.35,2.82-.9A2,2,0,0,1,29.18,50Z"/>
      </g>
      <g id="group_копия_4" data-name="group (копия)">
        <rect class="cls-1" x="35.53" y="38.39" width="3.18" height="13.55"/>
      </g>
      <g id="group_копия_5" data-name="group (копия)">
        <path class="cls-1" d="M44.16,45.46c-0.79-.14-1-0.3-1-0.62s0.4-.52,1.08-0.46a3.5,3.5,0,0,1,1.87.72l1.21-2.37a6.64,6.64,0,0,0-3.3-1c-2.66,0-4,1.57-4,3.19,0,1.1.32,2.65,3.48,3.27,0.92,0.18,1.45.32,1.45,0.78s-0.56.66-1.69,0.54a4.75,4.75,0,0,1-2.45-1.12l-1.28,2.39a6.24,6.24,0,0,0,4.18,1.47c3,0,4.41-1.57,4.41-3.43C48.1,46.72,46.41,45.84,44.16,45.46Z"/>
      </g>
    </g>
    <g id="business_копия_" data-name="business (копия)">
      <g id="group_копия_6" data-name="group (копия)">
        <path class="cls-1" d="M3.74,20V33.55H6.92v-1a3.32,3.32,0,0,0,2.72,1.32c2.63,0,4.59-2.35,4.59-5.26s-2-5.26-4.59-5.26a3.32,3.32,0,0,0-2.72,1.32V20H3.74ZM9,26.21a2.24,2.24,0,0,1,2.07,2.39A2.24,2.24,0,0,1,9,31a2.24,2.24,0,0,1-2.07-2.39A2.24,2.24,0,0,1,9,26.21Z"/>
      </g>
      <g id="group_копия_7" data-name="group (копия)">
        <path class="cls-1" d="M35.52,23.66c-3.45,0-2.71-.12-5.23-0.12s-4,1.38-4,3c0,1.1.32,2.65,3.48,3.27,0.92,0.18,1.45.32,1.45,0.78s-0.56.66-1.69,0.54A4.75,4.75,0,0,1,27.06,30l-1.28,2.39A6.24,6.24,0,0,0,30,33.86c3,0,4.41-1.57,4.41-3.43,0-2.11-1.69-3-3.94-3.37-0.79-.14-1-0.15-1-0.47s0.39-.39,1.08-0.39h5V23.66h0Z"/>
      </g>
      <g id="group-2" data-name="group">
        <path class="cls-1" d="M37.11,18.25A1.92,1.92,0,1,0,39,20.16,1.91,1.91,0,0,0,37.11,18.25Zm1.59,15.3V23.66H35.52c0,0.72,0,2.55,0,2.55v7.33H38.7Z"/>
      </g>
      <g id="group_копия_8" data-name="group (копия)">
        <path class="cls-1" d="M46.38,23.35a3.19,3.19,0,0,0-2.7,1.43V23.66H40.5v9.88h3.18v-5.1c0-1.63.94-2.23,1.59-2.23s1.59,0.32,1.59,1.92v5.42H50V27.81C50,24.82,48.39,23.35,46.38,23.35Z"/>
      </g>
      <g id="group_копия_9" data-name="group (копия)">
        <path class="cls-1" d="M61.06,28.25a4.69,4.69,0,0,0-4.9-4.91A5,5,0,0,0,51,28.61a5.16,5.16,0,0,0,5.37,5.26,5.22,5.22,0,0,0,3.82-1.65l-1.91-1.87a2.78,2.78,0,0,1-1.79.66,2.13,2.13,0,0,1-2.23-1.36H60.9A5.21,5.21,0,0,0,61.06,28.25Zm-6.81-.68a1.88,1.88,0,0,1,2-1.35A1.63,1.63,0,0,1,58,27.57H54.26Z"/>
      </g>
      <g id="group_копия_10" data-name="group (копия)">
        <path class="cls-1" d="M66.39,27.07c-0.79-.14-1-0.3-1-0.62s0.4-.52,1.08-0.46a3.5,3.5,0,0,1,1.87.72l1.21-2.37a6.64,6.64,0,0,0-3.3-1c-2.66,0-4,1.57-4,3.19,0,1.1.32,2.65,3.48,3.27,0.92,0.18,1.45.32,1.45,0.78s-0.56.66-1.69,0.54A4.75,4.75,0,0,1,63,30l-1.28,2.39a6.24,6.24,0,0,0,4.18,1.47c3,0,4.41-1.57,4.41-3.43C70.33,28.33,68.64,27.45,66.39,27.07Z"/>
      </g>
      <g id="group_копия_11" data-name="group (копия)">
        <path class="cls-1" d="M75.66,27.07c-0.79-.14-1-0.3-1-0.62s0.4-.52,1.08-0.46a3.5,3.5,0,0,1,1.87.72l1.21-2.37a6.64,6.64,0,0,0-3.3-1c-2.66,0-4,1.57-4,3.19,0,1.1.32,2.65,3.48,3.27,0.92,0.18,1.45.32,1.45,0.78s-0.56.66-1.69,0.54A4.75,4.75,0,0,1,72.28,30L71,32.39a6.24,6.24,0,0,0,4.18,1.47c3,0,4.41-1.57,4.41-3.43C79.6,28.33,77.91,27.45,75.66,27.07Z"/>
      </g>
      <g id="group-3" data-name="group">
        <path class="cls-1" d="M18.26,29.09V23.66H15.08V29.4c0,3,1.65,4.47,3.66,4.47a3.18,3.18,0,0,0,2.7-1.43v1.12h3.18V23.67H21.44v5.1c0,1.63-.94,2.23-1.59,2.23S18.26,30.68,18.26,29.09Z"/>
      </g>
    </g>
    <g id="future_копия_" data-name="future (копия)">
      <g id="group_копия_12" data-name="group (копия)">
        <g id="Слой_9_копия_" data-name="Слой 9 (копия)">
          <g id="group_копия_13" data-name="group (копия)">
            <g id="Слой_7_копия_" data-name="Слой 7 (копия)">
              <g id="group_копия_14" data-name="group (копия)">
                <path class="cls-1" d="M4,14.67H7.21v-7h4V4.78h-4V4.38c0-1.52,1.21-1.83,2.23-1.21l1-2.45A4.24,4.24,0,0,0,7.92,0C5.41,0,4,1.83,4,4.14V4.78H2.75V7.65H4v7H4Z"/>
              </g>
            </g>
          </g>
        </g>
      </g>
      <g id="group-4" data-name="group">
        <path class="cls-1" d="M11,4.81l0.07,5.71c0,3,1.65,4.47,3.66,4.47a3.18,3.18,0,0,0,2.7-1.43v1.12h3.19V4.78H17.43v5.1c0,1.63-.94,2.23-1.59,2.23s-1.59-.32-1.59-1.92V4.78Z"/>
      </g>
      <g id="group_копия_15" data-name="group (копия)">
        <path class="cls-1" d="M58.5,9.3a4.69,4.69,0,0,0-4.9-4.91,5,5,0,0,0-5.13,5.26,5.16,5.16,0,0,0,5.37,5.26,5.22,5.22,0,0,0,3.82-1.65l-1.91-1.87A2.78,2.78,0,0,1,54,12a2.13,2.13,0,0,1-2.23-1.36h6.61A5.21,5.21,0,0,0,58.5,9.3ZM51.7,8.62a1.88,1.88,0,0,1,2-1.35,1.63,1.63,0,0,1,1.73,1.35H51.7Z"/>
      </g>
      <g id="group_копия_16" data-name="group (копия)">
        <path class="cls-1" d="M43.74,6.52V4.75H40.56v9.88h3.18V10.78a2.88,2.88,0,0,1,1.77-2.85A3.3,3.3,0,0,1,47,7.81a0.5,0.5,0,0,0,.56-0.5V4.75A3.35,3.35,0,0,0,43.74,6.52Z"/>
      </g>
      <g id="group-5" data-name="group">
        <path class="cls-1" d="M32.9,10.14V4.72H29.72v5.74c0,3,1.65,4.47,3.66,4.47a3.18,3.18,0,0,0,2.7-1.43v1.12h3.18V4.72H36.09v5.1c0,1.63-.94,2.23-1.59,2.23S32.9,11.73,32.9,10.14Z"/>
      </g>
      <g id="group-6" data-name="group">
        <path class="cls-1" d="M26.31,7.68v3c0,1.52.58,1.84,1.6,1.22l1,2.46a3.63,3.63,0,0,1-2.31.72c-2.51,0-3.44-1.84-3.44-4.15V7.68h-1.6V4.8h1.6V1.6l3.2-1V4.8h2.56V7.68H26.31Z"/>
      </g>
    </g>
  </g>
</svg>
