<svg id="Слой_2" data-name="Слой 2" xmlns="http://www.w3.org/2000/svg" xmlns:xlink="http://www.w3.org/1999/xlink" width="28.11mm" height="12.42mm" viewBox="0 0 79.68 35.2">
  <defs>
    <style>
      .cls-1 {
        fill: none;
      }

      .cls-2 {
        fill: #fff;
      }

      .cls-3 {
        clip-path: url(#clip-path);
      }
    </style>
    <clipPath id="clip-path">
      <rect class="cls-1" x="34.35" width="44.24" height="35.2"/>
    </clipPath>
  </defs>
  <title>_</title>
  <g>
    <path class="cls-2" d="M75.48,29.56a2.82,2.82,0,1,0,2.82,2.82,2.82,2.82,0,0,0-2.82-2.82"/>
    <path class="cls-2" d="M37.17,13.53A2.82,2.82,0,1,0,40,16.34a2.82,2.82,0,0,0-2.82-2.82"/>
    <polygon class="cls-2" points="35.01 35.09 39.33 35.09 39.33 21.11 35.01 21.11 35.01 35.09 35.01 35.09"/>
    <path class="cls-2" d="M69.14,23.15a6.38,6.38,0,0,0-4.65-2,6.29,6.29,0,0,0-3.67,1.19V13.14H56.5v22h4.32V33.88a6.28,6.28,0,0,0,3.67,1.19h0a6.38,6.38,0,0,0,4.65-2,7.3,7.3,0,0,0,0-9.88m-5.51,7.74a2.82,2.82,0,1,1,2.82-2.82,2.82,2.82,0,0,1-2.82,2.82"/>
    <path class="cls-2" d="M50.77,21.11v1.2a6.28,6.28,0,0,0-3.68-1.21,6.36,6.36,0,0,0-4.64,2,7.31,7.31,0,0,0,0,9.88,6.36,6.36,0,0,0,4.64,2h0a6.27,6.27,0,0,0,3.68-1.21v1.23h4.32v-14H50.77Zm-2.83,9.78a2.82,2.82,0,1,1,2.82-2.82,2.82,2.82,0,0,1-2.82,2.82"/>
    <g class="cls-3">
      <path class="cls-2" d="M74.42,27.3c-0.69,0-1.29,0-1.83,0V26.42l1.17,0v0a1.78,1.78,0,0,1-1.29-1.64,2.07,2.07,0,0,1,0-.29h1a1.68,1.68,0,0,0,0,.36,1.49,1.49,0,0,0,1.36,1.43,3.25,3.25,0,0,0,.5,0h3.13V27.3h-4Z"/>
      <path class="cls-2" d="M76.85,18.42c0.62,0,1.15,0,1.61,0v0.95l-1,.06v0a2.19,2.19,0,0,1,1.09,1.94c0,0.92-.52,2-2.57,2H72.59V22.3h3.24c1.12,0,1.88-.35,1.88-1.31a1.53,1.53,0,0,0-1-1.41,1.47,1.47,0,0,0-.55-0.1H72.59V18.42h4.26Z"/>
      <path class="cls-2" d="M77.38,16.8a3,3,0,0,0,.41-1.42,0.94,0.94,0,0,0-.87-1.13c-0.51,0-.78.3-1.07,1.08-0.39,1.07-1,1.56-1.66,1.56a1.82,1.82,0,0,1-1.72-2,2.72,2.72,0,0,1,.36-1.43l0.78,0.25a2.29,2.29,0,0,0-.35,1.2,0.85,0.85,0,0,0,.8,1c0.48,0,.7-0.34,1-1.1a1.87,1.87,0,0,1,1.76-1.54c1,0,1.77.81,1.77,2.18a3.35,3.35,0,0,1-.41,1.65l-0.8-.25h0Z"/>
      <path class="cls-2" d="M77.38,12a3,3,0,0,0,.41-1.42,0.94,0.94,0,0,0-.87-1.13c-0.51,0-.78.3-1.07,1.08-0.39,1.07-1,1.56-1.66,1.56a1.82,1.82,0,0,1-1.72-2,2.72,2.72,0,0,1,.36-1.43l0.78,0.26a2.28,2.28,0,0,0-.35,1.2,0.85,0.85,0,0,0,.8,1c0.48,0,.7-0.34,1-1.1a1.87,1.87,0,0,1,1.76-1.54c1,0,1.77.81,1.77,2.18a3.35,3.35,0,0,1-.41,1.65L77.38,12h0Z"/>
      <path class="cls-2" d="M78.46,7H72.59V6h5.87V7h0ZM70.94,5.86a0.64,0.64,0,0,1,.65.68,0.63,0.63,0,0,1-.65.64,0.65,0.65,0,0,1-.67-0.67,0.64,0.64,0,0,1,.67-0.65h0Z"/>
      <path class="cls-2" d="M75.47,1.12c0,1.17.18,2.49,1.32,2.49a0.94,0.94,0,0,0,1-1,1.48,1.48,0,0,0-1-1.44,1.21,1.21,0,0,0-.34,0h-1Zm1.59-1A9.89,9.89,0,0,0,78.46,0V1L77.72,1v0a2.19,2.19,0,0,1,.87,1.79,1.67,1.67,0,0,1-1.69,1.8c-1.42,0-2.2-1.26-2.18-3.53H74.61a1.2,1.2,0,0,0-1.35,1.33A2.83,2.83,0,0,0,73.7,4L73,4.26a3.81,3.81,0,0,1-.51-1.94A2.08,2.08,0,0,1,74.86.08h2.2Z"/>
    </g>
  </g>
</svg>
