<?xml version="1.0" encoding="utf-8"?>
<!-- Generator: Adobe Illustrator 19.0.0, SVG Export Plug-In . SVG Version: 6.00 Build 0)  -->
<svg version="1.1" id="Layer_1" xmlns="http://www.w3.org/2000/svg" xmlns:xlink="http://www.w3.org/1999/xlink" x="0px" y="0px"
	 viewBox="0 0 78 17.1" style="enable-background:new 0 0 78 17.1;" xml:space="preserve">
<style type="text/css">
	.st0{fill:#FFFFFF;}
</style>
<g>
	<path class="st0" d="M55.2,8h0.3V5.2h-0.3V8z"/>
	<path class="st0" d="M58.5,5.3h-0.3v2.4l-1.5-2.4h-0.4V8h0.3V5.7L58,8h0.5V5.3z"/>
	<path class="st0" d="M58.9,5.3v0.3h0.7V8h0.3V5.6h0.7V5.3H58.9z"/>
	<path class="st0" d="M62.5,5.2H61V8h1.5V7.7h-1.2l0-0.9h1.2V6.5h-1.2V5.5h1.2V5.2z"/>
	<path class="st0" d="M64.2,6.9c0.5,0,0.9-0.3,0.8-0.8c0-0.6-0.4-0.8-1-0.8h-0.9V8h0.3V6.9h0.3L64.7,8h0.4L64.2,6.9z M63.5,6.6V5.6
		h0.6c0.4,0,0.6,0.1,0.6,0.5c0,0.4-0.2,0.5-0.6,0.5H63.5z"/>
	<path class="st0" d="M65.3,8h0.4L66,7.1h1.1L67.4,8h0.3l-1-2.8h-0.4L65.3,8z M66.1,6.8l0.4-1.2L67,6.8H66.1z"/>
	<path class="st0" d="M70.4,5.6c-0.3-0.3-0.6-0.4-1-0.4c-0.9,0-1.4,0.7-1.4,1.4s0.5,1.4,1.4,1.4c0.4,0,0.8-0.2,1.1-0.5l-0.2-0.2
		c-0.2,0.2-0.5,0.4-0.9,0.4c-0.7,0-1.1-0.6-1.1-1.1c0-0.6,0.4-1.1,1.1-1.1c0.3,0,0.6,0.1,0.8,0.3L70.4,5.6z"/>
	<path class="st0" d="M70.7,5.3v0.3h0.7V8h0.3V5.6h0.7V5.3H70.7z"/>
	<path class="st0" d="M72.9,8h0.3V5.2h-0.3V8z"/>
	<path class="st0" d="M75.1,8l1-2.8h-0.3l-0.9,2.4L74,5.2h-0.4l1,2.8H75.1z"/>
	<path class="st0" d="M78,5.2h-1.5V8H78V7.7h-1.2l0-0.9H78V6.5h-1.2V5.5H78V5.2z"/>
	<path class="st0" d="M56.7,12l0.8-1.8v2.2h0.3V9.7h-0.4l-0.9,2l-0.9-2h-0.4v2.8h0.3v-2.2l0.8,1.8H56.7z"/>
	<path class="st0" d="M60,9.7h-1.5v2.8H60v-0.3h-1.2l0-0.9H60v-0.3h-1.2V10H60V9.7z"/>
	<path class="st0" d="M61.6,9.7h-0.9v2.8h0.9c0.9,0,1.4-0.7,1.4-1.4C63,10.3,62.5,9.6,61.6,9.7z M61.6,12.1h-0.5V9.9h0.5
		c0.7,0,1.1,0.5,1.1,1.1C62.7,11.6,62.3,12.1,61.6,12.1z"/>
	<path class="st0" d="M63.6,12.4H64V9.7h-0.3V12.4z"/>
	<path class="st0" d="M64.4,12.4h0.4l0.3-0.9h1.1l0.3,0.9h0.3l-1-2.8h-0.4L64.4,12.4z M65.2,11.2l0.4-1.2l0.4,1.2H65.2z"/>
	<path class="st0" d="M54.9,16.8h0.4l0.3-0.9h1.1l0.3,0.9h0.3l-1-2.8h-0.4L54.9,16.8z M55.7,15.6l0.4-1.2l0.4,1.2H55.7z"/>
	<path class="st0" d="M59,14c-0.9,0-1.5,0.7-1.5,1.4c0,0.7,0.5,1.4,1.4,1.4c0.9,0,1.4-0.7,1.4-1.4h-1.6v0.3H60
		c-0.1,0.5-0.6,0.8-1.1,0.8c-0.7,0-1.1-0.6-1.1-1.1c0-0.5,0.4-1.1,1.1-1.1c0.3,0,0.7,0.1,0.9,0.4l0.2-0.2C59.9,14.2,59.5,14,59,14z"
		/>
	<path class="st0" d="M62.5,14.1H61v2.8h1.5v-0.3h-1.2l0-0.9h1.2v-0.3h-1.2v-0.9h1.2V14.1z"/>
	<path class="st0" d="M65.4,14.1h-0.3v2.4l-1.5-2.4h-0.4v2.7h0.3v-2.3l1.4,2.3h0.5V14.1z"/>
	<path class="st0" d="M68.4,14.4c-0.3-0.3-0.6-0.4-1-0.4c-0.9,0-1.4,0.7-1.4,1.4c0,0.7,0.5,1.4,1.4,1.4c0.4,0,0.8-0.2,1.1-0.5
		l-0.2-0.2c-0.2,0.2-0.5,0.4-0.9,0.4c-0.7,0-1.1-0.6-1.1-1.1c0-0.6,0.4-1.1,1.1-1.1c0.3,0,0.6,0.1,0.8,0.3L68.4,14.4z"/>
	<path class="st0" d="M71,14.1h-0.4c-0.2,0.4-0.5,0.9-0.7,1.3l-0.7-1.3h-0.4c0.3,0.5,0.6,1.1,1,1.7v1.1H70v-1.1L71,14.1z"/>
	<path class="st0" d="M53,16.8V8.5c0-2.4-1.4-3.4-3.4-3.4c-1.8,0-3.2,1-3.8,2c-0.5-1.4-1.6-2-3.1-2c-1.8,0-3.1,1-3.6,1.6V5.3H35
		v11.5h4.1V9.7c0.3-0.3,0.8-0.9,1.6-0.9c0.9,0,1.2,0.6,1.2,1.3v6.7H46V9.7c0.3-0.3,0.8-0.9,1.7-0.9c0.9,0,1.2,0.6,1.2,1.3v6.7H53z
		 M2.2,0c1.2,0,2.2,1,2.2,2.2s-1,2.2-2.2,2.2S0,3.4,0,2.2S1,0,2.2,0z M0.1,5.3h4.1v11.6H0.1V5.3z M8,12.2c1.3,0,2.4,1.1,2.4,2.4
		S9.3,17.1,8,17.1S5.6,16,5.6,14.6S6.7,12.2,8,12.2z M19,12.4l2.6,2.6c-0.6,1-2.1,2.2-4.6,2.2c-3.4,0-6.1-2.4-6.1-6
		c0-3.6,2.7-6,6.1-6c2.5,0,4,1.2,4.6,2.2L19,9.8c-0.4-0.6-1.1-1-1.9-1c-1.3,0-2.3,1-2.3,2.3s1,2.3,2.3,2.3
		C17.9,13.4,18.6,13,19,12.4z M27.8,5.1c-3.9,0-6.1,2.8-6.1,6s2.3,6,6.1,6c3.9,0,6.1-2.8,6.1-6S31.6,5.1,27.8,5.1z M27.8,13.4
		c-1.3,0-2.3-1-2.3-2.3s1-2.3,2.3-2.3s2.3,1,2.3,2.3S29.1,13.4,27.8,13.4z"/>
</g>
</svg>
