<svg id="Слой_2" data-name="Слой 2" xmlns="http://www.w3.org/2000/svg" width="28.11mm" height="8.35mm" viewBox="0 0 79.68 23.68">
  <defs>
    <style>
      .cls-1 {
        fill: #fff;
      }
    </style>
  </defs>
  <title>_</title>
  <g id="IKRA">
    <g>
      <polygon class="cls-1" points="17.38 4.06 21.17 4.06 22.82 0 18.9 0 17.38 4.06"/>
      <polygon class="cls-1" points="14.84 19.41 20.34 5.85 11.05 5.85 9.81 9.15 15.73 9.15 10.02 23.4 14.84 23.4 21.86 17.14 19.86 14.73 14.84 19.41"/>
      <path class="cls-1" d="M77.55,8.67l-8.26,9,5-11.77H70.8L70,8c-0.38-1.67-2-2.59-3.91-2.59-3.92,0-7.5,4-9,9.09-1.72,5.85-.07,9.16,3.3,9.16a4.84,4.84,0,0,0,2.68-.83A10.38,10.38,0,0,0,65,21.15l-1,2.25h3.58l12-12.53ZM61.85,20.51c-1.93,0-2.55-2.34-1.31-6,1.1-3.17,3-5.78,5-5.78,2.27,0,2.62,2.2,1.17,6.13C65.84,17.42,64.05,20.51,61.85,20.51Z"/>
      <polygon class="cls-1" points="58.62 5.85 54.28 5.85 48.03 12.71 50.7 5.85 47.19 5.85 40.65 23.4 44.16 23.4 45.73 18.94 58.62 5.85"/>
      <polygon class="cls-1" points="43.2 5.85 37.55 5.85 30.59 11.21 34.66 0 31.15 0 22.96 23.4 26.54 23.4 29.12 15.72 33.56 23.4 37.62 23.4 31.77 13.84 43.2 5.85"/>
    </g>
  </g>
</svg>
