<svg id="Слой_2" data-name="Слой 2" xmlns="http://www.w3.org/2000/svg" xmlns:xlink="http://www.w3.org/1999/xlink" width="28.11mm" height="7.19mm" viewBox="0 0 79.68 20.39">
  <defs>
    <style>
      .cls-1 {
        fill: none;
      }

      .cls-2 {
        clip-path: url(#clip-path);
      }

      .cls-3 {
        fill: #fff;
      }
    </style>
    <clipPath id="clip-path">
      <rect class="cls-1" x="19.96" width="59.01" height="20.39"/>
    </clipPath>
  </defs>
  <title>_</title>
  <g>
    <g class="cls-2">
      <polygon class="cls-3" points="19.96 0 19.96 4.69 22.57 4.69 22.57 15.65 19.96 15.65 19.96 20.01 33.88 20.01 33.88 15.65 31.27 15.65 31.27 4.69 33.88 4.69 33.88 0 19.96 0 19.96 0"/>
      <path class="cls-3" d="M34.6,4.7V9.07h2v6.58h-2V20H45.5V15.65H43.42V11.87a2.72,2.72,0,0,1,2.81-2.78,2,2,0,0,1,2.24,2v4.57h-2V20H57.09V15.71l0-.07H55.32V9.88c0-3.68-2.69-5-6-5a7,7,0,0,0-5.73,2.44,2.85,2.85,0,0,1-.39.42v-3H34.6Z"/>
      <path class="cls-3" d="M66.09,4.8c-4.86,0-9.62,2.38-9.63,7.8a7.57,7.57,0,0,0,.6,3h0v0.07c1.46,3.22,5.2,4.68,9,4.68,3.09,0,7.39-.74,8.36-5.5l0-.51H68.64a2.29,2.29,0,0,1-2.49,2.37c-2.53,0-2.72-2.11-2.72-4.13v0h0c0-2,.2-4.13,2.72-4.13,2,0,2.32,1.72,2.4,3.36l5.88-.65c-0.63-6-6.52-6.37-8-6.37H66.09"/>
    </g>
    <path class="cls-3" d="M74,17.6a2.48,2.48,0,1,0,2.48-2.48A2.48,2.48,0,0,0,74,17.6"/>
  </g>
</svg>
