<svg id="Слой_2" data-name="Слой 2" xmlns="http://www.w3.org/2000/svg" width="28.11mm" height="3.75mm" viewBox="0 0 79.68 10.62">
  <defs>
    <style>
      .cls-1 {
        fill: #fff;
      }

      .cls-2 {
        fill: none;
        stroke: #fff;
        stroke-miterlimit: 10;
        stroke-width: 0.5px;
      }
    </style>
  </defs>
  <title>_</title>
  <g id="independent_media">
    <g>
      <path class="cls-1" d="M0.27,8H3.48V7.71c-0.56,0-.77-0.08-0.77-1V1.46c0-.91.21-1,0.77-1V0.19H0.27V0.46c0.56,0,.77.08,0.77,1V6.72c0,0.91-.21,1-0.77,1V8Z"/>
      <path class="cls-1" d="M3.72,8H5.9V7.71c-0.27,0-.34-0.08-0.34-1V4a0.74,0.74,0,0,1,.61-0.69c0.4,0,.42.42,0.42,1.13V6.71c0,0.93-.07,1-0.34,1V8H8.42V7.71C8.07,7.69,8,7.63,8,6.71V4.05A1.23,1.23,0,0,0,6.81,2.58a1.45,1.45,0,0,0-1.26.87h0V2.72H3.72V3c0.36,0,.43.08,0.43,1V6.71c0,0.93-.07,1-0.43,1V8Z"/>
      <path class="cls-1" d="M11.5,6.25c0,0.78-.29,1.23-0.58,1.23-0.66,0-.66-1.36-0.66-2.19,0-.62,0-2.06.67-2.06,0.32,0,.57.24,0.57,0.93V6.25Zm1.41-6.05H10.83V0.46c0.48,0,.67.08,0.67,0.71v2h0a1,1,0,0,0-.91-0.59c-1.23,0-1.81,1.37-1.81,2.78S9.2,8.13,10.39,8.13a1.41,1.41,0,0,0,1.19-.87h0V8.19a7.77,7.77,0,0,1,1.74-.29V7.65c-0.35,0-.43-0.19-0.43-0.91V0.19Z"/>
      <path class="cls-1" d="M17.6,5.21a3.61,3.61,0,0,0-.15-1.28,1.78,1.78,0,0,0-1.65-1.36c-1.29,0-2.07,1.19-2.07,2.71s0.65,2.85,2,2.85A1.85,1.85,0,0,0,17.43,7a2,2,0,0,0,.2-0.49l-0.2-.15a1.31,1.31,0,0,1-1.09.82c-0.88,0-1.21-1-1.19-2H17.6Zm-2.47-.4c0-.59,0-1.91.66-1.91s0.52,0.76.52,1.91H15.13Z"/>
      <path class="cls-1" d="M19.85,3.93a0.65,0.65,0,0,1,.6-0.63c0.6,0,.6,1.08.6,2s0,2.18-.63,2.18A0.64,0.64,0,0,1,19.85,7V3.93ZM19.77,2.72H18V3c0.3,0,.44.14,0.44,0.73V9.52c0,0.77-.14.8-0.44,0.82v0.27h2.51V10.35c-0.64,0-.66-0.25-0.66-1V7.5a1.15,1.15,0,0,0,1,.63c1.08,0,1.7-1.62,1.7-2.9S22,2.58,20.91,2.58a1.29,1.29,0,0,0-1.12.86h0V2.72Z"/>
      <path class="cls-1" d="M27,5.21a3.61,3.61,0,0,0-.15-1.28,1.78,1.78,0,0,0-1.65-1.36c-1.29,0-2.07,1.19-2.07,2.71s0.65,2.85,2,2.85A1.85,1.85,0,0,0,26.81,7,2,2,0,0,0,27,6.53l-0.2-.15a1.31,1.31,0,0,1-1.09.82c-0.88,0-1.21-1-1.19-2H27Zm-2.47-.4c0-.59,0-1.91.66-1.91s0.52,0.76.52,1.91H24.51Z"/>
      <path class="cls-1" d="M27.42,8h2.19V7.71c-0.27,0-.34-0.08-0.34-1V4a0.74,0.74,0,0,1,.61-0.69c0.4,0,.42.42,0.42,1.13V6.71c0,0.93-.07,1-0.34,1V8h2.17V7.71c-0.34,0-.42-0.08-0.42-1V4.05a1.23,1.23,0,0,0-1.19-1.48,1.45,1.45,0,0,0-1.26.87h0V2.72H27.42V3c0.36,0,.43.08,0.43,1V6.71c0,0.93-.07,1-0.43,1V8Z"/>
      <path class="cls-1" d="M35.21,6.25c0,0.78-.29,1.23-0.58,1.23C34,7.48,34,6.12,34,5.29c0-.62,0-2.06.67-2.06,0.32,0,.57.24,0.57,0.93V6.25Zm1.41-6.05H34.54V0.46c0.48,0,.67.08,0.67,0.71v2h0a1,1,0,0,0-.91-0.59c-1.23,0-1.81,1.37-1.81,2.78s0.43,2.78,1.63,2.78a1.41,1.41,0,0,0,1.19-.87h0V8.19A7.77,7.77,0,0,1,37,7.89V7.65c-0.35,0-.43-0.19-0.43-0.91V0.19Z"/>
      <path class="cls-1" d="M41.3,5.21a3.61,3.61,0,0,0-.15-1.28A1.78,1.78,0,0,0,39.5,2.58c-1.29,0-2.07,1.19-2.07,2.71s0.65,2.85,2,2.85A1.85,1.85,0,0,0,41.13,7a2,2,0,0,0,.2-0.49l-0.2-.15A1.31,1.31,0,0,1,40,7.21c-0.88,0-1.21-1-1.19-2H41.3Zm-2.47-.4c0-.59,0-1.91.66-1.91S40,3.66,40,4.81H38.84Z"/>
      <path class="cls-1" d="M41.74,8h2.19V7.71c-0.27,0-.34-0.08-0.34-1V4a0.74,0.74,0,0,1,.61-0.69c0.4,0,.42.42,0.42,1.13V6.71c0,0.93-.07,1-0.34,1V8h2.17V7.71c-0.34,0-.42-0.08-0.42-1V4.05a1.23,1.23,0,0,0-1.19-1.48,1.45,1.45,0,0,0-1.26.87h0V2.72H41.74V3c0.36,0,.43.08,0.43,1V6.71c0,0.93-.07,1-0.43,1V8Z"/>
      <path class="cls-1" d="M48.55,3.35H49.3V2.83H48.55V0.77H48.32A9.11,9.11,0,0,1,46.65,3V3.35h0.49V7a0.93,0.93,0,0,0,.91,1.13,1.3,1.3,0,0,0,1.31-1.07l-0.19-.14a0.74,0.74,0,0,1-.42.49c-0.18,0-.22-0.11-0.2-0.47V3.35Z"/>
    </g>
    <g>
      <path class="cls-1" d="M52.78,8H55V7.71C54.1,7.71,54,7.32,54,6.45V1.16h0L56.36,8h0.33l2.46-6.82h0V6.72c0,0.91-.23,1-0.84,1V8h3.44V7.71c-0.62,0-.84-0.08-0.84-1V1.46c0-.91.23-1,0.84-1V0.19H59l-1.79,5-1.69-5H52.78V0.46c0.5,0,.76.09,0.77,0.87V6.08c0,1.51-.28,1.64-0.77,1.64V8Z"/>
      <path class="cls-1" d="M66.43,5.21a3.29,3.29,0,0,0-.17-1.28,1.93,1.93,0,0,0-1.82-1.36c-1.42,0-2.28,1.19-2.28,2.71s0.72,2.85,2.23,2.85A2.05,2.05,0,0,0,66.24,7a1.89,1.89,0,0,0,.22-0.49l-0.22-.15a1.42,1.42,0,0,1-1.2.82c-1,0-1.33-1-1.31-2h2.7Zm-2.71-.4c0-.59,0-1.91.73-1.91S65,3.66,65,4.81h-1.3Z"/>
      <path class="cls-1" d="M70,6.25C70,7,69.72,7.48,69.4,7.48c-0.73,0-.73-1.36-0.73-2.19,0-.62,0-2.06.74-2.06,0.35,0,.63.24,0.63,0.93V6.25Zm1.55-6.05H69.3V0.46c0.53,0,.74.08,0.74,0.71v2h0a1.12,1.12,0,0,0-1-.59c-1.35,0-2,1.37-2,2.78s0.48,2.78,1.79,2.78a1.56,1.56,0,0,0,1.31-.87h0V8.19a9.33,9.33,0,0,1,1.92-.29V7.65c-0.39,0-.48-0.19-0.48-0.91V0.19Z"/>
      <path class="cls-1" d="M72.33,8h2.42V7.71c-0.38,0-.39-0.28-0.39-0.71V2.72h-2V3c0.36,0,.49.14,0.49,0.54V7c0,0.43,0,.71-0.49.71V8Zm0.44-7.1a0.79,0.79,0,0,0,.82.88A0.8,0.8,0,0,0,74.42.88,0.78,0.78,0,0,0,73.58,0,0.81,0.81,0,0,0,72.77.88Z"/>
      <path class="cls-1" d="M77.7,6.62a0.54,0.54,0,0,1-.56.64c-0.36,0-.44-0.5-0.44-0.81a1.24,1.24,0,0,1,1-1.22V6.62Zm1.55-2.34c0-1.42-.85-1.71-2-1.71-0.82,0-2,.37-2,1.51A0.72,0.72,0,0,0,76,4.9a0.73,0.73,0,0,0,.75-0.76,4.19,4.19,0,0,0-.27-0.79,0.55,0.55,0,0,1,.63-0.45c0.43,0,.64.26,0.64,0.94v1c-0.9.3-2.54,0.89-2.54,2.16a1,1,0,0,0,1.12,1.15,2.2,2.2,0,0,0,1.45-.7,0.89,0.89,0,0,0,.89.7,1.67,1.67,0,0,0,1.06-.49V7.39a0.31,0.31,0,0,1-.2.07c-0.24,0-.24-0.26-0.24-0.45V4.28Z"/>
    </g>
    <line class="cls-2" y1="10.36" x2="16.62" y2="10.36"/>
    <line class="cls-2" x1="21.96" y1="10.36" x2="79.25" y2="10.36"/>
  </g>
</svg>
