<svg id="Слой_2" data-name="Слой 2" xmlns="http://www.w3.org/2000/svg" xmlns:xlink="http://www.w3.org/1999/xlink" width="28.11mm" height="7mm" viewBox="0 0 79.68 19.84">
  <defs>
    <style>
      .cls-1 {
        fill: #fff;
      }

      .cls-2 {
        fill: none;
      }

      .cls-3 {
        clip-path: url(#clip-path);
      }

      .cls-4 {
        clip-path: url(#clip-path-2);
      }

      .cls-5 {
        clip-path: url(#clip-path-3);
      }

      .cls-6 {
        clip-path: url(#clip-path-4);
      }

      .cls-7 {
        clip-path: url(#clip-path-5);
      }

      .cls-8 {
        clip-path: url(#clip-path-6);
      }

      .cls-9 {
        clip-path: url(#clip-path-7);
      }
    </style>
    <clipPath id="clip-path">
      <polygon class="cls-1" points="9.83 6.72 6.21 4.01 6.21 6.67 9.83 9.26 9.83 6.72"/>
    </clipPath>
    <clipPath id="clip-path-2">
      <rect class="cls-1" x="6.21" y="4.01" width="3.62" height="5.24"/>
    </clipPath>
    <clipPath id="clip-path-3">
      <polygon class="cls-1" points="0.58 17.54 4.26 19.84 4.26 2.63 0.58 0 0.58 17.54"/>
    </clipPath>
    <clipPath id="clip-path-4">
      <rect class="cls-1" x="0.58" width="3.68" height="19.84"/>
    </clipPath>
    <clipPath id="clip-path-5">
      <polygon class="cls-1" points="6.22 19.84 6.22 8.95 9.83 11.63 9.83 17.54 6.22 19.84"/>
    </clipPath>
    <clipPath id="clip-path-6">
      <rect class="cls-1" x="6.22" y="8.95" width="3.62" height="10.88"/>
    </clipPath>
    <clipPath id="clip-path-7">
      <rect class="cls-2" x="-12.79" y="-23.58" width="103.65" height="73.29"/>
    </clipPath>
  </defs>
  <title>_</title>
  <g id="lentainform">
    <polygon class="cls-1" points="0.58 17.54 4.26 19.84 6.22 19.84 9.83 17.54 0.58 17.54"/>
    <g>
      <polygon class="cls-1" points="9.83 6.72 6.21 4.01 6.21 6.67 9.83 9.26 9.83 6.72"/>
      <g class="cls-3">
        <g>
          <rect class="cls-1" x="6.21" y="4.01" width="3.62" height="5.24"/>
          <g class="cls-4">
            <rect class="cls-1" x="6.21" y="4.01" width="3.62" height="5.24"/>
          </g>
        </g>
      </g>
    </g>
    <g>
      <polygon class="cls-1" points="0.58 17.54 4.26 19.84 4.26 2.63 0.58 0 0.58 17.54"/>
      <g class="cls-5">
        <g>
          <rect class="cls-1" x="0.58" width="3.68" height="19.84"/>
          <g class="cls-6">
            <rect class="cls-1" x="0.58" width="3.68" height="0.42"/>
            <rect class="cls-1" x="0.58" y="0.42" width="3.68" height="0.42"/>
            <rect class="cls-1" x="0.58" y="0.84" width="3.68" height="0.42"/>
            <rect class="cls-1" x="0.58" y="1.27" width="3.68" height="0.42"/>
            <rect class="cls-1" x="0.58" y="1.69" width="3.68" height="0.42"/>
            <rect class="cls-1" x="0.58" y="2.11" width="3.68" height="0.42"/>
            <rect class="cls-1" x="0.58" y="2.53" width="3.68" height="0.42"/>
            <rect class="cls-1" x="0.58" y="2.95" width="3.68" height="0.42"/>
            <rect class="cls-1" x="0.58" y="3.38" width="3.68" height="0.42"/>
            <rect class="cls-1" x="0.58" y="3.8" width="3.68" height="0.42"/>
            <rect class="cls-1" x="0.58" y="4.22" width="3.68" height="0.42"/>
            <rect class="cls-1" x="0.58" y="4.64" width="3.68" height="0.42"/>
            <rect class="cls-1" x="0.58" y="5.07" width="3.68" height="0.42"/>
            <rect class="cls-1" x="0.58" y="5.49" width="3.68" height="0.42"/>
            <rect class="cls-1" x="0.58" y="5.91" width="3.68" height="0.42"/>
            <rect class="cls-1" x="0.58" y="6.33" width="3.68" height="0.42"/>
            <rect class="cls-1" x="0.58" y="6.75" width="3.68" height="0.42"/>
            <rect class="cls-1" x="0.58" y="7.18" width="3.68" height="0.42"/>
            <rect class="cls-1" x="0.58" y="7.6" width="3.68" height="0.42"/>
            <rect class="cls-1" x="0.58" y="8.02" width="3.68" height="0.42"/>
            <rect class="cls-1" x="0.58" y="8.44" width="3.68" height="0.42"/>
            <rect class="cls-1" x="0.58" y="8.86" width="3.68" height="0.42"/>
            <rect class="cls-1" x="0.58" y="9.29" width="3.68" height="0.42"/>
            <rect class="cls-1" x="0.58" y="9.71" width="3.68" height="0.42"/>
            <rect class="cls-1" x="0.58" y="10.13" width="3.68" height="0.42"/>
            <rect class="cls-1" x="0.58" y="10.55" width="3.68" height="0.42"/>
            <rect class="cls-1" x="0.58" y="10.97" width="3.68" height="0.42"/>
            <rect class="cls-1" x="0.58" y="11.4" width="3.68" height="0.42"/>
            <rect class="cls-1" x="0.58" y="11.82" width="3.68" height="0.42"/>
            <rect class="cls-1" x="0.58" y="12.24" width="3.68" height="0.42"/>
            <rect class="cls-1" x="0.58" y="12.66" width="3.68" height="0.42"/>
            <rect class="cls-1" x="0.58" y="13.09" width="3.68" height="0.42"/>
            <rect class="cls-1" x="0.58" y="13.51" width="3.68" height="0.42"/>
            <rect class="cls-1" x="0.58" y="13.93" width="3.68" height="0.42"/>
            <rect class="cls-1" x="0.58" y="14.35" width="3.68" height="0.42"/>
            <rect class="cls-1" x="0.58" y="14.77" width="3.68" height="0.42"/>
            <rect class="cls-1" x="0.58" y="15.2" width="3.68" height="0.42"/>
            <rect class="cls-1" x="0.58" y="15.62" width="3.68" height="0.42"/>
            <rect class="cls-1" x="0.58" y="16.04" width="3.68" height="0.42"/>
            <rect class="cls-1" x="0.58" y="16.46" width="3.68" height="0.42"/>
            <rect class="cls-1" x="0.58" y="16.88" width="3.68" height="0.42"/>
            <rect class="cls-1" x="0.58" y="17.31" width="3.68" height="0.42"/>
            <rect class="cls-1" x="0.58" y="17.73" width="3.68" height="0.42"/>
            <rect class="cls-1" x="0.58" y="18.15" width="3.68" height="0.42"/>
            <rect class="cls-1" x="0.58" y="18.57" width="3.68" height="0.42"/>
            <rect class="cls-1" x="0.58" y="19" width="3.68" height="0.42"/>
            <rect class="cls-1" x="0.58" y="19.42" width="3.68" height="0.42"/>
          </g>
        </g>
      </g>
    </g>
    <g>
      <polygon class="cls-1" points="6.22 19.84 6.22 8.95 9.83 11.63 9.83 17.54 6.22 19.84"/>
      <g class="cls-7">
        <g>
          <rect class="cls-1" x="6.22" y="8.95" width="3.62" height="10.88"/>
          <g class="cls-8">
            <rect class="cls-1" x="6.22" y="19.67" width="3.62" height="0.17"/>
            <rect class="cls-1" x="6.22" y="19.49" width="3.62" height="0.17"/>
            <rect class="cls-1" x="6.22" y="19.32" width="3.62" height="0.17"/>
            <rect class="cls-1" x="6.22" y="19.15" width="3.62" height="0.17"/>
            <rect class="cls-1" x="6.22" y="18.98" width="3.62" height="0.17"/>
            <rect class="cls-1" x="6.22" y="18.8" width="3.62" height="0.17"/>
            <rect class="cls-1" x="6.22" y="18.63" width="3.62" height="0.17"/>
            <rect class="cls-1" x="6.22" y="18.46" width="3.62" height="0.17"/>
            <rect class="cls-1" x="6.22" y="18.28" width="3.62" height="0.17"/>
            <rect class="cls-1" x="6.22" y="18.11" width="3.62" height="0.17"/>
            <rect class="cls-1" x="6.22" y="17.94" width="3.62" height="0.17"/>
            <rect class="cls-1" x="6.22" y="17.77" width="3.62" height="0.17"/>
            <rect class="cls-1" x="6.22" y="17.59" width="3.62" height="0.17"/>
            <rect class="cls-1" x="6.22" y="17.42" width="3.62" height="0.17"/>
            <rect class="cls-1" x="6.22" y="17.25" width="3.62" height="0.17"/>
            <rect class="cls-1" x="6.22" y="17.07" width="3.62" height="0.17"/>
            <rect class="cls-1" x="6.22" y="16.9" width="3.62" height="0.17"/>
            <rect class="cls-1" x="6.22" y="16.73" width="3.62" height="0.17"/>
            <rect class="cls-1" x="6.22" y="16.56" width="3.62" height="0.17"/>
            <rect class="cls-1" x="6.22" y="16.38" width="3.62" height="0.17"/>
            <rect class="cls-1" x="6.22" y="16.21" width="3.62" height="0.17"/>
            <rect class="cls-1" x="6.22" y="16.04" width="3.62" height="0.17"/>
            <rect class="cls-1" x="6.22" y="15.87" width="3.62" height="0.17"/>
            <rect class="cls-1" x="6.22" y="15.69" width="3.62" height="0.17"/>
            <rect class="cls-1" x="6.22" y="15.52" width="3.62" height="0.17"/>
            <rect class="cls-1" x="6.22" y="15.35" width="3.62" height="0.17"/>
            <rect class="cls-1" x="6.22" y="15.17" width="3.62" height="0.17"/>
            <rect class="cls-1" x="6.22" y="15" width="3.62" height="0.17"/>
            <rect class="cls-1" x="6.22" y="14.83" width="3.62" height="0.17"/>
            <rect class="cls-1" x="6.22" y="14.66" width="3.62" height="0.17"/>
            <rect class="cls-1" x="6.22" y="14.48" width="3.62" height="0.17"/>
            <rect class="cls-1" x="6.22" y="14.31" width="3.62" height="0.17"/>
            <rect class="cls-1" x="6.22" y="14.14" width="3.62" height="0.17"/>
            <rect class="cls-1" x="6.22" y="13.96" width="3.62" height="0.17"/>
            <rect class="cls-1" x="6.22" y="13.79" width="3.62" height="0.17"/>
            <rect class="cls-1" x="6.22" y="13.62" width="3.62" height="0.17"/>
            <rect class="cls-1" x="6.22" y="13.45" width="3.62" height="0.17"/>
            <rect class="cls-1" x="6.22" y="13.27" width="3.62" height="0.17"/>
            <rect class="cls-1" x="6.22" y="13.1" width="3.62" height="0.17"/>
            <rect class="cls-1" x="6.22" y="12.93" width="3.62" height="0.17"/>
            <rect class="cls-1" x="6.22" y="12.76" width="3.62" height="0.17"/>
            <rect class="cls-1" x="6.22" y="12.58" width="3.62" height="0.17"/>
            <rect class="cls-1" x="6.22" y="12.41" width="3.62" height="0.17"/>
            <rect class="cls-1" x="6.22" y="12.24" width="3.62" height="0.17"/>
            <rect class="cls-1" x="6.22" y="12.06" width="3.62" height="0.17"/>
            <rect class="cls-1" x="6.22" y="11.89" width="3.62" height="0.17"/>
            <rect class="cls-1" x="6.22" y="11.72" width="3.62" height="0.17"/>
            <rect class="cls-1" x="6.22" y="11.55" width="3.62" height="0.17"/>
            <rect class="cls-1" x="6.22" y="11.37" width="3.62" height="0.17"/>
            <rect class="cls-1" x="6.22" y="11.2" width="3.62" height="0.17"/>
            <rect class="cls-1" x="6.22" y="11.03" width="3.62" height="0.17"/>
            <rect class="cls-1" x="6.22" y="10.85" width="3.62" height="0.17"/>
            <rect class="cls-1" x="6.22" y="10.68" width="3.62" height="0.17"/>
            <rect class="cls-1" x="6.22" y="10.51" width="3.62" height="0.17"/>
            <rect class="cls-1" x="6.22" y="10.34" width="3.62" height="0.17"/>
            <rect class="cls-1" x="6.22" y="10.16" width="3.62" height="0.17"/>
            <rect class="cls-1" x="6.22" y="9.99" width="3.62" height="0.17"/>
            <rect class="cls-1" x="6.22" y="9.82" width="3.62" height="0.17"/>
            <rect class="cls-1" x="6.22" y="9.65" width="3.62" height="0.17"/>
            <rect class="cls-1" x="6.22" y="9.47" width="3.62" height="0.17"/>
            <rect class="cls-1" x="6.22" y="9.3" width="3.62" height="0.17"/>
            <rect class="cls-1" x="6.22" y="9.13" width="3.62" height="0.17"/>
            <rect class="cls-1" x="6.22" y="8.95" width="3.62" height="0.17"/>
          </g>
        </g>
      </g>
    </g>
    <g class="cls-9">
      <path class="cls-1" d="M16,10.15v5.34c0,0.89.35,1.07,1.16,0.94l0.06,1.27c-1.8.33-2.88-.12-2.88-2.21V9Z"/>
      <path class="cls-1" d="M23.06,15.14H19.12a1.43,1.43,0,0,0,1.54,1.31,4.13,4.13,0,0,0,.77,0,5.06,5.06,0,0,0,1.39-.35L23,17.32a5.38,5.38,0,0,1-2.25.52,3,3,0,0,1-3.33-3.12,2.88,2.88,0,0,1,3-3c2.12,0,3,1.42,2.58,3.4m-3.93-1.08h2.55a1,1,0,0,0-1.2-1,1.29,1.29,0,0,0-1.35,1"/>
      <path class="cls-1" d="M28.3,17.69V14.33a1.09,1.09,0,0,0-1.1-1.24A1.21,1.21,0,0,0,26,14.36v3.33H24.29v-4c0-.58,0-0.76-0.55-0.76v-1c0.77-.13,2.12-0.27,2.12.78a2,2,0,0,1,1.86-.9c1.64,0,2.29,1.13,2.29,2.58v3.36H28.3Z"/>
      <path class="cls-1" d="M33.35,11.89h1.89v1.27H33.35v2.25c0,1.21,1,1.27,2,.92l0.16,1.28c-2,.55-3.77.23-3.77-2.16V13.16l-1.1-.11V11.89h1.22L32,10.09h1.35v1.81Z"/>
      <path class="cls-1" d="M38,17.8a2,2,0,1,1,.14-3.92,3,3,0,0,1,1.54.37v-0.4c0-.71-0.87-0.83-1.45-0.83a3.35,3.35,0,0,0-1.67.35l-0.22-1.21a5.26,5.26,0,0,1,2.18-.43c1.49,0,2.77.49,2.77,2.17V16c0,0.49,0,.78.54,0.75v0.94c-0.88.19-1.84,0.14-1.84-.89a2.2,2.2,0,0,1-2,1m1.65-2.49A2.19,2.19,0,0,0,38.4,15a0.83,0.83,0,0,0-.9.9,0.73,0.73,0,0,0,.8.63,1.22,1.22,0,0,0,1.31-.89V15.3Z"/>
      <path class="cls-1" d="M43.8,9.24a1,1,0,1,1-1,1,0.93,0.93,0,0,1,1-1m0.82,8.45H42.94V12h1.69v5.74Z"/>
      <path class="cls-1" d="M50.09,17.69V14.33A1.09,1.09,0,0,0,49,13.09a1.21,1.21,0,0,0-1.23,1.28v3.33H46.08v-4c0-.58,0-0.76-0.55-0.76v-1c0.77-.13,2.12-0.27,2.12.78a2,2,0,0,1,1.86-.9c1.64,0,2.29,1.13,2.29,2.58v3.36h-1.7Z"/>
      <path class="cls-1" d="M53.52,13.09H52.45V11.89h1.1V11.16c0-2.37,1.83-2.66,3.74-2.09l-0.17,1.25c-0.87-.33-2-0.37-2,0.87v0.7H57v1.19H55.16v4.6H53.52v-4.6Z"/>
      <path class="cls-1" d="M60.27,17.81a3,3,0,0,1-3.1-3,3.08,3.08,0,0,1,6.16,0,2.93,2.93,0,0,1-3.06,3m0-1.47a1.43,1.43,0,0,0,1.42-1.58,1.41,1.41,0,0,0-1.39-1.57,1.43,1.43,0,0,0-1.42,1.57,1.43,1.43,0,0,0,1.39,1.58"/>
      <path class="cls-1" d="M67.37,11.7a2,2,0,0,1,1.24.37l-0.37,1.41a1.83,1.83,0,0,0-1.08-.31,1.3,1.3,0,0,0-1.36,1.37v3.15H64.14v-4.1c0-.48,0-0.8-0.58-0.71v-1c0.84-.19,2.08-0.19,2.18.84a1.64,1.64,0,0,1,1.63-1"/>
      <path class="cls-1" d="M77.19,17.69V14.33a1,1,0,0,0-.94-1.23,1.13,1.13,0,0,0-1.07,1.24v3.35H73.52V14.34a1,1,0,0,0-1-1.24,1.19,1.19,0,0,0-1.14,1.28v3.31H69.7v-4c0-.57,0-0.76-0.55-0.76v-1c0.76-.22,2.1-0.35,2.1.81a2,2,0,0,1,1.87-.93,1.61,1.61,0,0,1,1.77,1.06,2.2,2.2,0,0,1,2-1.06c1.65,0,2,1.17,2,2.58v3.36h-1.7Z"/>
    </g>
  </g>
</svg>
