<?xml version="1.0" encoding="utf-8"?>
<!-- Generator: Adobe Illustrator 19.0.0, SVG Export Plug-In . SVG Version: 6.00 Build 0)  -->
<svg version="1.1" id="Layer_1" xmlns="http://www.w3.org/2000/svg" xmlns:xlink="http://www.w3.org/1999/xlink" x="0px" y="0px"
	 viewBox="0 0 78 19.1" style="enable-background:new 0 0 78 19.1;" xml:space="preserve">
<style type="text/css">
	.st0{fill:#FFFFFF;}
</style>
<g>
	<path class="st0" d="M75.3,18.7l0.9-1.3c0-0.1,0.1-0.2,0.2-0.3h0l0,0.3v1.3h0.3v-2.1h-0.3L75.5,18c0,0.1-0.1,0.2-0.2,0.3h0l0-0.3
		v-1.3H75v2.1H75.3z M76.2,16.4c0.1-0.1,0.1-0.2,0.1-0.3v0h-0.2v0c0,0.1,0,0.1-0.1,0.1c0,0-0.1,0.1-0.1,0.1c-0.1,0-0.1,0-0.1-0.1
		c0,0-0.1-0.1-0.1-0.1v0h-0.2v0c0,0.1,0,0.2,0.1,0.3c0.1,0.1,0.2,0.1,0.3,0.1C76,16.5,76.1,16.5,76.2,16.4 M72.5,18.7l0.9-1.3
		c0-0.1,0.1-0.2,0.2-0.3h0l0,0.3v1.3h0.3v-2.1h-0.3L72.6,18c0,0.1-0.1,0.2-0.2,0.3h0l0-0.3v-1.3h-0.3v2.1H72.5z M70.9,18.7v0.4h0.3
		v-0.7h-0.2v-1.8h-0.3v1.8h-1v-1.8h-0.3v2.1H70.9z M67.4,17.2c0-0.1,0-0.2,0.1-0.3h0l0.1,0.3l0.2,0.7h-0.6L67.4,17.2z M66.8,18.7
		l0.2-0.6h0.8l0.2,0.6h0.3l-0.7-2.1h-0.3l-0.7,2.1H66.8z M64.6,18.7v-0.9h0.3l0.6,0.9h0.3l-0.6-1.1v0l0.6-1h-0.3l-0.5,0.9h-0.3v-0.9
		h-0.3v2.1H64.6z M61.7,18.7l0.9-1.3c0-0.1,0.1-0.2,0.2-0.3h0l0,0.3v1.3h0.3v-2.1h-0.3L61.9,18c0,0.1-0.1,0.2-0.2,0.3h0l0-0.3v-1.3
		h-0.3v2.1H61.7z M58.9,18.7v-0.9H60v0.9h0.3v-2.1H60v0.9h-1.1v-0.9h-0.3v2.1H58.9z M56.5,18.7c0.2,0,0.4-0.1,0.5-0.4l0.7-1.7h-0.3
		l-0.4,1c0,0.1-0.1,0.2-0.1,0.3h0l-0.1-0.3l-0.5-1h-0.3l0.8,1.6c0,0.1-0.1,0.1-0.1,0.2c0,0-0.1,0.1-0.1,0.1c-0.1,0-0.1,0-0.2-0.1
		l-0.1,0.2C56.3,18.7,56.4,18.7,56.5,18.7 M53.3,18.7l0.1-1.3c0-0.1,0-0.2,0-0.3h0l0.1,0.3l0.4,0.9h0.3l0.4-0.9
		c0-0.1,0.1-0.2,0.1-0.3h0l0,0.3l0.1,1.3h0.3l-0.2-2.1h-0.3l-0.5,1.1c0,0.1-0.1,0.2-0.1,0.3h0l-0.1-0.3l-0.5-1.1h-0.3L53,18.7H53.3z
		 M50.1,18.7l0.1-1.3c0-0.1,0-0.2,0-0.3h0l0.1,0.3l0.4,0.9H51l0.4-0.9c0-0.1,0.1-0.2,0.1-0.3h0l0,0.3l0.1,1.3h0.3l-0.2-2.1h-0.3
		L51,17.7c0,0.1-0.1,0.2-0.1,0.3h0l-0.1-0.3l-0.5-1.1H50l-0.2,2.1H50.1z M47.2,17.1c0.1-0.2,0.3-0.2,0.5-0.2c0.2,0,0.4,0.1,0.5,0.2
		c0.1,0.2,0.2,0.3,0.2,0.6c0,0.2-0.1,0.4-0.2,0.6c-0.1,0.2-0.3,0.2-0.5,0.2c-0.2,0-0.4-0.1-0.5-0.2c-0.1-0.2-0.2-0.4-0.2-0.6
		C47,17.4,47.1,17.2,47.2,17.1 M47,18.4c0.2,0.2,0.5,0.3,0.8,0.3s0.6-0.1,0.8-0.3c0.2-0.2,0.3-0.5,0.3-0.8c0-0.3-0.1-0.5-0.3-0.7
		c-0.2-0.2-0.5-0.3-0.8-0.3s-0.6,0.1-0.8,0.3c-0.2,0.2-0.3,0.5-0.3,0.7C46.7,17.9,46.8,18.2,47,18.4 M44.7,18.7v-0.9H45l0.6,0.9h0.3
		l-0.6-1.1v0l0.6-1h-0.3L45,17.5h-0.3v-0.9h-0.3v2.1H44.7z M41.1,17.2c0-0.1,0-0.2,0.1-0.3h0l0.1,0.3l0.2,0.7h-0.6L41.1,17.2z
		 M40.6,18.7l0.2-0.6h0.8l0.2,0.6h0.3l-0.7-2.1H41l-0.7,2.1H40.6z M37.6,18.7c0.3,0,0.5-0.2,0.6-0.4c0.1-0.3,0.2-0.7,0.2-1.2v-0.2
		H39v1.8h0.3v-2.1h-1.2v0.5c0,0.4,0,0.8-0.1,1c-0.1,0.2-0.2,0.3-0.4,0.4V18.7z M35.2,17.1c0.1-0.2,0.3-0.2,0.5-0.2
		c0.2,0,0.4,0.1,0.5,0.2c0.1,0.2,0.2,0.3,0.2,0.6c0,0.2-0.1,0.4-0.2,0.6c-0.1,0.2-0.3,0.2-0.5,0.2c-0.2,0-0.4-0.1-0.5-0.2
		c-0.1-0.2-0.2-0.4-0.2-0.6C35,17.4,35.1,17.2,35.2,17.1 M35,18.4c0.2,0.2,0.5,0.3,0.8,0.3c0.3,0,0.6-0.1,0.8-0.3
		c0.2-0.2,0.3-0.5,0.3-0.8c0-0.3-0.1-0.5-0.3-0.7c-0.2-0.2-0.5-0.3-0.8-0.3c-0.3,0-0.6,0.1-0.8,0.3c-0.2,0.2-0.3,0.5-0.3,0.7
		C34.7,17.9,34.8,18.2,35,18.4 M32.7,18.7v-0.9H33l0.6,0.9h0.3l-0.6-1.1v0l0.6-1h-0.3L33,17.5h-0.3v-0.9h-0.3v2.1H32.7z M31.2,18.7
		v-2.1h-0.3v1.8h-0.8v-1.8h-0.3v1.8h-0.8v-1.8h-0.3v2.1H31.2z M25.3,17.5c-0.1-0.1-0.1-0.2-0.1-0.3c0-0.1,0.1-0.3,0.2-0.3
		c0.1,0,0.1,0,0.3,0h0.3v0.7h-0.4C25.4,17.6,25.3,17.6,25.3,17.5 M25.1,18.7l0.5-0.8h0.4v0.8h0.3v-2.1h-0.6c-0.2,0-0.3,0-0.4,0.1
		c-0.1,0-0.2,0.1-0.2,0.2c-0.1,0.1-0.1,0.2-0.1,0.3c0,0.1,0,0.3,0.1,0.4s0.2,0.2,0.3,0.2v0l-0.1,0.1l-0.5,0.8H25.1z M23,17.2
		c0-0.1,0-0.2,0.1-0.3h0l0.1,0.3l0.2,0.7h-0.6L23,17.2z M22.5,18.7l0.2-0.6h0.8l0.2,0.6H24l-0.7-2.1h-0.3l-0.7,2.1H22.5z M20.3,18.7
		v-0.9h0.3l0.6,0.9h0.3l-0.6-1.1v0l0.6-1h-0.3l-0.5,0.9h-0.3v-0.9H20v2.1H20.3z M17.4,18.4c0.2,0.2,0.5,0.3,0.8,0.3
		c0.3,0,0.6-0.1,0.8-0.3l-0.2-0.2c-0.1,0.1-0.2,0.1-0.3,0.2c-0.1,0-0.2,0.1-0.3,0.1c-0.2,0-0.4-0.1-0.6-0.2
		c-0.1-0.2-0.2-0.4-0.2-0.6c0-0.2,0.1-0.4,0.2-0.6c0.1-0.2,0.3-0.2,0.6-0.2c0.1,0,0.2,0,0.3,0.1c0.1,0,0.2,0.1,0.3,0.2l0.1-0.2
		c-0.2-0.2-0.4-0.3-0.8-0.3c-0.3,0-0.6,0.1-0.8,0.3c-0.2,0.2-0.3,0.5-0.3,0.8C17.1,17.9,17.2,18.2,17.4,18.4 M15,17.7h0.5
		c0.1,0,0.2,0,0.3,0.1s0.1,0.1,0.1,0.3c0,0.1,0,0.2-0.1,0.3c-0.1,0.1-0.1,0.1-0.3,0.1H15V17.7z M15,16.9h0.4c0.1,0,0.2,0,0.2,0.1
		c0.1,0.1,0.1,0.1,0.1,0.2s0,0.2-0.1,0.2c-0.1,0.1-0.1,0.1-0.2,0.1H15V16.9z M15.5,18.7c0.2,0,0.4-0.1,0.5-0.2
		c0.1-0.1,0.2-0.2,0.2-0.4c0-0.1,0-0.2-0.1-0.3c-0.1-0.1-0.1-0.2-0.3-0.2v0c0.1,0,0.1-0.1,0.2-0.2c0-0.1,0.1-0.2,0.1-0.3
		c0-0.2-0.1-0.3-0.2-0.4c-0.1-0.1-0.3-0.1-0.4-0.1h-0.7v2.1H15.5z M12,17.1c0.1-0.2,0.3-0.2,0.5-0.2c0.2,0,0.4,0.1,0.5,0.2
		c0.1,0.2,0.2,0.3,0.2,0.6c0,0.2-0.1,0.4-0.2,0.6c-0.1,0.2-0.3,0.2-0.5,0.2c-0.2,0-0.4-0.1-0.5-0.2c-0.1-0.2-0.2-0.4-0.2-0.6
		C11.8,17.4,11.9,17.2,12,17.1 M11.8,18.4c0.2,0.2,0.5,0.3,0.8,0.3s0.6-0.1,0.8-0.3c0.2-0.2,0.3-0.5,0.3-0.8c0-0.3-0.1-0.5-0.3-0.7
		c-0.2-0.2-0.5-0.3-0.8-0.3s-0.6,0.1-0.8,0.3c-0.2,0.2-0.3,0.5-0.3,0.7C11.5,17.9,11.6,18.2,11.8,18.4 M9.5,18.7v-0.9h0.3l0.6,0.9
		h0.3l-0.6-1.1v0l0.6-1h-0.3l-0.5,0.9H9.5v-0.9H9.2v2.1H9.5z M6.7,18.4c0.2,0.2,0.5,0.3,0.8,0.3c0.3,0,0.6-0.1,0.8-0.3l-0.2-0.2
		c-0.1,0.1-0.2,0.1-0.3,0.2c-0.1,0-0.2,0.1-0.3,0.1c-0.2,0-0.4-0.1-0.6-0.2c-0.1-0.2-0.2-0.4-0.2-0.6c0-0.2,0.1-0.4,0.2-0.6
		c0.1-0.2,0.3-0.2,0.6-0.2c0.1,0,0.2,0,0.3,0.1c0.1,0,0.2,0.1,0.3,0.2l0.1-0.2c-0.2-0.2-0.4-0.3-0.8-0.3c-0.3,0-0.6,0.1-0.8,0.3
		c-0.2,0.2-0.3,0.5-0.3,0.8C6.4,17.9,6.5,18.2,6.7,18.4 M3.8,17.1c0.1-0.2,0.3-0.2,0.5-0.2c0.2,0,0.4,0.1,0.5,0.2
		c0.1,0.2,0.2,0.3,0.2,0.6c0,0.2-0.1,0.4-0.2,0.6c-0.1,0.2-0.3,0.2-0.5,0.2c-0.2,0-0.4-0.1-0.5-0.2c-0.1-0.2-0.2-0.4-0.2-0.6
		C3.6,17.4,3.7,17.2,3.8,17.1 M3.6,18.4c0.2,0.2,0.5,0.3,0.8,0.3c0.3,0,0.6-0.1,0.8-0.3c0.2-0.2,0.3-0.5,0.3-0.8
		c0-0.3-0.1-0.5-0.3-0.7c-0.2-0.2-0.5-0.3-0.8-0.3c-0.3,0-0.6,0.1-0.8,0.3c-0.2,0.2-0.3,0.5-0.3,0.7C3.3,17.9,3.4,18.2,3.6,18.4
		 M0.5,18.7l0.1-1.3c0-0.1,0-0.2,0-0.3h0l0.1,0.3l0.4,0.9h0.3l0.4-0.9c0-0.1,0.1-0.2,0.1-0.3h0l0,0.3L2,18.7h0.3l-0.2-2.1H1.8
		l-0.5,1.1c0,0.1-0.1,0.2-0.1,0.3h0l-0.1-0.3l-0.5-1.1H0.4l-0.2,2.1H0.5z"/>
	<path class="st0" d="M71.6,7.7c0.6,0.5,1.6,1.1,2.6,1.1c0.7,0,1.1-0.3,1.1-0.8c0-1.5-4.8-1.3-4.8-4.7c0-2,1.7-3.3,3.9-3.3
		c1.2,0,2.5,0.4,3.4,1.2l-1.1,2.2c-0.6-0.5-1.6-1-2.4-1c-0.8,0-1.2,0.3-1.2,0.8c0,1.6,4.8,1.2,4.8,4.6c0,1.8-1.4,3.4-3.9,3.4
		c-1.4,0-2.9-0.5-3.9-1.6L71.6,7.7z"/>
	<path class="st0" d="M0.9,0.2h2.9l1.6,4.6c0.2,0.7,0.5,1.8,0.5,1.8h0c0,0,0.3-1.1,0.5-1.8l1.6-4.6h2.9l0.9,10.9H9.2L8.8,6.2
		c-0.1-0.8,0-1.8,0-1.8h0c0,0-0.4,1.1-0.6,1.8L7.1,9.4H4.8L3.6,6.2C3.4,5.5,3,4.4,3,4.4h0c0,0,0.1,1,0,1.8l-0.3,4.9H0L0.9,0.2z"/>
	<path class="st0" d="M30.9,6.7l-0.6-2.1c-0.2-0.7-0.5-1.9-0.5-1.9h0c0,0-0.2,1.2-0.5,1.9l-0.6,2.1H30.9z M28.3,0.2h2.9L35,11.1
		h-2.8l-0.7-2.3H28l-0.7,2.3h-2.8L28.3,0.2z"/>
	<path class="st0" d="M53.3,0.1c1.5,0,3,0.5,4.1,1.5l-1.2,2c-0.7-0.6-1.8-1.1-2.7-1.1c-2.2,0-3.1,1.5-3.1,3.1c0,1.6,1,3.3,3.1,3.3
		c1.1,0,2.2-0.6,2.9-1.3l1.4,1.9c-1,1-2.4,1.8-4.4,1.8c-3.5,0-5.7-2.4-5.7-5.6C47.6,2.5,50,0.1,53.3,0.1"/>
	<rect x="14.5" y="5.2" class="st0" width="7.3" height="0.9"/>
	<rect x="36.8" y="5.2" class="st0" width="7.3" height="0.9"/>
	<rect x="60.3" y="5.2" class="st0" width="7.3" height="0.9"/>
</g>
</svg>
