<?xml version="1.0" encoding="utf-8"?>
<!-- Generator: Adobe Illustrator 21.1.0, SVG Export Plug-In . SVG Version: 6.00 Build 0)  -->
<svg version="1.1" id="Layer_1" xmlns="http://www.w3.org/2000/svg" xmlns:xlink="http://www.w3.org/1999/xlink" x="0px" y="0px"
	 viewBox="0 0 82.5 16.7" style="enable-background:new 0 0 82.5 16.7;" xml:space="preserve">
<style type="text/css">
	.st0{display:none;}
	.st1{fill:#FFFFFF;}
	.st2{fill-rule:evenodd;clip-rule:evenodd;fill:#FFFFFF;}
</style>
<polyline class="st0" points="58.4,187.4 -124.1,187.4 -124.1,-840.3 246.3,-840.3 246.3,187.4 58.4,187.4 "/>
<g>
	<g>
		<path class="st1" d="M20.1,0h1.2l3.4,8h-1.5l-0.8-2H19l-0.8,2h-1.4L20.1,0z M19.5,4.6h2.3l-1.2-2.8L19.5,4.6z"/>
		<path class="st1" d="M31.4,7.2c-0.5,0.5-1.5,0.9-2.5,0.9c-2.4,0-4.1-1.6-4.1-4.1c0-2.3,1.4-4.1,4.1-4.1c1,0,1.9,0.3,2.4,0.8
			l-0.6,1c-0.5-0.3-1-0.5-1.8-0.5c-1.5,0-2.6,1.1-2.6,2.8c0,1.7,1.1,2.8,2.8,2.8c0.7,0,1.3-0.2,1.9-0.6L31.4,7.2z"/>
		<path class="st1" d="M32.3,0h6.6v1.3h-2.6V8h-1.4V1.3h-2.6V0z"/>
		<path class="st1" d="M40,0h4.6v1.3h-3.2v2h2.9v1.3h-2.9v2.1h3.3V8H40V0z"/>
		<path class="st1" d="M46.3,8V0c0.4,0,1.7,0,2.3,0c2.3,0,3.1,1.3,3.1,2.6c0,1.4-1,2.6-2.9,2.6c-0.2,0-0.7,0-1,0V8H46.3z M47.7,1.3
			v2.4c0.3,0,0.7,0.1,1,0.1c0.8,0,1.5-0.4,1.5-1.3c0-0.8-0.5-1.2-1.5-1.2C48.5,1.3,48.1,1.3,47.7,1.3z"/>
		<path class="st1" d="M59.1,7.2c-0.5,0.5-1.5,0.9-2.5,0.9c-2.4,0-4.1-1.6-4.1-4.1c0-2.3,1.4-4.1,4.1-4.1c1,0,1.9,0.3,2.4,0.8
			l-0.6,1c-0.5-0.3-1-0.5-1.8-0.5c-1.5,0-2.6,1.1-2.6,2.8c0,1.7,1.1,2.8,2.8,2.8c0.7,0,1.3-0.2,1.9-0.6L59.1,7.2z"/>
		<path class="st1" d="M60.2,0h1.4v3.8L64.8,0h1.7l-3.3,3.7L66.7,8h-1.8l-3.3-4.1V8h-1.4V0z"/>
		<path class="st1" d="M70.4,0h1.2l3.4,8h-1.5l-0.8-2h-3.4l-0.8,2H67L70.4,0z M69.8,4.6h2.3l-1.2-2.8L69.8,4.6z"/>
		<path class="st1" d="M79.9,5.2h-1.1L77,8h-1.6l2-3c-0.7-0.4-1.4-1.1-1.4-2.2c0-1.5,1-2.8,3.3-2.8c0.5,0,1.5,0,2,0v8h-1.4V5.2z
			 M79.9,3.9V1.3c-0.2,0-0.6,0-0.9,0c-0.9,0-1.5,0.6-1.5,1.4c0,0.7,0.5,1.2,1.1,1.3H79.9z"/>
		<polygon class="st1" points="14.5,0 11.9,4 9.1,0 7.7,0 7.7,8 9.1,8 9.1,2.2 11.1,5.4 12.4,5.4 14.4,2.2 14.4,8 15.8,8 15.8,0 		
			"/>
	</g>
	<g>
		<g>
			<path class="st1" d="M9,12.3c0.9,0,1.6,0.7,1.6,1.5c0,0.9-0.6,1.5-1.6,1.5s-1.6-0.7-1.6-1.5C7.4,13,8,12.3,9,12.3z M9,15.1
				c0.7,0,1.2-0.5,1.2-1.2c0-0.7-0.5-1.2-1.2-1.2c-0.7,0-1.2,0.5-1.2,1.2C7.8,14.6,8.3,15.1,9,15.1z"/>
			<path class="st1" d="M10.9,12.4h2.7v0.3h-1.2v2.6h-0.3v-2.6h-1.2V12.4z"/>
			<path class="st1" d="M15.9,15.3v-3h0.3v2.5l2-2.5h0.3v3h-0.3v-2.5l-2,2.5H15.9z"/>
			<path class="st1" d="M19.2,15h0.4c0.2-0.2,0.4-0.9,0.5-1.8l0-0.8H22V15h0.5v1.1h-0.3v-0.8h-2.6v0.8h-0.3V15z M20,15h1.7v-2.3
				h-1.2l0,0.6C20.3,14.2,20.1,14.8,20,15z"/>
			<path class="st1" d="M25.7,15c-0.3,0.3-0.7,0.4-1.1,0.4c-0.9,0-1.6-0.6-1.6-1.5c0-0.9,0.5-1.5,1.5-1.5c0.8,0,1.4,0.5,1.4,1.3
				c0,0.1,0,0.2,0,0.3h-2.5c0,0.7,0.5,1.2,1.2,1.2c0.4,0,0.8-0.2,1-0.4L25.7,15z M23.4,13.6h2.1c0-0.6-0.4-1-1-1
				C23.8,12.6,23.4,13.1,23.4,13.6z"/>
			<path class="st1" d="M26.8,15.3v-3h0.3v2.5l2-2.5h0.3v3h-0.3v-2.5l-2,2.5H26.8z"/>
			<path class="st1" d="M31.7,15h0.4c0.2-0.2,0.4-0.9,0.5-1.8l0-0.8h1.9V15H35v1.1h-0.3v-0.8H32v0.8h-0.3V15z M32.4,15h1.7v-2.3
				h-1.2l0,0.6C32.8,14.2,32.6,14.8,32.4,15z"/>
			<path class="st1" d="M37.1,12.3c0.9,0,1.6,0.7,1.6,1.5c0,0.9-0.6,1.5-1.6,1.5c-0.9,0-1.6-0.7-1.6-1.5
				C35.5,13,36.1,12.3,37.1,12.3z M37.1,15.1c0.7,0,1.2-0.5,1.2-1.2c0-0.7-0.5-1.2-1.2-1.2c-0.7,0-1.2,0.5-1.2,1.2
				C35.9,14.6,36.4,15.1,37.1,15.1z"/>
			<path class="st1" d="M43.4,12.7h-1.9v2.7h-0.3v-3h2.6v3h-0.3V12.7z"/>
			<path class="st1" d="M44.9,12.4h0.3v0.4c0.2-0.3,0.7-0.5,1.1-0.5c0.9,0,1.4,0.6,1.4,1.5c0,0.9-0.6,1.6-1.5,1.6
				c-0.4,0-0.7-0.1-1-0.3v1.5h-0.3V12.4z M45.2,13.1v1.7c0.3,0.2,0.6,0.3,0.9,0.3c0.7,0,1.2-0.5,1.2-1.3c0-0.7-0.4-1.2-1.1-1.2
				C45.8,12.6,45.4,12.8,45.2,13.1z"/>
			<path class="st1" d="M49.9,12.3c0.9,0,1.6,0.7,1.6,1.5c0,0.9-0.6,1.5-1.6,1.5c-0.9,0-1.6-0.7-1.6-1.5C48.4,13,49,12.3,49.9,12.3z
				 M49.9,15.1c0.7,0,1.2-0.5,1.2-1.2c0-0.7-0.5-1.2-1.2-1.2c-0.7,0-1.2,0.5-1.2,1.2C48.7,14.6,49.2,15.1,49.9,15.1z"/>
			<path class="st1" d="M52.4,15.3v-3h0.3v2.5l2-2.5h0.3v3h-0.3v-2.5l-2,2.5H52.4z"/>
			<path class="st1" d="M55.9,15l0.2-0.3c0.3,0.2,0.7,0.3,0.9,0.3c0.5,0,0.9-0.2,0.9-0.6c0-0.3-0.3-0.5-0.7-0.5h-0.5v-0.3h0.5
				c0.3,0,0.6-0.2,0.6-0.5c0-0.3-0.3-0.5-0.8-0.5c-0.4,0-0.7,0.2-0.9,0.3L56,12.7c0.2-0.3,0.7-0.4,1.1-0.4c0.7,0,1.1,0.3,1.1,0.8
				c0,0.3-0.2,0.6-0.5,0.7v0c0.4,0,0.6,0.4,0.6,0.7c0,0.6-0.5,0.9-1.2,0.9C56.7,15.4,56.1,15.2,55.9,15z"/>
			<path class="st1" d="M59.3,12.4c0.3,0,0.6,0,1,0c0.8,0,1.2,0.2,1.2,0.8c0,0.3-0.2,0.6-0.6,0.7v0c0.5,0.1,0.7,0.3,0.7,0.7
				c0,0.5-0.4,0.8-1.3,0.8c-0.4,0-0.7,0-1,0V12.4z M59.6,12.7v1h0.8c0.4,0,0.7-0.2,0.7-0.5c0-0.4-0.4-0.5-0.8-0.5
				C60,12.7,59.8,12.7,59.6,12.7z M59.6,14V15c0.2,0,0.4,0,0.7,0c0.6,0,0.9-0.2,0.9-0.5c0-0.4-0.3-0.5-0.9-0.5H59.6z"/>
			<path class="st1" d="M63.9,12.3c0.9,0,1.6,0.7,1.6,1.5c0,0.9-0.6,1.5-1.6,1.5s-1.6-0.7-1.6-1.5C62.3,13,63,12.3,63.9,12.3z
				 M63.9,15.1c0.7,0,1.2-0.5,1.2-1.2c0-0.7-0.5-1.2-1.2-1.2c-0.7,0-1.2,0.5-1.2,1.2C62.7,14.6,63.2,15.1,63.9,15.1z"/>
			<path class="st1" d="M65.8,15h0.4c0.2-0.2,0.4-0.9,0.5-1.8l0-0.8h1.9V15h0.5v1.1h-0.3v-0.8h-2.6v0.8h-0.3V15z M66.5,15h1.7v-2.3
				H67l0,0.6C66.9,14.2,66.7,14.8,66.5,15z"/>
			<path class="st1" d="M72.3,14.9c-0.3,0.3-0.7,0.5-1.1,0.5c-0.9,0-1.6-0.6-1.6-1.5c0-0.9,0.6-1.5,1.5-1.5c0.5,0,0.9,0.1,1.2,0.4
				L72,13c-0.3-0.2-0.6-0.3-0.9-0.3c-0.6,0-1.2,0.5-1.2,1.2c0,0.8,0.5,1.2,1.2,1.2c0.4,0,0.7-0.2,0.9-0.4L72.3,14.9z"/>
			<path class="st1" d="M72.6,12.4h2.7v0.3h-1.2v2.6h-0.3v-2.6h-1.2V12.4z"/>
			<path class="st1" d="M76,12.4c0.3,0,0.6,0,1,0c0.8,0,1.2,0.2,1.2,0.8c0,0.3-0.2,0.6-0.6,0.7v0c0.5,0.1,0.7,0.3,0.7,0.7
				c0,0.5-0.4,0.8-1.3,0.8c-0.4,0-0.7,0-1,0V12.4z M76.4,12.7v1h0.8c0.4,0,0.7-0.2,0.7-0.5c0-0.4-0.4-0.5-0.8-0.5
				C76.7,12.7,76.5,12.7,76.4,12.7z M76.4,14V15c0.2,0,0.4,0,0.7,0c0.6,0,0.9-0.2,0.9-0.5c0-0.4-0.3-0.5-0.9-0.5H76.4z"/>
			<path class="st1" d="M79.3,12.6c0.3-0.2,0.6-0.3,0.9-0.3c0.8,0,1.1,0.4,1.1,1.2v1.8H81v-0.5c-0.2,0.3-0.5,0.5-1,0.5
				c-0.5,0-0.9-0.3-0.9-0.9c0-0.6,0.5-0.9,1.1-0.9c0.2,0,0.6,0.1,0.8,0.2c0-0.7,0-1.2-0.8-1.2c-0.4,0-0.6,0.1-0.8,0.2L79.3,12.6z
				 M81,14.6v-0.5c-0.2-0.2-0.5-0.2-0.8-0.2c-0.4,0-0.8,0.2-0.8,0.6c0,0.4,0.3,0.6,0.7,0.6C80.6,15.1,80.8,14.8,81,14.6z"/>
		</g>
	</g>
</g>
</svg>
