<?xml version="1.0" encoding="utf-8"?>
<!-- Generator: Adobe Illustrator 19.0.0, SVG Export Plug-In . SVG Version: 6.00 Build 0)  -->
<svg version="1.1" id="Layer_1" xmlns="http://www.w3.org/2000/svg" xmlns:xlink="http://www.w3.org/1999/xlink" x="0px" y="0px"
	 viewBox="0 0 78 14.5" style="enable-background:new 0 0 78 14.5;" xml:space="preserve">
<style type="text/css">
	.st0{fill:#FFFFFF;}
</style>
<g>
	<g>
		<path class="st0" d="M52.8,12C52.8,12,52.8,12,52.8,12c-0.1,0.1-0.2,0.2-0.2,0.2c-0.1,0.1-0.1,0.1-0.2,0.2c0,0.1-0.1,0.1-0.1,0.1
			c0,0-0.1-0.1-0.1-0.1c0,0-0.1-0.1-0.1-0.1c0,0-0.1-0.1-0.2-0.1c-0.1,0-0.1,0-0.2,0c-0.1,0-0.2,0-0.3,0.1c-0.1,0-0.2,0.1-0.2,0.2
			c-0.1,0.1-0.1,0.2-0.2,0.2c0,0.1-0.1,0.2-0.1,0.3c0,0.1,0,0.2,0.1,0.3c0,0.1,0.1,0.2,0.2,0.2c0.1,0.1,0.1,0.1,0.2,0.2
			c0.1,0,0.2,0.1,0.3,0.1c0.1,0,0.2,0,0.3-0.1c0.1-0.1,0.2-0.1,0.3-0.2c0,0,0,0,0.1,0.1c0,0,0.1,0.1,0.2,0.2
			c0.1,0.1,0.1,0.1,0.2,0.2c0,0,0.1,0.1,0.1,0.1c0,0.1-0.1,0.1-0.2,0.2c-0.1,0.1-0.2,0.1-0.2,0.2c-0.1,0.1-0.2,0.1-0.3,0.1
			c-0.1,0-0.2,0.1-0.4,0.1c-0.2,0-0.4,0-0.6-0.1c-0.2-0.1-0.3-0.2-0.5-0.3c-0.1-0.1-0.2-0.3-0.3-0.5c-0.1-0.2-0.1-0.4-0.1-0.6
			c0-0.2,0-0.4,0.1-0.6c0.1-0.2,0.2-0.3,0.3-0.5c0.1-0.1,0.3-0.2,0.5-0.3c0.2-0.1,0.4-0.1,0.6-0.1c0.1,0,0.3,0,0.4,0
			c0.1,0,0.2,0.1,0.3,0.1c0.1,0,0.2,0.1,0.2,0.2C52.7,11.9,52.8,11.9,52.8,12z"/>
		<path class="st0" d="M54.5,14.5c-0.2,0-0.4,0-0.6-0.1s-0.3-0.2-0.5-0.3c-0.1-0.1-0.2-0.3-0.3-0.5C53.1,13.4,53,13.2,53,13
			c0-0.2,0-0.4,0.1-0.6s0.2-0.3,0.3-0.5c0.1-0.1,0.3-0.2,0.5-0.3c0.2-0.1,0.4-0.1,0.6-0.1c0.2,0,0.4,0,0.6,0.1
			c0.2,0.1,0.3,0.2,0.5,0.3c0.1,0.1,0.2,0.3,0.3,0.5S56,12.8,56,13c0,0.2,0,0.4-0.1,0.6c-0.1,0.2-0.2,0.3-0.3,0.5
			c-0.1,0.1-0.3,0.2-0.5,0.3C54.9,14.4,54.7,14.5,54.5,14.5z M54.5,12.2c-0.1,0-0.2,0-0.3,0.1c-0.1,0-0.2,0.1-0.2,0.2
			c-0.1,0.1-0.1,0.2-0.2,0.2s-0.1,0.2-0.1,0.3s0,0.2,0.1,0.3c0,0.1,0.1,0.2,0.2,0.2c0.1,0.1,0.1,0.1,0.2,0.2c0.1,0,0.2,0.1,0.3,0.1
			s0.2,0,0.3-0.1c0.1,0,0.2-0.1,0.2-0.2c0.1-0.1,0.1-0.2,0.2-0.2c0-0.1,0.1-0.2,0.1-0.3s0-0.2-0.1-0.3c0-0.1-0.1-0.2-0.2-0.2
			c-0.1-0.1-0.1-0.1-0.2-0.2C54.7,12.2,54.6,12.2,54.5,12.2z"/>
		<path class="st0" d="M56.4,14.4v-2.9c0,0,0.1,0.1,0.1,0.1c0.1,0.1,0.2,0.2,0.3,0.2c0.1,0.1,0.2,0.2,0.3,0.3
			c0.1,0.1,0.2,0.2,0.3,0.3c0.1,0.1,0.2,0.2,0.3,0.3c0.1,0.1,0.1,0.1,0.2,0.1v-1.3h0.7v2.9c0,0-0.1-0.1-0.2-0.1
			c-0.1-0.1-0.2-0.2-0.3-0.3c-0.1-0.1-0.2-0.2-0.3-0.3c-0.1-0.1-0.2-0.2-0.3-0.3c-0.1-0.1-0.2-0.2-0.3-0.2c-0.1-0.1-0.1-0.1-0.1-0.1
			v1.3H56.4z"/>
		<path class="st0" d="M59.2,14.4v-2.8h2.2v0.7h-1.5v0.4h1.2v0.7h-1.2v1H59.2z"/>
		<path class="st0" d="M61.7,14.4v-2.8h2.2v0.7h-1.5v0.4h1.2v0.7h-1.2v0.4h1.5v0.7H61.7z"/>
		<path class="st0" d="M64.4,14.4v-2.8h1.5c0.1,0,0.2,0,0.4,0.1c0.1,0,0.2,0.1,0.3,0.2c0.1,0.1,0.2,0.2,0.2,0.3
			c0.1,0.1,0.1,0.2,0.1,0.4c0,0.1,0,0.2,0,0.3c0,0.1-0.1,0.2-0.1,0.2c-0.1,0.1-0.1,0.1-0.2,0.2c-0.1,0.1-0.1,0.1-0.2,0.1
			c0,0,0,0.1,0.1,0.1c0,0.1,0.1,0.1,0.1,0.2c0,0.1,0.1,0.1,0.1,0.2c0,0.1,0.1,0.2,0.1,0.2c0,0.1,0.1,0.1,0.1,0.2
			c0,0.1,0,0.1,0.1,0.1H66c0,0,0,0-0.1-0.1c0,0-0.1-0.1-0.1-0.2c0-0.1-0.1-0.1-0.1-0.2s-0.1-0.1-0.1-0.2c0-0.1-0.1-0.1-0.1-0.2
			c0,0,0-0.1-0.1-0.1h-0.4v0.9H64.4z M65.1,12.8h0.7c0.1,0,0.1,0,0.2-0.1c0.1,0,0.1-0.1,0.1-0.2c0-0.1,0-0.1-0.1-0.2
			c-0.1,0-0.1-0.1-0.2-0.1h-0.7V12.8z"/>
		<path class="st0" d="M67.3,14.4v-2.8h2.2v0.7H68v0.4h1.2v0.7H68v0.4h1.5v0.7H67.3z"/>
		<path class="st0" d="M70,14.4v-2.9c0,0,0.1,0.1,0.1,0.1c0.1,0.1,0.2,0.2,0.3,0.2c0.1,0.1,0.2,0.2,0.3,0.3c0.1,0.1,0.2,0.2,0.3,0.3
			c0.1,0.1,0.2,0.2,0.3,0.3c0.1,0.1,0.1,0.1,0.2,0.1v-1.3h0.7v2.9c0,0-0.1-0.1-0.2-0.1c-0.1-0.1-0.2-0.2-0.3-0.3
			c-0.1-0.1-0.2-0.2-0.3-0.3c-0.1-0.1-0.2-0.2-0.3-0.3c-0.1-0.1-0.2-0.2-0.3-0.2c-0.1-0.1-0.1-0.1-0.1-0.1v1.3H70z"/>
		<path class="st0" d="M75.2,12C75.2,12,75.2,12,75.2,12c-0.1,0.1-0.2,0.2-0.2,0.2c-0.1,0.1-0.1,0.1-0.2,0.2c0,0.1-0.1,0.1-0.1,0.1
			c0,0-0.1-0.1-0.1-0.1c0,0-0.1-0.1-0.1-0.1c0,0-0.1-0.1-0.2-0.1c-0.1,0-0.1,0-0.2,0c-0.1,0-0.2,0-0.3,0.1c-0.1,0-0.2,0.1-0.2,0.2
			c-0.1,0.1-0.1,0.2-0.2,0.2c0,0.1-0.1,0.2-0.1,0.3c0,0.1,0,0.2,0.1,0.3c0,0.1,0.1,0.2,0.2,0.2c0.1,0.1,0.1,0.1,0.2,0.2
			c0.1,0,0.2,0.1,0.3,0.1c0.1,0,0.2,0,0.3-0.1c0.1-0.1,0.2-0.1,0.3-0.2c0,0,0,0,0.1,0.1c0,0,0.1,0.1,0.2,0.2
			c0.1,0.1,0.1,0.1,0.2,0.2c0,0,0.1,0.1,0.1,0.1c0,0.1-0.1,0.1-0.2,0.2c-0.1,0.1-0.2,0.1-0.2,0.2c-0.1,0.1-0.2,0.1-0.3,0.1
			c-0.1,0-0.2,0.1-0.4,0.1c-0.2,0-0.4,0-0.6-0.1c-0.2-0.1-0.3-0.2-0.5-0.3c-0.1-0.1-0.2-0.3-0.3-0.5c-0.1-0.2-0.1-0.4-0.1-0.6
			c0-0.2,0-0.4,0.1-0.6c0.1-0.2,0.2-0.3,0.3-0.5c0.1-0.1,0.3-0.2,0.5-0.3c0.2-0.1,0.4-0.1,0.6-0.1c0.1,0,0.3,0,0.4,0
			c0.1,0,0.2,0.1,0.3,0.1c0.1,0,0.2,0.1,0.2,0.2C75.1,11.9,75.2,11.9,75.2,12z"/>
		<path class="st0" d="M75.5,14.4v-2.8h2.2v0.7h-1.5v0.4h1.2v0.7h-1.2v0.4h1.5v0.7H75.5z"/>
	</g>
	<g>
		<path class="st0" d="M50.3,9.1V3.7h2.9c0.2,0,0.5,0,0.7,0.1c0.2,0.1,0.4,0.2,0.6,0.4c0.2,0.2,0.3,0.4,0.4,0.6
			C54.9,5,55,5.3,55,5.6c0,0.2,0,0.4-0.1,0.5c-0.1,0.2-0.1,0.3-0.2,0.5c-0.1,0.1-0.2,0.3-0.3,0.4c-0.1,0.1-0.3,0.2-0.4,0.2
			c0,0,0.1,0.1,0.1,0.2c0.1,0.1,0.1,0.2,0.2,0.4c0.1,0.1,0.2,0.3,0.3,0.4s0.2,0.3,0.3,0.4C54.9,8.7,54.9,8.9,55,9
			c0.1,0.1,0.1,0.2,0.1,0.2h-1.7c0,0-0.1-0.1-0.1-0.2c-0.1-0.1-0.1-0.2-0.2-0.3C53,8.5,53,8.4,52.9,8.3c-0.1-0.1-0.2-0.3-0.2-0.4
			c-0.1-0.1-0.1-0.2-0.2-0.3c-0.1-0.1-0.1-0.2-0.1-0.2h-0.7v1.8H50.3z M51.7,6H53c0.1,0,0.3,0,0.4-0.1c0.1-0.1,0.2-0.2,0.2-0.4
			c0-0.2-0.1-0.3-0.2-0.4c-0.1-0.1-0.2-0.1-0.4-0.1h-1.4V6z"/>
		<path class="st0" d="M55.8,3.7h1.4v3.4c0,0.1,0,0.2,0.1,0.3c0,0.1,0.1,0.2,0.1,0.2s0.1,0.1,0.2,0.2c0.1,0,0.2,0.1,0.3,0.1
			c0.2,0,0.4-0.1,0.5-0.2c0.1-0.1,0.2-0.3,0.2-0.5V3.7h1.4v3.4c0,0.3-0.1,0.6-0.2,0.8c-0.1,0.3-0.3,0.5-0.4,0.7
			C59.3,8.8,59,9,58.8,9.1c-0.3,0.1-0.5,0.2-0.8,0.2c-0.3,0-0.6-0.1-0.8-0.2c-0.3-0.1-0.5-0.3-0.7-0.5c-0.2-0.2-0.3-0.4-0.5-0.7
			c-0.1-0.3-0.2-0.6-0.2-0.9V3.7z"/>
		<path class="st0" d="M62.9,9.3c-0.3,0-0.5,0-0.8-0.1c-0.2-0.1-0.4-0.2-0.6-0.4c-0.2-0.2-0.3-0.3-0.4-0.5C61,8,60.9,7.8,60.8,7.6
			c0,0,0.1,0,0.2,0c0.1,0,0.3-0.1,0.4-0.1c0.1,0,0.3-0.1,0.4-0.1c0.1,0,0.2,0,0.3-0.1c0.1,0.2,0.2,0.3,0.3,0.5C62.6,7.9,62.8,8,63,8
			c0.2,0,0.4-0.1,0.5-0.2c0.1-0.1,0.2-0.3,0.2-0.5c0,0-0.1,0-0.2-0.1c-0.1-0.1-0.3-0.1-0.5-0.2c-0.2-0.1-0.4-0.2-0.6-0.2
			c-0.2-0.1-0.4-0.2-0.6-0.2c-0.2-0.1-0.4-0.1-0.5-0.2c-0.2-0.1-0.2-0.1-0.3-0.1c0-0.1,0-0.1,0-0.2c0-0.1,0-0.2,0-0.3
			c0-0.3,0.1-0.6,0.2-0.8c0.1-0.3,0.3-0.5,0.4-0.7s0.4-0.4,0.7-0.5c0.3-0.1,0.5-0.2,0.9-0.2c0.3,0,0.5,0,0.8,0.1
			c0.2,0.1,0.4,0.2,0.6,0.4c0.2,0.2,0.3,0.3,0.5,0.5C64.9,4.8,65,5,65,5.3c0,0-0.1,0-0.2,0.1s-0.2,0.1-0.4,0.1
			c-0.1,0-0.3,0.1-0.4,0.1c-0.1,0-0.2,0-0.3,0.1c0-0.2-0.1-0.4-0.3-0.5c-0.1-0.1-0.3-0.2-0.5-0.2c-0.2,0-0.4,0.1-0.5,0.2
			c-0.1,0.1-0.2,0.3-0.2,0.4c0,0,0.1,0,0.3,0.1c0.1,0.1,0.3,0.1,0.5,0.2c0.2,0.1,0.4,0.2,0.6,0.2c0.2,0.1,0.4,0.2,0.6,0.2
			c0.2,0.1,0.4,0.1,0.5,0.2C64.9,6.5,65,6.5,65,6.6c0,0.1,0,0.1,0,0.3c0,0.1,0,0.2,0,0.3c0,0.3-0.1,0.6-0.2,0.8
			c-0.1,0.3-0.3,0.5-0.5,0.7S64,9,63.8,9.1C63.5,9.2,63.2,9.3,62.9,9.3z"/>
		<path class="st0" d="M67.6,9.3c-0.3,0-0.5,0-0.8-0.1c-0.2-0.1-0.4-0.2-0.6-0.4c-0.2-0.2-0.3-0.3-0.4-0.5c-0.1-0.2-0.2-0.4-0.2-0.6
			c0,0,0.1,0,0.2,0c0.1,0,0.3-0.1,0.4-0.1c0.1,0,0.3-0.1,0.4-0.1c0.1,0,0.2,0,0.3-0.1c0.1,0.2,0.2,0.3,0.3,0.5
			C67.3,7.9,67.5,8,67.7,8c0.2,0,0.4-0.1,0.5-0.2c0.1-0.1,0.2-0.3,0.2-0.5c0,0-0.1,0-0.2-0.1c-0.1-0.1-0.3-0.1-0.5-0.2
			C67.5,7,67.3,6.9,67,6.8c-0.2-0.1-0.4-0.2-0.6-0.2c-0.2-0.1-0.4-0.1-0.5-0.2c-0.2-0.1-0.2-0.1-0.3-0.1c0-0.1,0-0.1,0-0.2
			c0-0.1,0-0.2,0-0.3c0-0.3,0.1-0.6,0.2-0.8c0.1-0.3,0.3-0.5,0.4-0.7c0.2-0.2,0.4-0.4,0.7-0.5c0.3-0.1,0.5-0.2,0.9-0.2
			c0.3,0,0.5,0,0.8,0.1c0.2,0.1,0.4,0.2,0.6,0.4c0.2,0.2,0.3,0.3,0.5,0.5c0.1,0.2,0.2,0.4,0.3,0.6c0,0-0.1,0-0.2,0.1
			s-0.2,0.1-0.4,0.1c-0.1,0-0.3,0.1-0.4,0.1c-0.1,0-0.2,0-0.3,0.1c0-0.2-0.1-0.4-0.3-0.5c-0.1-0.1-0.3-0.2-0.5-0.2
			c-0.2,0-0.4,0.1-0.5,0.2C67,5.2,67,5.3,66.9,5.5c0,0,0.1,0,0.3,0.1c0.1,0.1,0.3,0.1,0.5,0.2c0.2,0.1,0.4,0.2,0.6,0.2
			c0.2,0.1,0.4,0.2,0.6,0.2c0.2,0.1,0.4,0.1,0.5,0.2c0.1,0.1,0.2,0.1,0.2,0.1c0,0.1,0,0.1,0,0.3c0,0.1,0,0.2,0,0.3
			c0,0.3-0.1,0.6-0.2,0.8c-0.1,0.3-0.3,0.5-0.5,0.7C69,8.9,68.8,9,68.5,9.1C68.2,9.2,67.9,9.3,67.6,9.3z"/>
		<path class="st0" d="M70.6,9.1V3.7H72v5.4H70.6z"/>
		<path class="st0" d="M74.3,8.4c0,0.1-0.1,0.2-0.1,0.3c0,0.1-0.1,0.2-0.1,0.3c0,0.1-0.1,0.1-0.1,0.2h-1.5c0,0,0-0.1,0.1-0.3
			c0.1-0.2,0.1-0.4,0.2-0.6C73,8,73.1,7.7,73.2,7.4c0.1-0.3,0.2-0.6,0.3-1c0.1-0.3,0.2-0.7,0.4-1c0.1-0.3,0.2-0.6,0.3-0.9
			c0.1-0.3,0.2-0.5,0.2-0.6c0.1-0.2,0.1-0.2,0.1-0.3H76c0,0,0,0.1,0.1,0.3c0.1,0.2,0.1,0.4,0.2,0.6c0.1,0.3,0.2,0.5,0.3,0.9
			c0.1,0.3,0.2,0.6,0.4,1c0.1,0.3,0.2,0.7,0.4,1c0.1,0.3,0.2,0.6,0.3,0.9c0.1,0.3,0.2,0.5,0.2,0.6C78,9,78,9.1,78,9.1h-1.5
			c0,0,0-0.1-0.1-0.2c0-0.1-0.1-0.2-0.1-0.3c0-0.1-0.1-0.2-0.1-0.3c0-0.1-0.1-0.1-0.1-0.2h-1.8C74.4,8.3,74.4,8.3,74.3,8.4z
			 M75.6,6.7c0-0.1-0.1-0.2-0.1-0.4c0-0.1-0.1-0.3-0.1-0.4c0-0.1-0.1-0.2-0.1-0.2c0,0,0,0.1-0.1,0.2c0,0.1-0.1,0.2-0.1,0.4
			c0,0.1-0.1,0.3-0.1,0.4c0,0.1-0.1,0.2-0.1,0.2h0.8C75.7,6.9,75.7,6.8,75.6,6.7z"/>
	</g>
	<g>
		<path class="st0" d="M17.7,0c0,0-0.1,0-0.1,0c-0.1,0-0.1,0-0.2,0c-0.1,0-0.1,0-0.2,0c0,0-0.1,0-0.1,0c-0.1,0-0.1,0-0.2,0.1
			c-0.5,0.2-1,0.5-1.4,0.9c-0.1,0.1-0.2,0.2-0.3,0.3c-0.5,0.6-0.7,1.4-0.7,2.1c0-0.3,0.2-1.6,1.2-2.2c0.8-0.5,1.5-0.1,1.9,0.4
			L18,2.1l0,0l0,0l0.8,0.8l0,0c0,0,0,0,0.1,0.1c0.2,0.2,0.8,0.6,2,0.2c1.2-0.4,2.1,0.4,2.5,0.7L20.5,1C19.8,0.4,19,0,18,0
			C17.9,0,17.8,0,17.7,0z"/>
		<path class="st0" d="M23.4,3.9l0.2,0.2C23.6,4.1,23.5,4,23.4,3.9z"/>
		<polygon class="st0" points="23.6,4.1 23.6,4.1 23.6,4.1 		"/>
		<path class="st0" d="M28.3,13.1C28.3,13.1,28.3,13,28.3,13.1C28.3,13,28.3,13.1,28.3,13.1z"/>
		<path class="st0" d="M40.9,3.9C40.9,3.9,40.9,3.9,40.9,3.9L40.9,3.9c-0.1,0-0.2,0-0.3,0c0,0-0.1,0-0.1,0c-1,0.2-1.6,0.9-1.9,1.2
			c-0.1,0.1-0.1,0.1-0.2,0.2l0,0c0,0-0.1,0.1-0.1,0.1c-0.1,0.1-0.2,0.2-0.3,0.3c-0.1-0.1-0.1-0.1-0.2-0.2c-0.1-0.1-0.1-0.1-0.2-0.2
			l0,0c-0.1-0.1-0.2-0.1-0.2-0.2c-0.4-0.4-1.2-1.2-2.5-1.2c0,0-0.1,0-0.1,0c0,0-0.1,0-0.1,0c0,0-0.1,0-0.1,0l0,0c0,0,0,0,0,0
			c0,0,0,0,0,0c0,0,0,0-0.1,0c0,0,0,0,0,0c-1.1,0.2-2,1-2,1c-0.1,0.1-0.2,0.1-0.2,0.2l0,0c-0.1,0-0.1,0.1-0.2,0.1
			c-0.1,0.1-0.2,0.2-0.3,0.3c-0.1-0.1-0.2-0.2-0.2-0.2c-0.1-0.1-0.1-0.1-0.2-0.2l0,0c-0.1-0.1-0.2-0.1-0.2-0.2
			c-0.4-0.4-1.2-1.2-2.5-1.2c0,0-0.1,0-0.1,0c0,0-0.1,0-0.1,0c0.2,0,1.2-0.1,0,0c-0.1,0-0.1,0-0.2,0c0,0,0,0,0,0
			c-1.2,0.2-2,1.1-2,1.1c-0.1,0.1-0.2,0.1-0.2,0.2l0,0c-0.1,0-0.1,0.1-0.2,0.2c-0.1,0.1-0.2,0.2-0.3,0.3c-0.1-0.1-0.2-0.2-0.3-0.3
			C25.1,5.6,25,5.5,25,5.5l0,0c-0.1-0.1-0.2-0.1-0.2-0.2c-0.4-0.4-1.2-1.2-2.5-1.2c0,0-0.1,0-0.1,0c0,0,0,0,0,0
			c-0.7,0-1.2,0.3-1.2,0.3l0,0c-0.5,0.2-0.8,0.6-1.1,0.9c-0.1,0.1-0.2,0.1-0.2,0.2c-0.1,0-0.1,0.1-0.2,0.2c-0.1,0.1-0.2,0.2-0.3,0.3
			c0,0-0.1-0.1-0.1-0.1c-0.1-0.1-0.1-0.1-0.2-0.2l0,0c-0.1-0.1-0.2-0.1-0.2-0.2c-0.1-0.1-0.2-0.2-0.3-0.3l-0.1-0.1
			c-0.7-0.7-1.5-1-2.5-1c-0.9,0-1.8,0.4-2.5,1c-0.2,0.2-0.3,0.4-0.5,0.6c0,0,0,0,0,0c0,0,0,0,0,0c0,0,0,0.1-0.1,0.1c0,0,0,0,0,0
			c0,0-0.1-0.1-0.1-0.1c-0.1-0.1-0.1-0.1-0.2-0.2l0,0c-0.1-0.1-0.2-0.1-0.2-0.2c-0.1-0.1-0.2-0.2-0.3-0.3l-0.1-0.1
			c-0.7-0.7-1.5-1-2.5-1c-0.9,0-1.8,0.4-2.5,1C6.8,5.3,6.7,5.5,6.5,5.7c0,0,0,0,0,0c0,0,0,0,0,0c0,0,0,0.1-0.1,0.1c0,0,0,0,0,0
			c0,0-0.1-0.1-0.1-0.1C6.3,5.8,6.2,5.7,6.2,5.7l0,0C6.1,5.6,6,5.5,5.9,5.4C5.9,5.4,5.8,5.3,5.7,5.2L5.6,5.1c-0.7-0.7-1.5-1-2.5-1
			c-0.9,0-1.8,0.4-2.5,1C0.4,5.4,0.2,5.7,0,6.1c1.2-2,2.3-0.7,2.3-0.7L4,7c0.3,0.3,0.6,0.6,1,1c0.3,0.3,0.6,0.6,1,1v0
			c0.9,0.9,1.7,1.7,2.3,2.3c0.6,0.6,1.2,1.2,1.7,1.7c1.3,1.3,2.3,1.6,3.3,1.4v0c0,0,1.1-0.2,1.7-0.8c0,0,0.1-0.1,0.1-0.1
			c0,0,0,0,0,0l0,0c0,0,0,0,0,0c0.1-0.1,0.4-0.4,0.8-0.8c0.1,0.1,0.3,0.3,0.4,0.4c1.3,1.3,2.3,1.6,3.3,1.4v0c0,0,0.8-0.1,1.4-0.5
			c0.2-0.1,0.3-0.2,0.4-0.3l0.9-0.9c0.1,0.1,0.2,0.3,0.4,0.4c1.1,1.1,2.1,1.5,2.9,1.4l0,0c0,0,1,0,2-0.7h0c0.2-0.2,0.4-0.3,0.4-0.3
			l0.7-0.7l0,0c0.1,0.1,0.2,0.2,0.3,0.3c1.3,1.3,2.3,1.5,3.3,1.4v0c0,0,0.1,0,0.2,0v0c0,0,1.1-0.2,1.8-0.9c0.1,0,0.1-0.1,0.1-0.1
			l0.6-0.6c0.1,0.1,0.2,0.2,0.3,0.3c1.3,1.3,2.3,1.5,3.3,1.4v0c0,0,1.1-0.2,1.7-0.8c0.1,0,0.1-0.1,0.2-0.2c0.1-0.1,0.4-0.4,0.8-0.8
			c0.1,0.1,0.3,0.3,0.4,0.4c0.1,0.1,0.2,0.2,0.4,0.3l0.1,0.1c0.4,0.4,1,0.7,1.6,0.9c0.1,0,0.1,0,0.2,0c0,0,0.1,0,0.1,0
			c0.1,0,0.1,0,0.2,0c0.2,0,0.3,0,0.5,0c0.1,0,0.2,0,0.3,0c0,0,0.1,0,0.1,0c0.1,0,0.1,0,0.2,0c0.1,0,0.1,0,0.2,0c0,0,0.1,0,0.1,0
			c0.1,0,0.1,0,0.2-0.1c0.5-0.2,1-0.5,1.4-0.9c0.1-0.1,0.2-0.2,0.3-0.3c0.5-0.6,0.7-1.4,0.7-2.1c0,0.3-0.2,1.6-1.2,2.2
			c-0.8,0.5-1.5,0.1-1.9-0.4l-0.4-0.4l0,0l0,0l-0.8-0.8l0,0l-0.1-0.1c0,0,0,0-0.1-0.1c-0.9-0.9-1.8-1.8-2.7-2.7
			c-0.3-0.3-0.6-0.6-0.9-0.9c0.5-0.5,1-0.9,1.4-1.4l0.2-0.2L42.2,7l0,0l0.1,0.1c0.2,0.2,0.8,0.6,2,0.2c1.2-0.4,2.1,0.4,2.5,0.7
			l-2.5-2.5L43.7,5c-0.1-0.1-0.6-0.6-1.2-0.8c-0.1,0-0.2-0.1-0.3-0.1c0,0,0,0,0,0C42,4,41.7,3.9,41.4,3.9l0,0c-0.1,0-0.1,0-0.2,0
			l0,0C41.1,3.9,41,3.9,40.9,3.9z M32.1,5.8c0.3-0.3,0.8-0.6,1.3-0.5c0,0,0,0,0,0c0,0,0,0,0,0c0.3,0.1,0.6,0.2,1,0.6
			c0.1,0.1,0.2,0.2,0.4,0.4c-0.4,0.4-0.9,0.9-1.4,1.4c-0.6-0.6-1.2-1.2-1.6-1.6l0,0l0,0C31.9,6,32,5.9,32.1,5.8z M16.5,6.9L16.7,7
			c0.2,0.2,0.4,0.4,0.7,0.7c-0.4,0.4-0.8,0.8-1,1c-0.1,0.1-0.2,0.2-0.4,0.4l-0.6-0.6c-0.1-0.1-0.2-0.2-0.3-0.3c-0.4-0.4-0.4-1,0-1.4
			c0.2-0.2,0.4-0.3,0.7-0.3C16,6.6,16.3,6.7,16.5,6.9L16.5,6.9L16.5,6.9z M22.6,8.7c-0.1,0.1-0.2,0.2-0.4,0.4
			C22.1,9,22,8.9,21.9,8.8c-0.3-0.3-0.7-0.7-1-1c0.5-0.5,1-0.9,1.4-1.4c0.4,0.4,0.9,0.9,1.3,1.3C23.2,8.1,22.8,8.5,22.6,8.7z
			 M23.7,7.8C23.8,7.8,23.8,7.8,23.7,7.8c0.6,0.6,1.1,1.1,1.6,1.6c-0.5,0.5-1,1-1.4,1.4c-0.5-0.5-1.1-1.1-1.6-1.6
			c0.1-0.1,0.2-0.2,0.4-0.4C22.9,8.6,23.3,8.2,23.7,7.8z M16.4,8.8c0.3-0.3,0.6-0.6,1-1c0.1,0.1,0.2,0.2,0.2,0.2
			c0.1,0.1,0.3,0.3,0.4,0.4l0,0c0.4,0.4,0.7,0.7,1.1,1.1c-0.5,0.5-1,1-1.4,1.4c-0.5-0.5-1.1-1.1-1.6-1.6L16,9.2
			C16.1,9,16.2,8.9,16.4,8.8z M19.2,9.5c0.5,0.5,0.9,0.9,1.3,1.3c-0.5,0.5-0.9,0.9-1.4,1.4c-0.4-0.4-0.9-0.9-1.3-1.3
			C18.2,10.5,18.7,10,19.2,9.5z M25.5,9.5c0.4,0.4,0.9,0.9,1.3,1.3c-0.5,0.5-0.9,0.9-1.4,1.4c-0.4-0.4-0.8-0.8-1.3-1.3
			C24.5,10.5,25,10,25.5,9.5z M31.9,9.6c0.4,0.4,0.8,0.8,1.2,1.2c-0.5,0.5-0.9,0.9-1.4,1.4c-0.4-0.4-0.8-0.8-1.2-1.2
			C30.9,10.6,31.4,10.1,31.9,9.6z M30.3,10.8c-0.5-0.5-1.1-1.1-1.6-1.6c0.1-0.1,0.3-0.3,0.4-0.4c0.2-0.2,0.6-0.6,1-1c0,0,0,0,0,0
			c0.5,0.5,1.1,1.1,1.6,1.6C31.2,9.9,30.7,10.4,30.3,10.8z M28.9,8.7c-0.1,0.1-0.2,0.2-0.4,0.4c-0.1-0.1-0.2-0.2-0.3-0.3
			c-0.3-0.3-0.6-0.6-1-1c0.5-0.5,1-0.9,1.4-1.4c0.4,0.4,0.8,0.8,1.3,1.3C29.5,8.1,29.1,8.5,28.9,8.7z M26.6,5.3c0.1,0,0.1,0,0.2,0
			c0,0,0.1,0,0.1,0c0.4,0,0.8,0.1,1.3,0.6c0.1,0.1,0.3,0.3,0.4,0.4c-0.4,0.4-0.9,0.9-1.4,1.4c-0.6-0.6-1.2-1.2-1.6-1.7
			c0,0,0,0,0.1-0.1C25.7,5.8,26.2,5.4,26.6,5.3z M19.2,6c0.1-0.1,0.1-0.1,0.1-0.1c0.2-0.2,0.7-0.5,1.2-0.5c0.4,0,0.8,0.1,1.3,0.6
			C22,6,22.1,6.2,22.3,6.3c-0.4,0.4-0.9,0.9-1.4,1.4c-0.3-0.3-0.7-0.7-1-1l0,0C19.6,6.4,19.3,6.2,19.2,6L19.2,6z M10.5,10L10.5,10
			L8.8,8.2c-0.4-0.4-0.4-1,0-1.4c0.2-0.2,0.4-0.3,0.7-0.3c0.3,0,0.5,0.1,0.7,0.3l0,0l0,0L10.3,7c0.3,0.3,0.6,0.6,1,1
			c0.3,0.3,0.6,0.6,0.9,0.9l0,0c0.7,0.7,1.4,1.4,2,2c-0.5,0.5-0.9,0.9-1.4,1.4C12.1,11.6,11.3,10.8,10.5,10z M15.5,13
			c-0.1,0.1-0.2,0.2-0.2,0.2c-0.1,0.1-0.2,0.2-0.3,0.3c0,0,0,0,0,0l0,0c0,0,0,0-0.1,0c-0.1,0-0.2,0.1-0.2,0.1c-0.2,0-0.5,0-0.7-0.2
			c-0.1-0.1-0.2-0.2-0.3-0.2c0,0,0,0-0.1-0.1c-0.2-0.2-0.5-0.5-0.8-0.8c0.5-0.5,0.9-0.9,1.4-1.4c0.1,0.1,0.3,0.3,0.4,0.4
			c0.4,0.4,0.9,0.9,1.3,1.3L15.5,13z M21.3,13.4C21.3,13.4,21.3,13.4,21.3,13.4C21.3,13.5,21.3,13.5,21.3,13.4L21.3,13.4
			c-0.1,0.1-0.1,0.1-0.1,0.1c-0.1,0-0.2,0.1-0.2,0.1c-0.2,0-0.5,0-0.7-0.2c-0.1-0.1-0.2-0.2-0.3-0.2c0,0,0,0-0.1-0.1
			c-0.2-0.2-0.5-0.5-0.7-0.7c0.5-0.5,0.9-0.9,1.4-1.4c0.1,0.1,0.2,0.2,0.4,0.4c0.4,0.4,0.8,0.8,1.2,1.2L21.3,13.4z M27.8,13.2
			c-0.2,0.2-0.5,0.4-0.8,0.3c0,0,0,0,0,0c0,0,0,0-0.1,0c0,0-0.1,0-0.1,0l0,0c-0.1,0-0.1-0.1-0.2-0.1c-0.1-0.1-0.2-0.2-0.3-0.2
			c0,0,0,0-0.1-0.1c-0.2-0.2-0.5-0.5-0.7-0.7c0.5-0.5,0.9-0.9,1.4-1.4c0.1,0.1,0.2,0.2,0.3,0.3c0.4,0.4,0.8,0.8,1.2,1.2L27.8,13.2z
			 M34.2,13.1c-0.5,0.5-0.8,0.5-0.9,0.5c-0.1,0-0.2-0.1-0.4-0.2c-0.1-0.1-0.2-0.2-0.3-0.2c0,0,0,0-0.1-0.1v0
			c-0.2-0.2-0.4-0.4-0.7-0.7c0.5-0.5,0.9-0.9,1.4-1.4c0.1,0.1,0.2,0.2,0.3,0.3c0.4,0.4,0.8,0.8,1.2,1.2L34.2,13.1z M39.9,11.3
			c0.4,0.4,0.9,0.9,1.3,1.3c-0.3,0.3-0.5,0.5-0.6,0.6c-0.1,0.1-0.2,0.2-0.3,0.3c0,0,0,0,0,0l0,0c0,0,0,0-0.1,0
			c-0.1,0-0.2,0.1-0.2,0.1c-0.2,0-0.5,0-0.7-0.2c-0.1-0.1-0.2-0.2-0.3-0.2c0,0,0,0-0.1-0.1v0c-0.6-0.6-1.3-1.3-2.1-2.1
			c0.4-0.4,0.9-0.9,1.4-1.4C38.8,10.2,39.4,10.8,39.9,11.3z M38,9.4c-0.5,0.5-1,1-1.4,1.4c-0.5-0.5-1-1-1.5-1.5
			c0.1-0.1,0.2-0.2,0.4-0.4c0.3-0.3,0.6-0.6,1-1C36.9,8.3,37.5,8.9,38,9.4z M35.2,8.7c-0.1,0.1-0.2,0.2-0.4,0.4
			c-0.1-0.1-0.2-0.2-0.3-0.3c-0.3-0.3-0.6-0.6-0.9-0.9c0.5-0.5,1-1,1.4-1.4c0.4,0.4,0.8,0.8,1.2,1.2C35.8,8,35.4,8.4,35.2,8.7z
			 M39.7,5.2c0.5,0,0.9,0.3,1.2,0.6l0.3,0.3l-0.2,0.2c-0.4,0.4-0.9,0.9-1.4,1.4c-0.6-0.6-1.1-1.1-1.5-1.5l0,0
			C38.2,6.1,38.9,5.2,39.7,5.2C39.7,5.2,39.7,5.2,39.7,5.2z"/>
	</g>
</g>
</svg>
