<svg id="Слой_2" data-name="Слой 2" xmlns="http://www.w3.org/2000/svg" xmlns:xlink="http://www.w3.org/1999/xlink" width="28.11mm" height="17.02mm" viewBox="0 0 79.68 48.23">
  <defs>
    <style>
      .cls-1 {
        fill: none;
      }

      .cls-2 {
        clip-path: url(#clip-path);
      }

      .cls-3 {
        fill: #fff;
      }
    </style>
    <clipPath id="clip-path">
      <rect class="cls-1" x="34.46" width="44.62" height="48.23"/>
    </clipPath>
  </defs>
  <title>_</title>
  <g>
    <g class="cls-2">
      <path class="cls-3" d="M74.46,23.86a40.16,40.16,0,0,0-2.16-4.75,0.93,0.93,0,0,0-.81-0.45H70.67a1,1,0,0,0-.9,1,0.82,0.82,0,0,0,.07.35,61.3,61.3,0,0,1,3.07,6.62c-0.23.41-.52,0.87-0.82,1.34a1,1,0,0,0-.12.46,1,1,0,0,0,1,1h0.78a1,1,0,0,0,.82-0.46,81.57,81.57,0,0,0,4.49-9,0.83,0.83,0,0,0,.06-0.31,1,1,0,0,0-.9-1H77.34a1,1,0,0,0-.86.53c-0.52,1.38-1.27,3.11-2,4.67"/>
    </g>
    <path class="cls-3" d="M61.95,24.91c-0.72-1.82-1.65-4-2.48-5.72a1,1,0,0,0-.86-0.53H56.83a1,1,0,0,0-.94.91v8.84a1,1,0,0,0,1,.93h0.48a1,1,0,0,0,1-.92V22.12c0.7,1.53,1.61,4,2.28,5.75a1,1,0,0,0,.85.59h0.71A1,1,0,0,0,63,27.84c0.7-1.77,1.67-4.12,2.39-5.72v6.29a1,1,0,0,0,1,.93h0.48a1,1,0,0,0,1-.9V19.53a1,1,0,0,0-.94-0.87H65.22a1,1,0,0,0-.86.53c-0.79,1.71-1.73,3.89-2.42,5.72"/>
    <g class="cls-2">
      <path class="cls-3" d="M52.62,29.34h0.72a1,1,0,0,0,1-1,0.74,0.74,0,0,0-.05-0.3c-1-2.61-2.21-6.09-3.08-8.89a0.93,0.93,0,0,0-.76-0.55H47.72a0.94,0.94,0,0,0-.78.56l0,0.07v0.07h0c-1,2.57-2.27,6-3.11,8.72a1.16,1.16,0,0,0,0,.31,1,1,0,0,0,.9,1h0.72a1,1,0,0,0,.83-0.57c0.15-.55.33-1.15,0.52-1.79h4.41c0.23,0.67.48,1.28,0.68,1.81a1,1,0,0,0,.82.55h0ZM49.14,20.8c0.31,1.13.78,2.59,1.27,4.05H47.34c0.49-1.49,1-2.93,1.41-4.05h0.4"/>
      <path class="cls-3" d="M36.93,24V20.77H39.6c0.67,0,1,.48,1,1.64S40.22,24,39.58,24H36.93Zm0,4.5V26h3.52c2,0,2.91-1.67,2.91-3.6,0-2.2-.74-3.75-2.92-3.75h-5a1,1,0,0,0-1,.83v9a1,1,0,0,0,1,.85H36a1,1,0,0,0,.94-0.86"/>
      <path class="cls-3" d="M35.7,35.63a1.24,1.24,0,0,1,1.24,1.24v7.19a1.24,1.24,0,1,1-2.48,0V36.88a1.25,1.25,0,0,1,1.24-1.24"/>
      <path class="cls-3" d="M35.7,12.38a1.24,1.24,0,0,0,1.24-1.24V1.24a1.24,1.24,0,1,0-2.48,0v9.9a1.25,1.25,0,0,0,1.24,1.24"/>
    </g>
    <path class="cls-3" d="M35.71,16.05a1.25,1.25,0,1,0-1.24-1.24,1.25,1.25,0,0,0,1.24,1.24"/>
    <path class="cls-3" d="M35.71,34.45a1.24,1.24,0,1,0-1.24-1.24,1.25,1.25,0,0,0,1.24,1.24"/>
    <path class="cls-3" d="M40.92,32a1.25,1.25,0,0,1,1.24,1.24V39a1.24,1.24,0,0,1-2.48,0v-5.8A1.25,1.25,0,0,1,40.92,32"/>
    <path class="cls-3" d="M40.92,16.05a1.25,1.25,0,0,0,1.24-1.24V5.58a1.24,1.24,0,0,0-2.48,0v9.23a1.25,1.25,0,0,0,1.24,1.24"/>
    <path class="cls-3" d="M40.92,3.22A1.24,1.24,0,1,0,39.68,2a1.24,1.24,0,0,0,1.24,1.24"/>
    <path class="cls-3" d="M40.92,43.92a1.24,1.24,0,1,0-1.24-1.24,1.24,1.24,0,0,0,1.24,1.24"/>
    <path class="cls-3" d="M46.15,35.63a1.25,1.25,0,0,1,1.24,1.24v3a1.24,1.24,0,0,1-2.48,0v-3a1.25,1.25,0,0,1,1.24-1.24"/>
    <path class="cls-3" d="M46.13,16.05a1.24,1.24,0,1,0-1.24-1.24,1.25,1.25,0,0,0,1.24,1.24"/>
    <path class="cls-3" d="M46.13,34.45a1.24,1.24,0,1,0-1.24-1.24,1.25,1.25,0,0,0,1.24,1.24"/>
    <path class="cls-3" d="M46.13,44.76a1.24,1.24,0,1,0-1.24-1.24,1.25,1.25,0,0,0,1.24,1.24"/>
    <path class="cls-3" d="M51.36,32a1.25,1.25,0,0,1,1.24,1.24V43.32a1.24,1.24,0,1,1-2.48,0V33.21A1.25,1.25,0,0,1,51.36,32"/>
    <g class="cls-2">
      <path class="cls-3" d="M51.36,16.05a1.25,1.25,0,0,0,1.24-1.24V4.69a1.24,1.24,0,0,0-2.48,0V14.81a1.25,1.25,0,0,0,1.24,1.24"/>
      <path class="cls-3" d="M51.36,48.23A1.24,1.24,0,1,0,50.11,47a1.25,1.25,0,0,0,1.24,1.24"/>
    </g>
    <path class="cls-3" d="M56.57,12.4a1.24,1.24,0,0,0,1.24-1.23V7.73a1.24,1.24,0,1,0-2.48,0v3.44a1.24,1.24,0,0,0,1.24,1.23"/>
    <path class="cls-3" d="M56.57,16.05a1.24,1.24,0,1,0-1.24-1.24,1.25,1.25,0,0,0,1.24,1.24"/>
    <path class="cls-3" d="M56.57,34.45a1.24,1.24,0,1,0-1.24-1.24,1.25,1.25,0,0,0,1.24,1.24"/>
    <path class="cls-3" d="M61.78,35.63A1.23,1.23,0,0,1,63,36.86v4.27a1.24,1.24,0,1,1-2.48,0V36.86a1.23,1.23,0,0,1,1.24-1.23"/>
    <path class="cls-3" d="M61.78,12.41A1.24,1.24,0,0,0,63,11.17V5.35a1.24,1.24,0,1,0-2.48,0v5.81a1.25,1.25,0,0,0,1.24,1.24"/>
    <path class="cls-3" d="M61.8,16.05a1.24,1.24,0,1,0-1.26-1.24,1.25,1.25,0,0,0,1.26,1.24"/>
    <path class="cls-3" d="M61.8,34.45a1.24,1.24,0,1,0-1.26-1.24,1.25,1.25,0,0,0,1.26,1.24"/>
    <path class="cls-3" d="M61.8,46a1.24,1.24,0,1,0-1.26-1.24A1.25,1.25,0,0,0,61.8,46"/>
    <path class="cls-3" d="M67,32a1.25,1.25,0,0,1,1.24,1.24v9.72a1.24,1.24,0,0,1-2.48,0V33.21A1.25,1.25,0,0,1,67,32"/>
    <path class="cls-3" d="M67,16.05a1.25,1.25,0,0,0,1.24-1.24V5.09a1.24,1.24,0,0,0-2.48,0v9.72A1.25,1.25,0,0,0,67,16.05"/>
    <path class="cls-3" d="M67,2.66a1.24,1.24,0,1,0-1.24-1.24A1.25,1.25,0,0,0,67,2.66"/>
    <path class="cls-3" d="M67,47.84a1.24,1.24,0,1,0-1.24-1.24A1.25,1.25,0,0,0,67,47.84"/>
    <path class="cls-3" d="M72.22,32a1.25,1.25,0,0,1,1.24,1.24v3a1.24,1.24,0,0,1-2.48,0v-3A1.25,1.25,0,0,1,72.22,32"/>
    <path class="cls-3" d="M72.22,16.08a1.23,1.23,0,0,0,1.24-1.23v-3a1.24,1.24,0,1,0-2.48,0v3a1.24,1.24,0,0,0,1.24,1.23"/>
    <path class="cls-3" d="M72.22,9.5A1.24,1.24,0,1,0,71,8.26,1.25,1.25,0,0,0,72.22,9.5"/>
    <path class="cls-3" d="M72.22,41.08A1.24,1.24,0,1,0,71,39.84a1.24,1.24,0,0,0,1.24,1.24"/>
    <path class="cls-3" d="M77.44,35.65a1.25,1.25,0,0,1,1.24,1.24v5.77a1.24,1.24,0,0,1-2.48,0V36.9a1.25,1.25,0,0,1,1.24-1.24"/>
    <path class="cls-3" d="M77.44,12.38a1.25,1.25,0,0,0,1.24-1.24V5.38a1.24,1.24,0,0,0-2.48,0v5.76a1.25,1.25,0,0,0,1.24,1.24"/>
    <path class="cls-3" d="M77.44,16.05a1.24,1.24,0,1,0-1.24-1.24,1.25,1.25,0,0,0,1.24,1.24"/>
    <path class="cls-3" d="M77.44,3A1.24,1.24,0,1,0,76.2,1.71,1.25,1.25,0,0,0,77.44,3"/>
    <path class="cls-3" d="M77.44,34.45a1.24,1.24,0,1,0-1.24-1.24,1.25,1.25,0,0,0,1.24,1.24"/>
    <path class="cls-3" d="M77.44,47.58a1.24,1.24,0,1,0-1.24-1.24,1.25,1.25,0,0,0,1.24,1.24"/>
  </g>
</svg>
