<svg id="Слой_2" data-name="Слой 2" xmlns="http://www.w3.org/2000/svg" width="28.06mm" height="18.66mm" viewBox="0 0 79.54 52.91">
  <defs>
    <style>
      .cls-1 {
        fill: #fff;
      }
    </style>
  </defs>
  <title>шаблон</title>
  <g id="perrier">
    <path class="cls-1" d="M55,5.36a2.28,2.28,0,0,0,2.2-2.61A2.82,2.82,0,0,0,54.67,0a2.29,2.29,0,0,0-2.2,2.62A2.8,2.8,0,0,0,55,5.36"/>
    <path class="cls-1" d="M28.35,13.49c-0.17-2.87-1.67-5.87-5.54-4.77-3.37,1-4.7,4.61-4.67,9.54,0,1,0,4.55.11,6.35,0.27,3.93,2,6.86,5.71,5.73,2.86-.86,4.14-3,4.4-6.7,0.06-.88.08-1.25,0.08-2.4l-3.75,1.46v1.77c0,1-.09,2.57-1.12,2.74s-1.21-.8-1.21-1.87c0-.36,0-3.18,0-3.56l6.06-2.33c0-1.8.08-4,0-6m-3.89,4.62-2.09.83c0-1.59,0-4.68,0-5.55a1.43,1.43,0,0,1,1.41-1.68c0.52,0,.69.4,0.69,1.26s0,3.85,0,5.14"/>
    <path class="cls-1" d="M65.45,23.65l0.06,2.17c0,0.38.26,2.4-1.08,2s-1.23-2-1.26-3.05c0,0-.1-4-0.11-4.06l5.87,2.59c0-1.74-.19-4.56-0.33-6.6-0.29-3.89-1.45-6.56-4.35-7.42-3.33-1-5.24,1.37-5.47,5.47-0.07,1.29,0,6.2.16,7.91,0.46,5.4,2.31,7.57,5.17,8.43,3.17,0.95,4.75-.37,4.82-4,0-.31,0-1.47,0-1.81ZM63,14.57c-0.06-2,.14-2.72.89-2.43,1.12,0.42,1.07,2,1.11,3.11,0,0.22.08,3.15,0.09,3.39l-2-.91c0-.27-0.05-2.89-0.06-3.16"/>
    <path class="cls-1" d="M34.37,9.52L33.92,6.81A33.91,33.91,0,0,0,28.9,8v2.19c1.38-.31,1.87,0,1.87,1.89v11.3c0,2.11-.3,2.22-1.63,2.85v2A65.73,65.73,0,0,1,37.37,27v-2.1c-2.28-.06-2.55-0.6-2.55-2V11.36c1.2-.83,1.91-0.16,2.65,5.06l1.8-.82V6.26c-3,.05-3.56.68-4.89,3.26"/>
    <path class="cls-1" d="M56.83,23.12V7.81a38.11,38.11,0,0,0-5.24-.94V9.29c1.08,0.07,1.11.15,1.14,2V22.7c0,1.82,0,2.33-1.8,2.48v2.05a72.22,72.22,0,0,1,7.48,1.29v-2c-1.37-.8-1.58-0.91-1.58-3.37"/>
    <path class="cls-1" d="M15.86,27.76s0-12.46,0-12.65c0-1.52.55-1.89,1.76-1.66A5.41,5.41,0,0,0,15.76,9C16,10.5,15.26,11,14.77,11a1,1,0,0,1-.9-1.09,2.68,2.68,0,0,1,.81-1.82C12.46,6.5,9.7,6.54,6.49,11c1.66,0.86,1.36,2.19.78,2.67s-1.85.08-1.75-1.78a28.34,28.34,0,0,0-2.85,5l1,1.36a10,10,0,0,1,1.75-1.21V44.43c-0.6.89-1.3,0.59-1.42-.48-0.06-.49-0.3-0.49-0.68.16C1.89,46.66,3.14,49,5.54,48.7c0,1.52-.3,2.5-1.61,2.85-0.58.16-.42,0.35,0,0.61a3.77,3.77,0,0,0,2.27.74,3.27,3.27,0,0,0,3.26-3.42c2.29,0,3.64-2.94,2.51-5.16-0.3-.59-0.48-0.5-0.61,0a1.15,1.15,0,0,1-1.76.87V35.48a2.4,2.4,0,0,0,1.85.61,4.4,4.4,0,0,0,4.23-4.37c0.23-.2,1.08,0,1.43,1.09,0.13,0.42.42,0.5,0.61-.16,0.62-2.15-.07-4.27-1.82-4.91m-4.05,1.78c0,0.7-.13,2.55-1.44,2.55a1.25,1.25,0,0,1-.81-0.22V16.12a1.7,1.7,0,0,1,1.48-2,0.84,0.84,0,0,1,.78.42v15Z"/>
    <path class="cls-1" d="M45.48,8.95L45,6.2a45.7,45.7,0,0,0-4.7.29V8.82c1.24-.17,1.5.14,1.51,1.83,0,1.34,0,10.69,0,11.23,0,2.35-.11,2.5-2,3,0,0,0,2,0,2a58.82,58.82,0,0,1,8.49.1V24.92c-2.25-.53-2.44-0.57-2.47-2.83,0-.43,0-10.87,0-11.26,1.47-.83,2,1.11,2.74,5.57l1.83-.95V6.65c-2.42-.42-3.17-0.45-5,2.3"/>
    <path class="cls-1" d="M77.31,24.85L79,24l-0.09-8.08c-1.91-1.1-2.54-1-4.27.93l-0.4-3.12a39.8,39.8,0,0,0-4.88-2v2.54c1.22,0.52,1.51,1,1.56,2.46,0,0,0,10.14,0,11.24,0.08,2.44-.33,2.32-1.6,1.91v2.27c2.62,1.07,4.42,1.88,7.08,3.2V33C75.1,31.79,75,31.62,75,30V18.92c1.62-.44,1.77,1.47,2.35,5.93"/>
    <path class="cls-1" d="M78.17,26.33a1.38,1.38,0,0,0-1.37,1.39h0a1.37,1.37,0,1,0,2.74,0h0a1.37,1.37,0,0,0-1.37-1.38m1.17,1.39a1.18,1.18,0,0,1-1.17,1.19A1.16,1.16,0,0,1,77,27.73h0a1.17,1.17,0,1,1,2.34,0h0Z"/>
    <path class="cls-1" d="M78.82,27.46A0.47,0.47,0,0,0,78.27,27H77.63v1.38H78V27.95h0.21l0.3,0.43h0.4l-0.35-.5a0.42,0.42,0,0,0,.3-0.43m-0.58.21H78V27.29h0.29a0.19,0.19,0,1,1,0,.38"/>
  </g>
</svg>
