<?xml version="1.0" encoding="utf-8"?>
<!-- Generator: Adobe Illustrator 21.1.0, SVG Export Plug-In . SVG Version: 6.00 Build 0)  -->
<svg version="1.1" id="Layer_1" xmlns="http://www.w3.org/2000/svg" xmlns:xlink="http://www.w3.org/1999/xlink" x="0px" y="0px"
	 viewBox="0 0 86.4 8.6" style="enable-background:new 0 0 86.4 8.6;" xml:space="preserve">
<style type="text/css">
	.st0{display:none;}
	.st1{fill:#FFFFFF;}
	.st2{fill-rule:evenodd;clip-rule:evenodd;fill:#FFFFFF;}
</style>
<polyline class="st0" points="62.2,219.6 -120.2,219.6 -120.2,-808.1 250.1,-808.1 250.1,219.6 62.2,219.6 "/>
<g>
	<g>
		<path class="st1" d="M59.3,6.7L59.2,7l0,0.2l0,0.1l-0.1,0.2c0,0.1,0,0.1-0.1,0.1c0,0,0,0.1,0,0.1c-0.1,0.4-0.4,0.6-0.8,0.7
			c-0.2,0.1-0.3,0.1-0.4,0.1c-0.1,0-0.2,0-0.3,0c-0.1,0-0.2,0-0.4,0h-1.8l0.1-0.5h1.9c0.4,0,0.6,0,0.7-0.1c0.1-0.1,0.2-0.3,0.3-0.5
			l0.1-0.3h-1c-0.5,0-0.8,0-0.9,0c-0.2,0-0.3-0.1-0.5-0.2c-0.5-0.3-0.6-1-0.4-1.9c0.2-0.7,0.5-1.3,1-1.8c0.2-0.2,0.5-0.4,0.7-0.4
			c0.3-0.1,0.6-0.1,1.1-0.1h1.7L59.3,6.7z M58.6,6.6l0.8-3.3h-1c-0.4,0-0.7,0-0.9,0.1c-0.2,0.1-0.4,0.2-0.5,0.4
			c-0.1,0.1-0.2,0.3-0.3,0.5c-0.1,0.2-0.2,0.5-0.2,0.7c-0.1,0.5-0.1,0.9,0.1,1.2c0.1,0.1,0.2,0.2,0.3,0.3c0.1,0.1,0.4,0.1,0.6,0.1
			H58.6z"/>
		<path class="st1" d="M62.6,1.8h-0.7L62,1h0.7L62.6,1.8z M61.3,7.2h-0.7l1-4.4h0.7L61.3,7.2z"/>
		<path class="st1" d="M66.5,1.6h-0.7c-0.3,0-0.5,0.1-0.7,0.2C65.1,1.8,65,2,64.9,2.4l-0.1,0.4h1.4l-0.1,0.5h-1.4l-0.9,3.9h-0.7
			L64,3.3h-0.8l0.1-0.5h0.8l0.1-0.3c0.1-0.5,0.3-0.8,0.6-1.1C65,1.1,65.4,1,65.8,1h0.8L66.5,1.6z"/>
		<path class="st1" d="M68.4,7.2h-0.8c-0.1,0-0.2,0-0.3,0c-0.1,0-0.2,0-0.2,0c-0.1,0-0.1,0-0.2-0.1c-0.1,0-0.1-0.1-0.2-0.2
			c-0.1-0.1-0.1-0.2-0.1-0.4c0-0.2,0-0.4,0.1-0.7l0.6-2.6h-0.8l0.1-0.5h0.8L67.9,1h0.7l-0.4,1.7h1.3l-0.1,0.5h-1.3l-0.6,2.5
			c-0.1,0.4-0.1,0.6,0,0.7c0.1,0.1,0.3,0.1,0.7,0.1h0.4L68.4,7.2z"/>
		<path class="st1" d="M73.4,5.9c-0.1,0.6-0.4,1-0.8,1.2c-0.1,0.1-0.2,0.1-0.4,0.1c-0.2,0-0.4,0-0.7,0h-2.2l0.1-0.5h2
			c0.4,0,0.7,0,0.8-0.1c0.2-0.1,0.3-0.3,0.4-0.6c0.1-0.3,0-0.5-0.2-0.6c-0.1,0-0.2,0-0.3,0c-0.1,0-0.2,0-0.4,0h-0.4
			c-0.5,0-0.8,0-0.9,0c-0.1,0-0.3-0.1-0.4-0.2C70,4.9,70,4.8,69.9,4.6c0-0.2,0-0.4,0-0.6c0.1-0.3,0.2-0.5,0.3-0.7
			c0.1-0.2,0.3-0.3,0.5-0.4c0.2-0.1,0.6-0.2,1-0.2h2.1l-0.1,0.5h-1.9c-0.3,0-0.6,0-0.7,0c-0.1,0-0.2,0.1-0.3,0.2
			c-0.1,0.1-0.2,0.3-0.3,0.6c-0.1,0.3,0,0.4,0.1,0.5c0.1,0.1,0.3,0.1,0.8,0.1h0.6c0.3,0,0.5,0,0.7,0c0.2,0,0.4,0,0.5,0.1
			C73.5,5,73.5,5.3,73.4,5.9z"/>
		<path class="st1" d="M74.9,7.1h-0.8l0.2-0.9h0.8L74.9,7.1z"/>
		<path class="st1" d="M80.3,3.3h-1.5c-0.5,0-0.8,0.1-0.9,0.2c-0.2,0.1-0.3,0.4-0.4,0.9l-0.7,2.8h-0.7l0.7-2.8
			c0.1-0.6,0.3-1,0.6-1.2c0.3-0.3,0.8-0.4,1.4-0.4h1.7L80.3,3.3z"/>
		<path class="st1" d="M84.1,7.2h-1.8c-0.5,0-0.8,0-1-0.1C81,7,80.9,6.8,80.8,6.6c0-0.1-0.1-0.3-0.1-0.5c0-0.2,0-0.4,0.1-0.7
			l0.6-2.6h0.7l-0.6,2.6c-0.1,0.3-0.1,0.4-0.1,0.6c0,0.1,0,0.2,0,0.3c0.1,0.3,0.4,0.4,0.9,0.4h1.1l0.9-3.9h0.7L84.1,7.2z"/>
	</g>
	<g>
		<path class="st1" d="M18.8,2.7l-4,0c-0.7,0-0.8,0.2-1,0.7c-0.2,0.7-0.5,1.9-0.7,2.7c-0.2,0.7,0.1,0.9,0.7,0.9l3.8,0
			c0.6,0,0.9-0.1,1.1-1l0.6-2.5C19.6,3.2,19.5,2.7,18.8,2.7z M18.3,3.7C18.2,4,17.7,6,17.7,6c-0.1,0.5-0.2,0.6-0.6,0.6h-2.4
			c-0.3,0-0.4-0.1-0.3-0.5c0.1-0.4,0.5-1.8,0.6-2.3c0.1-0.4,0.2-0.4,0.5-0.4c0.3,0,2.2,0,2.6,0C18.3,3.3,18.4,3.4,18.3,3.7z"/>
		<path class="st1" d="M5.1,7.1l1.2,0c0.2-0.7,0.9-3.4,0.9-3.4C7.2,3.3,7,2.8,6.2,2.8l-3.4,0c-1,0-1.2,0.3-1.4,1
			C1.3,4.4,0.7,6.4,0.5,7.1l1.2,0C1.9,6.4,2.5,4.2,2.5,4C2.7,3.5,2.7,3.3,3,3.3c0.5,0,2.7,0,2.7,0c0.2,0,0.3,0.1,0.2,0.4
			C5.9,4,5.2,6.6,5.1,7.1z"/>
		<path class="st1" d="M12.4,2.8L9,2.7c-1,0-1.2,0.1-1.4,1c0,0.1-0.7,2.8-0.7,2.8h0v0l-0.3,1h0C6.4,8.4,6.2,9.1,6.2,9.1l1.2,0
			l0.5-1.9h2.2l1.5,0c0.6,0,0.9,0,1.1-0.8l0.7-2.6C13.4,3.1,13.1,2.8,12.4,2.8z M12.1,3.7C12,4,11.5,6.2,11.5,6.2
			c-0.1,0.3-0.2,0.4-0.5,0.4L8,6.6c0,0,0.7-2.6,0.7-2.8c0.1-0.3,0.1-0.5,0.4-0.5c0.5,0,0.5,0,2.7,0C12,3.3,12.2,3.4,12.1,3.7z"/>
		<path class="st1" d="M25.3,2.7l-4.3,0c-0.6,0-0.8,0.1-0.9,0.6c0,0,0,0,0,0.1h0l-0.7,2.8h0c-0.1,0.5-0.1,1,0.7,1l4.7,0l0.1-0.5
			l-4.2,0c-0.2,0-0.3-0.1-0.2-0.3c0.1-0.2,0.2-0.7,0.2-0.9h3.8v0h0c0.5,0,0.7-0.1,0.8-0.6c0-0.1,0.3-1.4,0.4-1.5
			C25.8,3,25.7,2.7,25.3,2.7z M24.5,3.6c-0.1,0.2-0.1,0.6-0.2,0.8c-0.1,0.3-0.2,0.4-0.4,0.4h-3L21,4c0-0.1,0.1-0.3,0.1-0.4
			c0.1-0.3,0.2-0.3,0.5-0.3c0.2,0,2.7,0,2.7,0C24.5,3.3,24.5,3.4,24.5,3.6z"/>
		<path class="st1" d="M42,1.4l-1.2,0.9c0.4,0,0.5,0.1,0.4,0.3C41,3.5,40,7.1,40,7.1l1.1,0l1.5-5.8L42,1.4z"/>
		<path class="st1" d="M39.5,1.4l-1.2,0.9c0.4,0,0.5,0.1,0.4,0.3c-0.2,0.8-1.2,4.5-1.2,4.5l1.1,0l1.5-5.8L39.5,1.4z"/>
		<path class="st1" d="M44.4,1.4l-1.2,0.9c0.4,0,0.5,0.1,0.4,0.3c-0.2,0.8-1.2,4.5-1.2,4.5l1.1,0l1.5-5.8L44.4,1.4z"/>
		<polygon class="st1" points="36.2,3.3 36.4,2.7 31.4,2.7 31.2,3.3 33.1,3.3 32.1,7.1 33.3,7.1 34.3,3.3 		"/>
		<path class="st1" d="M31,2.7l-0.9,0c-0.4,0.3-2.4,1.7-2.8,2c-0.3,0.2-0.2,0.4-0.1,0.6c0.5,0.6,1.6,1.9,1.6,1.9l1.8,0
			c0,0-1.5-1.6-2-2.3c-0.1-0.1-0.3-0.3,0-0.5L31,2.7z"/>
		<polygon class="st1" points="26.3,2.7 25.2,7.1 26.4,7.1 27.5,2.7 		"/>
	</g>
	<polygon class="st1" points="49.4,2.7 48.2,7.1 51.1,5 	"/>
</g>
</svg>
