<svg id="Слой_2" data-name="Слой 2" xmlns="http://www.w3.org/2000/svg" xmlns:xlink="http://www.w3.org/1999/xlink" width="28.11mm" height="18.74mm" viewBox="0 0 79.68 53.13">
  <defs>
    <style>
      .cls-1 {
        fill: none;
      }

      .cls-2 {
        fill: #fff;
      }

      .cls-3 {
        clip-path: url(#clip-path);
      }
    </style>
    <clipPath id="clip-path">
      <rect class="cls-1" x="48.62" width="30.05" height="53.13"/>
    </clipPath>
  </defs>
  <title>_</title>
  <g>
    <path class="cls-2" d="M53.34,13.15l1-1a0.75,0.75,0,0,0,0-1.2,0.74,0.74,0,0,0-1.19.05l-1,1,1.15,1.15h0Zm-2.75-1L52.79,10a1.59,1.59,0,0,1,2.33-.07,1.42,1.42,0,0,1,.38,1.67h0a1.32,1.32,0,0,1,1.55.36,3.17,3.17,0,0,0,1.14.8l-0.9.9a6.44,6.44,0,0,1-1.12-.84,0.84,0.84,0,0,0-1.3.06l-0.9.9,1.6,1.6-0.9.9L50.59,12.2h0Z"/>
    <polygon class="cls-2" points="54.46 8.32 57.53 5.26 58.28 6.02 56.12 8.18 57 9.06 58.98 7.07 59.68 7.77 57.7 9.76 58.7 10.76 60.91 8.55 61.67 9.31 58.56 12.42 54.46 8.32 54.46 8.32"/>
    <path class="cls-2" d="M62.42,7l0.8-.8A1.46,1.46,0,0,0,63,4c-0.83-.83-1.64-1.07-2.53-0.17l-0.64.64L62.42,7h0ZM58.18,4.61l1.77-1.77A2.54,2.54,0,0,1,63.83,3C65,4.19,65.29,5.69,64,6.93L62.27,8.7,58.18,4.61h0Z"/>
    <path class="cls-2" d="M59.19,18.74l1.06-1.06-2-1h0l1,2h0Zm-2.43-2.6,0.92-.92,5.62,2.56-0.93.94-1.22-.6-1.53,1.53,0.59,1.23-0.91.91-2.54-5.65h0Z"/>
    <path class="cls-2" d="M62.4,14.36l0.7-.7c0.42-.42.7-0.88,0.18-1.41s-1-.24-1.4.18l-0.7.7,1.23,1.23h0Zm-2.83-1,1.85-1.85A1.86,1.86,0,1,1,64,14.11l-0.95.95,1.47,1.47-0.9.9-4.09-4.09h0Z"/>
    <g class="cls-3">
      <path class="cls-2" d="M66.22,10.53l0.7-.7a0.88,0.88,0,0,0,.18-1.41c-0.52-.52-1-0.24-1.41.18L65,9.3l1.23,1.23h0Zm-2.83-1,1.85-1.85A1.79,1.79,0,0,1,68,7.56a1.79,1.79,0,0,1-.1,2.73l-0.95.95,1.47,1.47-0.9.9L63.39,9.5h0Z"/>
      <polygon class="cls-2" points="69.84 3.06 72.9 0 73.66 0.76 71.49 2.92 72.37 3.8 74.35 1.81 75.05 2.51 73.07 4.5 74.07 5.5 76.28 3.29 77.04 4.05 73.93 7.16 69.84 3.06 69.84 3.06"/>
      <polygon class="cls-2" points="72.77 6.87 71.19 8.38 67.86 5.04 66.96 5.94 71.05 10.04 73.53 7.62 72.77 6.87 72.77 6.87"/>
      <path class="cls-2" d="M78.68,38.1a15,15,0,1,1-15-15,15,15,0,0,1,15,15h0Z"/>
    </g>
  </g>
</svg>
