<svg id="Слой_2" data-name="Слой 2" xmlns="http://www.w3.org/2000/svg" width="28.11mm" height="16.96mm" viewBox="0 0 79.68 48.07">
  <defs>
    <style>
      .cls-1 {
        fill: #fff;
      }
    </style>
  </defs>
  <title>шаблон</title>
  <g id="reg.ru">
    <path class="cls-1" d="M4.59,12.1l0-.51,0.45-.24L16.53,5.41v0a1.66,1.66,0,0,0-1.76-1.48L4.19,4.71A1.58,1.58,0,0,0,2.74,6.44L2.89,7.93A1.54,1.54,0,0,1,1.52,9.65L0,9.77l2.44,24.6Z"/>
    <g>
      <path class="cls-1" d="M29.4,0L5.51,12.43,2.94,38.93l23.79-1.87L40.11,36l8.55-.67,2.56-26.5ZM18.25,27.93l-2.72-4.44H13.31v4.44H10.65V15.44H16.5a3.89,3.89,0,0,1,4.2,4c0,2.21-1.12,3.39-2.46,3.71l3.08,4.76H18.25ZM31.81,17.78H25.63v2.64h5.51v2.34H25.63v2.83h6.18v2.34H23V15.44h8.84v2.34Zm13.45,8a6.93,6.93,0,0,1-5.32,2.36,6.36,6.36,0,0,1-6.65-6.48,6.33,6.33,0,0,1,6.65-6.46A5.85,5.85,0,0,1,45.11,18l-2.21,1.2a3.53,3.53,0,0,0-3-1.63A3.89,3.89,0,0,0,36,21.69a3.89,3.89,0,0,0,3.92,4.1,4.21,4.21,0,0,0,2.66-1V23.5H39.3V21.15h6v4.66Z"/>
      <path class="cls-1" d="M16.1,17.78H13.31v3.37H16.1A1.69,1.69,0,1,0,16.1,17.78Z"/>
    </g>
    <g>
      <path class="cls-1" d="M51.74,26.62a1.52,1.52,0,1,1,1.52,1.52A1.54,1.54,0,0,1,51.74,26.62Z"/>
      <path class="cls-1" d="M64.49,27.93l-3-4.44H59.55v4.44H56.89V15.44h5.84a3.89,3.89,0,0,1,4.2,4,3.59,3.59,0,0,1-2.73,3.71l3.35,4.76H64.49Zm-0.28-8.47a1.7,1.7,0,0,0-1.87-1.68H59.55v3.37h2.79A1.7,1.7,0,0,0,64.22,19.46Z"/>
      <path class="cls-1" d="M68.94,22.95V15.44h2.7v7.42c0,1.74.74,2.94,2.67,2.94S77,24.6,77,22.85V15.44h2.72v7.49c0,3.11-1.57,5.23-5.37,5.23S68.94,26,68.94,22.95Z"/>
    </g>
    <g>
      <g>
        <path class="cls-1" d="M0.14,46.73c0.39-.05.6-0.2,0.72-1.21l0.22-1.94h2.7v3.08H4.12v1.41H3.31v-0.7H0.94v0.7H0.14V46.73Zm1.06-.06H3V44.29H1.81L1.66,45.58A1.68,1.68,0,0,1,1.2,46.66Z"/>
        <path class="cls-1" d="M4.24,45.48a1.9,1.9,0,0,1,2-2,2,2,0,1,1,0,3.92A1.9,1.9,0,0,1,4.24,45.48Zm3.13,0a1.16,1.16,0,1,0-1.15,1.25A1.15,1.15,0,0,0,7.37,45.48Z"/>
        <path class="cls-1" d="M11.9,47.38V44.72l-1.07,2.66H10.47L9.41,44.72v2.66H8.6V43.58H9.73l0.92,2.29,0.92-2.29h1.14v3.79H11.9Z"/>
        <path class="cls-1" d="M13.29,47.38V43.58H16v0.71H14.1v0.8h1.84v0.71H14.1v0.86H16v0.71H13.29Z"/>
        <path class="cls-1" d="M19,47.38V45.78H17.24v1.59H16.43V43.58h0.81v1.49H19V43.58h0.81v3.79H19Z"/>
        <path class="cls-1" d="M21.23,43.58v1.35h1a1.22,1.22,0,1,1,0,2.45H20.42V43.58h0.81Zm0,2.06v1h0.86a0.51,0.51,0,1,0,0-1H21.23Zm2.56,1.73V43.58H24.6v3.79H23.79Z"/>
        <path class="cls-1" d="M29.85,47.38L28.9,46l-1,1.39H27l1.38-1.94-1.29-1.85h1l0.87,1.3,0.86-1.3h1l-1.29,1.84,1.38,2h-1Z"/>
        <path class="cls-1" d="M30.65,45.48a2,2,0,1,1,2,2A1.9,1.9,0,0,1,30.65,45.48Zm3.13,0a1.15,1.15,0,1,0-1.15,1.25A1.15,1.15,0,0,0,33.78,45.48Z"/>
        <path class="cls-1" d="M34.83,45.48a1.93,1.93,0,0,1,2-2,1.74,1.74,0,0,1,1.59.93l-0.69.34a1,1,0,0,0-.89-0.55,1.25,1.25,0,0,0,0,2.49,1,1,0,0,0,.89-0.55l0.69,0.34a1.75,1.75,0,0,1-1.59.93A1.93,1.93,0,0,1,34.83,45.48Z"/>
        <path class="cls-1" d="M39.63,47.38V44.29H38.52V43.58h3v0.71h-1.1v3.08H39.63Z"/>
        <path class="cls-1" d="M41.89,47.38V43.58H42.7V46l1.76-2.45h0.83v3.79H44.48V44.83l-1.81,2.54H41.89Z"/>
        <path class="cls-1" d="M48.46,47.38V45.78H46.67v1.59H45.86V43.58h0.81v1.49h1.79V43.58h0.81v3.79H48.46Z"/>
        <path class="cls-1" d="M49.85,47.38V43.58h2.68v0.71H50.66v3.08H49.85Z"/>
        <path class="cls-1" d="M54.94,45.48a1.93,1.93,0,0,1,2-2,1.74,1.74,0,0,1,1.59.93l-0.69.34A1,1,0,0,0,57,44.24a1.25,1.25,0,0,0,0,2.49,1,1,0,0,0,.89-0.55l0.69,0.34a1.75,1.75,0,0,1-1.59.93A1.93,1.93,0,0,1,54.94,45.48Z"/>
        <path class="cls-1" d="M58.86,47.38V43.58h2.68v0.71H59.67v0.8H61.5v0.71H59.67v0.86h1.88v0.71H58.86Z"/>
        <path class="cls-1" d="M62,47.38V43.58h1.77a1.22,1.22,0,1,1,0,2.45h-1v1.35H62Zm2.22-2.57a0.51,0.51,0,0,0-.56-0.51H62.81v1h0.86A0.51,0.51,0,0,0,64.23,44.8Z"/>
        <path class="cls-1" d="M65.38,47.38V43.58h2a1,1,0,0,1,1.09,1,0.84,0.84,0,0,1-.65.87,0.92,0.92,0,0,1,.73.93,1,1,0,0,1-1.1,1H65.38Zm2.26-2.68a0.41,0.41,0,0,0-.44-0.41h-1V45.1h1A0.4,0.4,0,0,0,67.65,44.69Zm0.07,1.55a0.44,0.44,0,0,0-.49-0.44h-1v0.88h1A0.43,0.43,0,0,0,67.72,46.24Z"/>
        <path class="cls-1" d="M69,47.38V43.58h2.68v0.71H69.79v0.8h1.84v0.71H69.79v0.86h1.88v0.71H69Z"/>
        <path class="cls-1" d="M72.13,47.38V43.58H73.9a1.22,1.22,0,1,1,0,2.45h-1v1.35H72.13Zm2.22-2.57a0.51,0.51,0,0,0-.56-0.51H72.93v1h0.86A0.51,0.51,0,0,0,74.35,44.8Z"/>
        <path class="cls-1" d="M76.31,43.58v1.35h1a1.22,1.22,0,1,1,0,2.45H75.51V43.58h0.81Zm0,2.06v1h0.86a0.51,0.51,0,1,0,0-1H76.31Zm2.56,1.73V43.58h0.81v3.79H78.87Z"/>
      </g>
      <path class="cls-1" d="M53.08,45.48a0.46,0.46,0,1,1,.46.46A0.47,0.47,0,0,1,53.08,45.48Z"/>
      <path class="cls-1" d="M25.68,45.48a0.46,0.46,0,1,1,.46.46A0.47,0.47,0,0,1,25.68,45.48Z"/>
    </g>
  </g>
</svg>
