<svg id="Слой_2" data-name="Слой 2" xmlns="http://www.w3.org/2000/svg" width="28.11mm" height="6.96mm" viewBox="0 0 79.68 19.73">
  <defs>
    <style>
      .cls-1 {
        fill: #fff;
      }
    </style>
  </defs>
  <title>_</title>
  <g id="simple25">
    <g>
      <path class="cls-1" d="M54.22,11V10c0-3.62-2-5.23-4.92-5.23H49.25c-4.53,0-5,4-5,5.3,0,4.2,2.15,5.67,5,5.74l0.24,0a4.56,4.56,0,0,0,4.62-3.38H51.28a1.77,1.77,0,0,1-1.79,1.16H49.25A2.26,2.26,0,0,1,47.1,11h7.12m-5-4h0A2.14,2.14,0,0,1,51.41,9.2H47.1C47.26,7.83,48,7,49.25,7Z"/>
      <rect class="cls-1" x="40.91" y="1.41" width="2.77" height="14.18"/>
      <path class="cls-1" d="M35.9,4.73a5.53,5.53,0,0,0-.8.05,3.38,3.38,0,0,0-2.33,1.73h0V5H30.07V19.73h2.76V14.15l0.05,0a2.91,2.91,0,0,0,2.21,1.56,4.7,4.7,0,0,0,.75.07c3.12,0,4.45-2.75,4.45-5.62,0-3.64-2.07-5.44-4.39-5.44m-0.8,8.79H35c-1.79,0-2.29-1.94-2.29-3.19,0-1.66.61-3.22,2.36-3.22s2.36,1.7,2.36,3.38S36.79,13.47,35.1,13.52Z"/>
      <path class="cls-1" d="M14.29,5V15.52h2.76V9.06c0-1.12.42-2,1.72-2s1.66,1.26,1.66,2.15v6.32h2.75V9.22C23.18,8,23.69,7,25.08,7c0.79,0,1.49.52,1.49,2.08v6.39h2.75V8.24a3.33,3.33,0,0,0-3.64-3.5A3.2,3.2,0,0,0,22.9,6.4,3.07,3.07,0,0,0,20,4.73a3.09,3.09,0,0,0-3,1.8H16.95V5H14.29Z"/>
      <rect class="cls-1" x="14.29" y="1.32" width="2.65" height="2.55"/>
      <path class="cls-1" d="M13.34,8.08c-0.21-3-2.66-3.48-4.71-3.48-3.27,0-4.23,2-4.23,3.52,0,3.94,6.51,2.61,6.51,4.36,0,0.39-.33,1.1-1.77,1.1-1.73,0-2.28-.67-2.28-1.56H4c0,2.8,2.66,3.64,5,3.64,1.64,0,4.58-.54,4.58-3.6,0-3.88-6.56-2.66-6.56-4.32,0-.45.19-1,1.7-1s1.75,0.72,1.86,1.38h2.7Z"/>
    </g>
    <path class="cls-1" d="M75.52,12.53a4.7,4.7,0,0,0-.85-1.58A4.13,4.13,0,0,0,73.3,9.88a4.56,4.56,0,0,0-3.39-.14,3.58,3.58,0,0,0-1.26.87l0,0,0.57-3.46h5.93V4.78H67.21l-1.4,8.11h2.5a2.64,2.64,0,0,1,2.24-1.3,2.83,2.83,0,0,1,2.69,2.94,2.83,2.83,0,0,1-2.69,2.94A2.77,2.77,0,0,1,67.9,15.1H65.27a4.62,4.62,0,0,0,.46,2,4.33,4.33,0,0,0,1.17,1.46,4.87,4.87,0,0,0,1.67.87,6.84,6.84,0,0,0,2,.28,5.08,5.08,0,0,0,3.7-1.47,5.39,5.39,0,0,0,1.15-1.69,5.21,5.21,0,0,0,.43-2.11A6.29,6.29,0,0,0,75.52,12.53Z"/>
    <path class="cls-1" d="M36.32,19.25a0.28,0.28,0,0,0,.08.09l0.12,0.05,0.14,0h0.11l0.1,0a0.24,0.24,0,0,0,.08-0.07,0.18,0.18,0,0,0,0-.11A0.18,0.18,0,0,0,36.83,19l-0.41-.11-0.21-.06A0.69,0.69,0,0,1,36,18.77a0.42,0.42,0,0,1-.13-0.13,0.38,0.38,0,0,1,0-.2,0.53,0.53,0,0,1,.07-0.28A0.49,0.49,0,0,1,36.11,18a0.78,0.78,0,0,1,.25-0.09l0.28,0,0.28,0a0.74,0.74,0,0,1,.24.09,0.56,0.56,0,0,1,.18.17,0.59,0.59,0,0,1,.08.27H37a0.21,0.21,0,0,0-.11-0.19,0.49,0.49,0,0,0-.23,0H36.53l-0.09,0-0.07,0a0.13,0.13,0,0,0,0,.09,0.13,0.13,0,0,0,0,.11,0.37,0.37,0,0,0,.12.07l0.18,0,0.2,0,0.21,0.06a0.69,0.69,0,0,1,.18.09,0.45,0.45,0,0,1,.13.14,0.42,0.42,0,0,1,0,.21,0.54,0.54,0,0,1-.25.48,0.74,0.74,0,0,1-.26.1l-0.3,0a1.5,1.5,0,0,1-.3,0,0.79,0.79,0,0,1-.26-0.1,0.58,0.58,0,0,1-.19-0.19,0.6,0.6,0,0,1-.08-0.3h0.46A0.27,0.27,0,0,0,36.32,19.25Z"/>
    <path class="cls-1" d="M38,17.69v-0.4H38.5v0.4H38ZM38.5,18v1.77H38V18H38.5Z"/>
    <path class="cls-1" d="M39.55,18v0.25h0A0.56,0.56,0,0,1,39.8,18a0.69,0.69,0,0,1,.3-0.07,0.82,0.82,0,0,1,.32.05,0.47,0.47,0,0,1,.2.15,0.57,0.57,0,0,1,.1.23,1.45,1.45,0,0,1,0,.3v1.09H40.26v-1a0.62,0.62,0,0,0-.07-0.33,0.26,0.26,0,0,0-.24-0.11,0.34,0.34,0,0,0-.29.12,0.66,0.66,0,0,0-.09.39v0.93H39.09V18h0.46Z"/>
    <path class="cls-1" d="M42,18.24a0.34,0.34,0,0,0-.2.05,0.42,0.42,0,0,0-.13.14,0.6,0.6,0,0,0-.07.18,1,1,0,0,0,0,.2,1,1,0,0,0,0,.2,0.63,0.63,0,0,0,.07.18,0.39,0.39,0,0,0,.13.13,0.34,0.34,0,0,0,.19.05,0.36,0.36,0,0,0,.27-0.1A0.46,0.46,0,0,0,42.4,19h0.47a0.8,0.8,0,0,1-.27.54,0.88,0.88,0,0,1-.58.18,1,1,0,0,1-.36-0.07,0.81,0.81,0,0,1-.28-0.19,0.86,0.86,0,0,1-.18-0.29,1,1,0,0,1-.06-0.36,1.19,1.19,0,0,1,.06-0.38,0.86,0.86,0,0,1,.18-0.3,0.8,0.8,0,0,1,.28-0.2A1,1,0,0,1,42,17.87a1.11,1.11,0,0,1,.3,0,0.81,0.81,0,0,1,.26.12,0.64,0.64,0,0,1,.27.5H42.39A0.32,0.32,0,0,0,42,18.24Z"/>
    <path class="cls-1" d="M43.85,19.26a0.5,0.5,0,0,0,.57,0,0.3,0.3,0,0,0,.13-0.16H45a0.81,0.81,0,0,1-.31.46,0.93,0.93,0,0,1-.51.14,1,1,0,0,1-.38-0.07,0.78,0.78,0,0,1-.28-0.19,0.85,0.85,0,0,1-.18-0.29,1.08,1.08,0,0,1-.06-0.38,1,1,0,0,1,.07-0.37,0.86,0.86,0,0,1,.47-0.49,0.91,0.91,0,0,1,.37-0.07,0.84,0.84,0,0,1,.39.09,0.78,0.78,0,0,1,.28.23,1,1,0,0,1,.16.34,1.26,1.26,0,0,1,0,.39H43.73A0.49,0.49,0,0,0,43.85,19.26Zm0.55-.93a0.34,0.34,0,0,0-.27-0.1,0.43,0.43,0,0,0-.19,0,0.36,0.36,0,0,0-.19.22,0.56,0.56,0,0,0,0,.12h0.79A0.56,0.56,0,0,0,44.39,18.33Z"/>
    <path class="cls-1" d="M46.42,19.73V18.25H45.84V17.9l0.23,0a0.59,0.59,0,0,0,.2-0.07,0.49,0.49,0,0,0,.15-0.14,0.51,0.51,0,0,0,.08-0.22h0.37v2.29H46.42Z"/>
    <path class="cls-1" d="M48.07,19.3a0.27,0.27,0,0,0,.2.09,0.3,0.3,0,0,0,.21-0.07,0.54,0.54,0,0,0,.13-0.18,0.92,0.92,0,0,0,.07-0.23,2.07,2.07,0,0,0,0-.22h0a0.56,0.56,0,0,1-.22.2,0.72,0.72,0,0,1-.58,0,0.72,0.72,0,0,1-.24-0.17,0.66,0.66,0,0,1-.13-0.24,0.89,0.89,0,0,1,0-.27,0.93,0.93,0,0,1,.06-0.33,0.78,0.78,0,0,1,.16-0.26A0.77,0.77,0,0,1,48,17.42a0.9,0.9,0,0,1,.76,0,0.78,0.78,0,0,1,.27.27,1.12,1.12,0,0,1,.14.38,2.38,2.38,0,0,1,0,.43,1.86,1.86,0,0,1,0,.43,1.25,1.25,0,0,1-.16.38,0.87,0.87,0,0,1-.28.28,0.77,0.77,0,0,1-.42.11,0.9,0.9,0,0,1-.27,0,0.65,0.65,0,0,1-.23-0.12,0.64,0.64,0,0,1-.16-0.2,0.79,0.79,0,0,1-.08-0.27H48A0.39,0.39,0,0,0,48.07,19.3Zm0.39-.75a0.33,0.33,0,0,0,.11-0.09,0.42,0.42,0,0,0,.07-0.13,0.57,0.57,0,0,0,0-.16,0.51,0.51,0,0,0,0-.16,0.43,0.43,0,0,0-.07-0.14,0.34,0.34,0,0,0-.12-0.1,0.32,0.32,0,0,0-.16,0,0.29,0.29,0,0,0-.15,0,0.35,0.35,0,0,0-.11.09A0.41,0.41,0,0,0,48,18a0.51,0.51,0,0,0,0,.15,0.56,0.56,0,0,0,0,.16,0.43,0.43,0,0,0,.06.14,0.32,0.32,0,0,0,.11.1,0.3,0.3,0,0,0,.15,0A0.36,0.36,0,0,0,48.46,18.55Z"/>
    <path class="cls-1" d="M50.21,19.3a0.27,0.27,0,0,0,.2.09,0.3,0.3,0,0,0,.21-0.07,0.54,0.54,0,0,0,.13-0.18,0.86,0.86,0,0,0,.07-0.23,2.15,2.15,0,0,0,0-.22h0a0.56,0.56,0,0,1-.22.2,0.72,0.72,0,0,1-.58,0,0.72,0.72,0,0,1-.24-0.17,0.66,0.66,0,0,1-.13-0.24,0.88,0.88,0,0,1,0-.27,0.92,0.92,0,0,1,.06-0.33,0.77,0.77,0,0,1,.42-0.44,0.9,0.9,0,0,1,.76,0,0.78,0.78,0,0,1,.27.27,1.15,1.15,0,0,1,.14.38,2.38,2.38,0,0,1,0,.43,1.88,1.88,0,0,1,0,.43,1.24,1.24,0,0,1-.16.38,0.87,0.87,0,0,1-.28.28,0.78,0.78,0,0,1-.42.11,0.9,0.9,0,0,1-.28,0,0.66,0.66,0,0,1-.39-0.32,0.75,0.75,0,0,1-.08-0.27h0.44A0.39,0.39,0,0,0,50.21,19.3Zm0.39-.75a0.33,0.33,0,0,0,.11-0.09,0.44,0.44,0,0,0,.07-0.13,0.63,0.63,0,0,0,0-.16,0.49,0.49,0,0,0,0-.16,0.41,0.41,0,0,0-.07-0.14,0.34,0.34,0,0,0-.12-0.1,0.32,0.32,0,0,0-.16,0,0.29,0.29,0,0,0-.15,0,0.34,0.34,0,0,0-.11.09,0.4,0.4,0,0,0-.07.13,0.53,0.53,0,0,0,0,.15,0.59,0.59,0,0,0,0,.16,0.43,0.43,0,0,0,.06.14,0.31,0.31,0,0,0,.11.1,0.3,0.3,0,0,0,.15,0A0.36,0.36,0,0,0,50.6,18.55Z"/>
    <path class="cls-1" d="M51.67,19.2V18.78l1-1.33h0.41v1.38h0.3V19.2h-0.3v0.53H52.64V19.2h-1Zm1-1.18L52,18.82h0.6V18h0Z"/>
    <path class="cls-1" d="M60.73,12.19l-1.42,1q-0.93.65-1.76,1.28a8.63,8.63,0,0,0-1.45,1.38,6,6,0,0,0-1,1.69,6.22,6.22,0,0,0-.36,2.23H64.92V17.45H58a2.72,2.72,0,0,1,.33-0.52A7.88,7.88,0,0,1,60,15.43a26.88,26.88,0,0,1,2.52-1.68,6.43,6.43,0,0,0,2-1.78,5.14,5.14,0,0,0,.39-0.73,4.72,4.72,0,0,0,.35-1.91,4.52,4.52,0,0,0-.4-1.93A4.29,4.29,0,0,0,63.78,6a4.85,4.85,0,0,0-1.58-.9,5.65,5.65,0,0,0-1.89-.32,5.54,5.54,0,0,0-2.3.45,4.49,4.49,0,0,0-1.66,1.26,5.5,5.5,0,0,0-1,1.89A9.19,9.19,0,0,0,55.08,11h2.58c0-1.7.51-3.93,2.44-3.93a2.24,2.24,0,0,1,2.41,2.42C62.51,10.34,62.34,11,60.73,12.19Z"/>
    <polygon class="cls-1" points="59.05 0 59.05 3.92 61.28 3.92 61.28 2.22 77.48 2.22 77.48 17.45 75.87 17.45 75.87 19.73 79.68 19.73 79.68 0 59.05 0"/>
  </g>
</svg>
