<svg id="Слой_2" data-name="Слой 2" xmlns="http://www.w3.org/2000/svg" width="28.11mm" height="6.03mm" viewBox="0 0 79.68 17.09">
  <defs>
    <style>
      .cls-1 {
        fill: #fff;
        fill-rule: evenodd;
      }
    </style>
  </defs>
  <title>_</title>
  <path id="skillbox" class="cls-1" d="M13.8,12.18c0,2.68-2.13,4.63-5.52,4.63a7.37,7.37,0,0,1-5.17-2.33l1.13-1.26a5.83,5.83,0,0,0,4,2c1.9,0,3.94-1.07,3.94-3,0-1.59-1.26-2.63-3.91-3.45-3-.93-4.55-2.18-4.55-4.54S5.71,0,8.52,0a6.58,6.58,0,0,1,4.69,2L12.09,3.28a5.29,5.29,0,0,0-3.5-1.67C7,1.61,5.36,2.66,5.36,4.18s0.79,2.24,3.56,3.1c2.54,0.78,4.87,2,4.87,4.91h0ZM27.5,1.55A1.33,1.33,0,1,0,28.83.21,1.33,1.33,0,0,0,27.5,1.55ZM44.1,16s1,0.8,4.27.8h0a5.63,5.63,0,1,0,0-11.25,6,6,0,0,0-2.67.55V0.49H44.1V16Zm12-4.81A5.87,5.87,0,1,0,62,5.32,5.88,5.88,0,0,0,56.13,11.21Zm21.46,5.35h2.09L75.06,11l4.31-5.18H77.29L74,9.79,70.72,5.85H68.63L73,11l-4.59,5.51h2.08L74,12.28ZM62,6.91a4.29,4.29,0,1,0,4.28,4.29A4.28,4.28,0,0,0,62,6.91Zm-13.63.27A4.75,4.75,0,0,0,45.71,8v6.63a5.39,5.39,0,0,0,2.67.54,4,4,0,1,0,0-8h0Zm-8-6.69h-1.6V16.55h1.6V0.49Zm-6.94,0H35V16.55h-1.6V0.49ZM17.94,10.94h0Zm0,5.61V10.94l5.6,5.61H25.8l-5.6-5.62,5.07-5.09H23l-5.07,5.08V0.49h-1.6V16.55h1.6Zm10.15,0h1.6V5.84h-1.6V16.55Z"/>
</svg>
