<?xml version="1.0" encoding="utf-8"?>
<!-- Generator: Adobe Illustrator 19.0.0, SVG Export Plug-In . SVG Version: 6.00 Build 0)  -->
<svg version="1.1" id="Layer_1" xmlns="http://www.w3.org/2000/svg" xmlns:xlink="http://www.w3.org/1999/xlink" x="0px" y="0px"
	 viewBox="0 0 78 20.1" style="enable-background:new 0 0 78 20.1;" xml:space="preserve">
<style type="text/css">
	.st0{fill:#FFFFFF;}
</style>
<g>
	<path class="st0" d="M7,3.4c-2.1,0-3.1,0.7-3.1,2.1c0,0.6,0.3,1.1,0.8,1.4c0.5,0.3,1.7,0.8,3.6,1.4c1.9,0.6,3.2,1.3,4,2.1
		c0.8,0.8,1.1,2,1.1,3.5c0,2-0.6,3.6-1.9,4.6c-1.2,1-2.8,1.6-4.8,1.6c-1.5,0-3.3-0.2-5.4-0.7l-1-0.2l0.4-3c2.5,0.3,4.5,0.5,5.8,0.5
		c2,0,3-0.8,3-2.5c0-0.6-0.2-1.1-0.7-1.4C8.3,12.4,7.4,12,6,11.6C3.8,11,2.3,10.2,1.4,9.4C0.5,8.5,0,7.3,0,5.8
		c0-1.9,0.6-3.4,1.8-4.3C2.9,0.5,4.6,0,6.6,0C8,0,9.8,0.2,12,0.6l1,0.2l-0.3,3.1C10,3.6,8.1,3.4,7,3.4z"/>
	<path class="st0" d="M16.3,7.1c1-1.3,2.7-2,5-2c2.4,0,4,0.7,5,2c1,1.3,1.5,3.1,1.5,5.5c0,5-2.2,7.5-6.6,7.5c-4.4,0-6.6-2.5-6.6-7.5
		C14.8,10.2,15.3,8.4,16.3,7.1z M19.2,15.8c0.4,0.7,1.1,1,2.1,1c1,0,1.7-0.3,2.1-1c0.4-0.7,0.6-1.8,0.6-3.2c0-1.5-0.2-2.5-0.6-3.2
		c-0.4-0.7-1.1-1-2.1-1c-1,0-1.7,0.3-2.1,1c-0.4,0.7-0.6,1.7-0.6,3.2C18.6,14,18.8,15.1,19.2,15.8z"/>
	<path class="st0" d="M40.2,9c-2.4-0.3-4-0.5-4.9-0.5c-0.9,0-1.5,0.1-1.8,0.3C33.1,9,33,9.3,33,9.6c0,0.4,0.2,0.6,0.6,0.8
		c0.4,0.1,1.3,0.4,2.8,0.6c1.5,0.3,2.6,0.7,3.3,1.4c0.6,0.6,1,1.6,1,3c0,3.1-1.9,4.6-5.7,4.6c-1.3,0-2.8-0.2-4.6-0.5l-0.9-0.2
		l0.1-3.2c2.4,0.3,4,0.5,4.9,0.5c0.9,0,1.5-0.1,1.9-0.3c0.3-0.2,0.5-0.5,0.5-0.8c0-0.4-0.2-0.6-0.5-0.8c-0.4-0.2-1.3-0.4-2.7-0.6
		c-1.5-0.2-2.6-0.7-3.3-1.3c-0.7-0.6-1.1-1.6-1.1-3.1c0-1.5,0.5-2.6,1.5-3.4c1-0.8,2.3-1.2,4-1.2c1.1,0,2.6,0.2,4.6,0.5l0.9,0.2
		L40.2,9z"/>
	<path class="st0" d="M50.6,8.7h-3.5v5.8c0,0.6,0,1,0,1.2c0,0.2,0.1,0.4,0.3,0.6c0.2,0.2,0.5,0.3,0.8,0.3l2.2-0.1l0.2,3
		c-1.3,0.3-2.2,0.4-2.9,0.4c-1.7,0-2.9-0.4-3.5-1.2c-0.6-0.8-0.9-2.2-0.9-4.3V8.7h-1.7V5.5h1.7v-4h3.8v4h3.5V8.7z"/>
	<path class="st0" d="M63.2,9.9v5.9c0,0.5,0.1,0.8,0.2,1c0.1,0.2,0.4,0.3,0.7,0.4l-0.1,2.9c-1,0-1.7-0.1-2.3-0.2
		c-0.6-0.1-1.2-0.4-1.8-0.8c-1.4,0.7-2.8,1-4.2,1c-2.9,0-4.4-1.6-4.4-4.7c0-1.5,0.4-2.6,1.2-3.2c0.8-0.6,2.1-1,3.8-1.1l3-0.2V9.9
		c0-0.6-0.1-1-0.4-1.2c-0.3-0.2-0.7-0.3-1.3-0.3l-5.4,0.2L52.3,6c2-0.6,4-0.8,5.8-0.8c1.8,0,3.2,0.4,4,1.1C62.8,7,63.2,8.2,63.2,9.9
		z M56.8,13.7c-1.1,0.1-1.6,0.7-1.6,1.7c0,1,0.5,1.6,1.4,1.6c0.7,0,1.5-0.1,2.4-0.3l0.4-0.1v-3L56.8,13.7z"/>
	<path class="st0" d="M64.7,5.5h4l2.3,11h0.8l2.4-11H78l-3.4,14.2h-6.5L64.7,5.5z"/>
</g>
</svg>
