<svg id="Слой_2" data-name="Слой 2" xmlns="http://www.w3.org/2000/svg" width="28.01mm" height="10.33mm" viewBox="0 0 79.41 29.29">
  <defs>
    <style>
      .cls-1 {
        fill: #fff;
      }
    </style>
  </defs>
  <title>-</title>
  <g id="vittel">
    <g>
      <path class="cls-1" d="M75.84,0c-1.78,8.75-3.74,19.26-5.51,29.29h2.29C74.7,19.09,77,8.72,79.07,0H75.84Z"/>
      <path class="cls-1" d="M0.34,0C2.42,8.72,4.72,19.09,6.8,29.29H9.08C7.31,19.26,5.35,8.75,3.57,0H0.34Z"/>
    </g>
    <g>
      <path class="cls-1" d="M47.58,23l-0.44-.13a1.17,1.17,0,0,1-.89-1,2.85,2.85,0,0,1,0-.37s0-9.1,0-9.54a2.65,2.65,0,0,1,0-.28,0.4,0.4,0,0,1,.35-0.39c0.07,0,1.34,0,1.34,0v-1H46.85a1.21,1.21,0,0,1-.31,0,0.38,0.38,0,0,1-.29-0.33,0.94,0.94,0,0,1,0-.16c0-.27,0-4.35,0-4.35h-1a5.36,5.36,0,0,1-3.87,5.09V11.3h1.34s0,1,0,1c0,0.6,0,5.68,0,7.42a9,9,0,0,0,.07,1.13,3.22,3.22,0,0,0,1.4,2.3,3.3,3.3,0,0,0,1.72.43h1.64V23Z"/>
      <path class="cls-1" d="M34.3,11.3h1.34v1c0,0.6,0,5.68,0,7.42a9,9,0,0,0,.07,1.13,3.22,3.22,0,0,0,1.4,2.3,3.3,3.3,0,0,0,1.72.43h1.64V23L40,22.86a1.17,1.17,0,0,1-.89-1,2.85,2.85,0,0,1,0-.37s0-9.1,0-9.54a2.64,2.64,0,0,1,0-.28,0.4,0.4,0,0,1,.35-0.39c0.07,0,1.34,0,1.34,0v-1H39.75a1.21,1.21,0,0,1-.31,0,0.38,0.38,0,0,1-.29-0.33,0.94,0.94,0,0,1,0-.16V5.37h-1a5.36,5.36,0,0,1-3.87,5.09V11.3Z"/>
      <ellipse class="cls-1" cx="30.44" cy="7.23" rx="1.77" ry="1.83"/>
      <path class="cls-1" d="M33.55,23.27V23l-0.43-.14a1.24,1.24,0,0,1-.89-1,2.85,2.85,0,0,1,0-.37V10.91a1.26,1.26,0,0,0,0-.17,0.56,0.56,0,0,0-.49-0.48H27.53v0.59a2.15,2.15,0,0,1,.54.21,1.43,1.43,0,0,1,.69,1,3.15,3.15,0,0,1,0,.43v9a2.6,2.6,0,0,1,0,.36,1.16,1.16,0,0,1-.86,1,2.68,2.68,0,0,1-.47.08v0.68h6.12V23.27Z"/>
      <path class="cls-1" d="M61.15,5H60.27V5.61a2.15,2.15,0,0,1,.53.21,1.43,1.43,0,0,1,.69,1,3.14,3.14,0,0,1,0,.43V21.41a2.61,2.61,0,0,1,0,.36,1.15,1.15,0,0,1-.86,1,2,2,0,0,1-.47.08v0.68h6.12V22.93l-0.44-.16a1.22,1.22,0,0,1-.89-1,2.85,2.85,0,0,1,0-.37V5.68a1.26,1.26,0,0,0,0-.17A0.56,0.56,0,0,0,64.44,5H61.15Z"/>
      <path class="cls-1" d="M59.89,20.66L59,20a5.17,5.17,0,0,1-.68.79,3.55,3.55,0,0,1-2.43.9,3.07,3.07,0,0,1-2.46-1.06,3.81,3.81,0,0,1-.73-1.42,5.59,5.59,0,0,1-.14-0.63q-0.07-.39-0.1-0.83a10.35,10.35,0,0,0,5.62-2.12Q60,13.93,59.4,12.07a3.18,3.18,0,0,0-1.61-1.91A5.58,5.58,0,0,0,55,9.49a6.13,6.13,0,0,0-5.52,3c-2.83,4.41-.48,11.16,5.08,11.13a6.37,6.37,0,0,0,3.9-1.28A6,6,0,0,0,59.89,20.66Zm-6.71-8.82a1.84,1.84,0,0,1,2.53-.78A2.37,2.37,0,0,1,56.18,14a6.79,6.79,0,0,1-3.8,2.84A8.12,8.12,0,0,1,53.18,11.84Z"/>
      <path class="cls-1" d="M20.76,24.3c0-.09.1-0.24,0.12-0.3,0.31-.91,4.19-12.89,5.69-17.26A3.41,3.41,0,0,1,27,6h0a1.25,1.25,0,0,1,.82-0.49l0-.79H24l-0.13.79a1.19,1.19,0,0,1,.84.36h0L24.77,6a2,2,0,0,1-.13,1.26h0c-0.94,3.05-2.53,7.91-3,9.4-0.05.15-.16,0.16-0.22,0L18.1,8.08a6.7,6.7,0,0,1-.48-1.6A0.76,0.76,0,0,1,17.72,6a1.66,1.66,0,0,1,1-.53l0-.83h-7.6l0,0.83a1.71,1.71,0,0,1,.72.19,2.41,2.41,0,0,1,.31.19l0.06,0h0a2.4,2.4,0,0,1,.66,1c1.81,4.7,6.33,16.34,6.62,17.09,0,0.09.11,0.29,0.15,0.37a0.6,0.6,0,0,0,.54.38A0.62,0.62,0,0,0,20.76,24.3Z"/>
      <path class="cls-1" d="M67.19,6.67V6.19h0.22l0.3,0.48h0.16l-0.32-.48a0.3,0.3,0,1,0-.08-0.6H67.05V6.67h0.13Zm0-.59V5.71h0.24a0.2,0.2,0,0,1,.26.19c0,0.18-.16.19-0.32,0.19H67.19Z"/>
      <path class="cls-1" d="M66.46,6.13a0.93,0.93,0,1,0,.93-0.93A0.92,0.92,0,0,0,66.46,6.13Zm1.72,0a0.79,0.79,0,1,1-.79-0.8A0.78,0.78,0,0,1,68.18,6.13Z"/>
    </g>
  </g>
</svg>
