<?xml version="1.0" encoding="utf-8"?>
<!-- Generator: Adobe Illustrator 19.0.0, SVG Export Plug-In . SVG Version: 6.00 Build 0)  -->
<svg version="1.1" id="Layer_1" xmlns="http://www.w3.org/2000/svg" xmlns:xlink="http://www.w3.org/1999/xlink" x="0px" y="0px"
	 viewBox="0 0 78 17.1" style="enable-background:new 0 0 78 17.1;" xml:space="preserve">
<style type="text/css">
	.st0{fill:#FFFFFF;}
	.st1{fill-rule:evenodd;clip-rule:evenodd;fill:#FFFFFF;}
</style>
<g>
	<g>
		<path class="st0" d="M7.3,13.7c-4,0-7.3-3.1-7.3-6.8C0,3.1,3.3,0,7.3,0s7.3,3.1,7.3,6.8C14.7,10.6,11.4,13.7,7.3,13.7z M7.3,0.3
			c-3.9,0-7.1,3-7.1,6.6c0,3.6,3.2,6.6,7.1,6.6s7.1-3,7.1-6.6C14.4,3.2,11.2,0.3,7.3,0.3z"/>
	</g>
	<g>
		<path class="st1" d="M16.3,2.2v9.3h2.5V2.2H16.3L16.3,2.2z M20.7,2.2v9.3h6.7V9.3h-4.3V2.2H20.7L20.7,2.2z M28.6,2.2v9.3h6.7V9.3
			h-4.3V2.2H28.6L28.6,2.2z M38.2,11.5l0.5-1.5h3.9l0.5,1.5h2.5L42,2.2h-2.7l-3.7,9.3H38.2L38.2,11.5z M40.5,5.3
			c0.1-0.2,0.2-0.5,0.2-0.9c0.1,0.5,0.2,0.7,0.2,0.9l1,2.7h-2.4L40.5,5.3L40.5,5.3z M46.7,2.2v9.3h3.7c3.3,0,4.9-1.9,4.9-4.7
			c0-2.7-1.5-4.7-4.9-4.7H46.7L46.7,2.2z M52.8,6.8c0,1.7-0.9,2.5-2.3,2.5h-1.3V4.3h1.3C51.9,4.3,52.8,5.1,52.8,6.8L52.8,6.8z
			 M58.8,10.4c0-0.9-0.6-1.3-1.4-1.3c-0.7,0-1.4,0.4-1.4,1.3c0,0.9,0.6,1.3,1.4,1.3C58.1,11.7,58.8,11.3,58.8,10.4L58.8,10.4
			L58.8,10.4z M62.7,11.5v-3h1.1l2.2,3h2.8l-2.6-3.4c1-0.4,1.8-1.3,1.8-2.8c0-2.5-1.9-3.2-3.8-3.2h-3.9v9.3H62.7L62.7,11.5z
			 M62.7,4.3h1.6c0.7,0,1.2,0.4,1.2,1.1c0,0.7-0.5,1.1-1.2,1.1h-1.6V4.3L62.7,4.3z M75.5,2.2v5.6c0,1.3-0.7,1.7-1.7,1.7
			c-1.1,0-1.7-0.4-1.7-1.7V2.2h-2.5v5.8c0,2.8,2.1,3.8,4.2,3.8c2.1,0,4.2-0.9,4.2-3.8V2.2H75.5z"/>
	</g>
	<g>
		<path class="st1" d="M12.5,2.2h-0.7l-1.6,6.6L8.4,2.2H6.3L4.5,8.7L2.9,2.2H2.2C1.6,2.7,1.2,3.3,0.8,4l2.3,7.5h2.7l1.6-5.8l1.6,5.8
			h2.7L13.9,4c-0.2-0.3-0.4-0.7-0.6-1C13.1,2.7,12.8,2.4,12.5,2.2z"/>
	</g>
	<g>
		<polygon class="st1" points="16.3,14.9 17,14.9 17,15.7 17.7,15.7 17.7,14.9 18.3,14.9 18.3,17 17.7,17 17.7,16.2 17,16.2 17,17 
			16.3,17 		"/>
	</g>
	<g>
		<path class="st1" d="M18.7,16c0-0.3,0.1-0.6,0.3-0.8c0.2-0.2,0.5-0.3,0.8-0.3c0.4,0,0.6,0.1,0.8,0.3c0.2,0.2,0.3,0.5,0.3,0.8
			c0,0.2,0,0.4-0.1,0.6c-0.1,0.2-0.2,0.3-0.4,0.4c-0.2,0.1-0.4,0.1-0.6,0.1c-0.2,0-0.4,0-0.6-0.1c-0.2-0.1-0.3-0.2-0.4-0.4
			C18.7,16.4,18.7,16.2,18.7,16L18.7,16z M19.4,16c0,0.2,0,0.4,0.1,0.5c0.1,0.1,0.2,0.1,0.3,0.1c0.1,0,0.2,0,0.3-0.1
			c0.1-0.1,0.1-0.3,0.1-0.5c0-0.2,0-0.3-0.1-0.4c-0.1-0.1-0.2-0.1-0.3-0.1c-0.1,0-0.2,0-0.3,0.1C19.4,15.6,19.4,15.8,19.4,16z"/>
	</g>
	<g>
		<path class="st1" d="M21.2,14.9h1.2c0.2,0,0.4,0.1,0.5,0.2c0.1,0.1,0.2,0.2,0.2,0.4c0,0.1,0,0.2-0.1,0.3c-0.1,0.1-0.1,0.1-0.2,0.1
			c0.2,0,0.3,0.1,0.3,0.2c0.1,0.1,0.1,0.2,0.1,0.3c0,0.1,0,0.2-0.1,0.3c-0.1,0.1-0.1,0.2-0.2,0.2c-0.1,0-0.1,0.1-0.2,0.1
			c-0.1,0-0.2,0-0.3,0h-1.1V14.9L21.2,14.9z M21.9,15.8h0.3c0.1,0,0.2,0,0.2-0.1c0,0,0.1-0.1,0.1-0.2c0-0.1,0-0.1-0.1-0.1
			c0,0-0.1-0.1-0.2-0.1h-0.3V15.8L21.9,15.8z M21.9,16.6h0.3c0.1,0,0.2,0,0.2-0.1c0,0,0.1-0.1,0.1-0.2c0-0.1,0-0.1-0.1-0.2
			c0,0-0.1-0.1-0.2-0.1h-0.3V16.6z"/>
	</g>
	<g>
		<path class="st1" d="M23.5,16c0-0.3,0.1-0.6,0.3-0.8c0.2-0.2,0.5-0.3,0.8-0.3c0.4,0,0.6,0.1,0.8,0.3c0.2,0.2,0.3,0.5,0.3,0.8
			c0,0.2,0,0.4-0.1,0.6c-0.1,0.2-0.2,0.3-0.4,0.4c-0.2,0.1-0.4,0.1-0.6,0.1c-0.2,0-0.4,0-0.6-0.1c-0.2-0.1-0.3-0.2-0.4-0.4
			C23.5,16.4,23.5,16.2,23.5,16L23.5,16z M24.1,16c0,0.2,0,0.4,0.1,0.5c0.1,0.1,0.2,0.1,0.3,0.1c0.1,0,0.2,0,0.3-0.1
			C25,16.4,25,16.2,25,16c0-0.2,0-0.3-0.1-0.4c-0.1-0.1-0.2-0.1-0.3-0.1c-0.1,0-0.2,0-0.3,0.1C24.1,15.6,24.1,15.8,24.1,16z"/>
	</g>
	<g>
		<path class="st1" d="M27.4,16.2l0.6,0.2c0,0.2-0.1,0.3-0.2,0.4c-0.1,0.1-0.2,0.2-0.3,0.2c-0.1,0.1-0.3,0.1-0.5,0.1
			c-0.2,0-0.4,0-0.6-0.1c-0.1-0.1-0.3-0.2-0.4-0.4c-0.1-0.2-0.2-0.4-0.2-0.6c0-0.3,0.1-0.6,0.3-0.8c0.2-0.2,0.4-0.3,0.8-0.3
			c0.3,0,0.5,0.1,0.6,0.2c0.2,0.1,0.3,0.3,0.3,0.5l-0.6,0.1c0-0.1,0-0.1-0.1-0.1c0,0-0.1-0.1-0.1-0.1c-0.1,0-0.1,0-0.2,0
			c-0.1,0-0.3,0.1-0.3,0.2c-0.1,0.1-0.1,0.2-0.1,0.4c0,0.2,0,0.4,0.1,0.5c0.1,0.1,0.2,0.1,0.3,0.1c0.1,0,0.2,0,0.3-0.1
			C27.3,16.4,27.4,16.3,27.4,16.2z"/>
	</g>
	<g>
		<polygon class="st1" points="28.1,14.9 30.1,14.9 30.1,15.4 29.5,15.4 29.5,17 28.8,17 28.8,15.4 28.1,15.4 		"/>
	</g>
	<g>
		<polygon class="st1" points="32.4,14.9 32.4,17 31.8,17 31.8,15.9 31,17 30.4,17 30.4,14.9 31,14.9 31,16.1 31.8,14.9 		"/>
	</g>
	<g>
		<path class="st1" d="M33.9,14.9H35c0.2,0,0.4,0.1,0.5,0.2c0.1,0.1,0.2,0.3,0.2,0.5c0,0.2-0.1,0.4-0.2,0.5
			c-0.1,0.1-0.3,0.2-0.6,0.2h-0.4V17h-0.7V14.9L33.9,14.9z M34.5,15.8h0.2c0.1,0,0.2,0,0.3-0.1c0.1,0,0.1-0.1,0.1-0.2
			c0-0.1,0-0.1-0.1-0.2c0,0-0.1-0.1-0.3-0.1h-0.2V15.8z"/>
	</g>
	<g>
		<polygon class="st1" points="36,14.9 37.7,14.9 37.7,15.4 36.7,15.4 36.7,15.7 37.7,15.7 37.7,16.1 36.7,16.1 36.7,16.6 
			37.8,16.6 37.8,17 36,17 		"/>
	</g>
	<g>
		<path class="st1" d="M40.1,17h-0.7l-0.3-0.5c-0.1-0.1-0.1-0.2-0.1-0.2c0,0-0.1,0-0.1,0V17h-0.7v-2.1h0.7v0.8c0.1,0,0.1,0,0.1-0.1
			c0,0,0.1-0.1,0.1-0.3c0-0.1,0.1-0.2,0.1-0.3c0-0.1,0.1-0.1,0.2-0.1c0.1,0,0.3,0,0.5,0v0.4h0c-0.1,0-0.2,0-0.2,0.1
			c-0.1,0-0.1,0.1-0.1,0.2c0,0.1-0.1,0.2-0.1,0.2c0,0-0.1,0.1-0.2,0.1c0.1,0,0.2,0.1,0.2,0.2c0.1,0.1,0.1,0.2,0.2,0.4L40.1,17z"/>
	</g>
	<g>
		<path class="st1" d="M42.2,17h-0.7v-1.6h-0.5v0.6c0,0.3,0,0.5,0,0.6c0,0.1-0.1,0.2-0.2,0.3C40.7,17,40.6,17,40.3,17
			c-0.1,0-0.2,0-0.2,0v-0.4h0.1c0.1,0,0.2,0,0.2-0.1c0,0,0.1-0.1,0.1-0.2v-1.4h1.8V17z"/>
	</g>
	<g>
		<path class="st1" d="M44,16.7h-0.7L43.1,17h-0.7l0.8-2.1H44l0.8,2.1h-0.7L44,16.7L44,16.7z M43.8,16.2l-0.2-0.8l-0.2,0.8H43.8z"/>
	</g>
	<g>
		<polygon class="st1" points="45,14.9 45.8,14.9 46.1,16.2 46.5,14.9 47.3,14.9 47.3,17 46.8,17 46.8,15.4 46.4,17 45.9,17 
			45.5,15.4 45.5,17 45,17 		"/>
	</g>
	<g>
		<path class="st1" d="M48.4,15.7h0.3c0.3,0,0.6,0.1,0.7,0.2c0.2,0.1,0.2,0.3,0.2,0.5c0,0.2-0.1,0.3-0.2,0.4
			C49.3,17,49.1,17,48.9,17h-1.1v-2.1h0.7V15.7L48.4,15.7z M48.4,16.6h0.3c0.2,0,0.3-0.1,0.3-0.2c0-0.1-0.1-0.2-0.3-0.2h-0.3V16.6
			L48.4,16.6z M49.8,14.9h0.7V17h-0.7V14.9z"/>
	</g>
	<g>
		<polygon class="st1" points="53.9,14.9 53.9,17 53.3,17 53.3,15.9 52.5,17 51.9,17 51.9,14.9 52.5,14.9 52.5,16.1 53.3,14.9 		"/>
	</g>
	<g>
		<polygon class="st1" points="55.4,14.9 56.2,14.9 56.5,16.2 56.9,14.9 57.7,14.9 57.7,17 57.2,17 57.2,15.4 56.8,17 56.3,17 
			55.9,15.4 55.9,17 55.4,17 		"/>
	</g>
	<g>
		<path class="st1" d="M59.4,16.7h-0.7L58.6,17h-0.7l0.8-2.1h0.7l0.8,2.1h-0.7L59.4,16.7L59.4,16.7z M59.3,16.2l-0.2-0.8l-0.2,0.8
			H59.3z"/>
	</g>
	<g>
		<path class="st1" d="M60.4,14.9h1.1c0.2,0,0.4,0.1,0.5,0.2c0.1,0.1,0.2,0.3,0.2,0.5c0,0.2-0.1,0.4-0.2,0.5
			c-0.1,0.1-0.3,0.2-0.6,0.2h-0.4V17h-0.7V14.9L60.4,14.9z M61.1,15.8h0.2c0.1,0,0.2,0,0.3-0.1c0.1,0,0.1-0.1,0.1-0.2
			c0-0.1,0-0.1-0.1-0.2c0,0-0.1-0.1-0.3-0.1h-0.2V15.8z"/>
	</g>
	<g>
		<path class="st1" d="M64.5,17h-0.7l-0.3-0.5c-0.1-0.1-0.1-0.2-0.1-0.2c0,0-0.1,0-0.1,0V17h-0.7v-2.1h0.7v0.8c0.1,0,0.1,0,0.1-0.1
			c0,0,0.1-0.1,0.1-0.3c0-0.1,0.1-0.2,0.1-0.3c0-0.1,0.1-0.1,0.2-0.1c0.1,0,0.3,0,0.5,0v0.4h0c-0.1,0-0.2,0-0.2,0.1
			c-0.1,0-0.1,0.1-0.1,0.2c0,0.1-0.1,0.2-0.1,0.2c0,0-0.1,0.1-0.2,0.1c0.1,0,0.2,0.1,0.2,0.2c0.1,0.1,0.1,0.2,0.2,0.4L64.5,17z"/>
	</g>
	<g>
		<polygon class="st1" points="64.7,14.9 66.5,14.9 66.5,15.4 65.4,15.4 65.4,15.7 66.4,15.7 66.4,16.1 65.4,16.1 65.4,16.6 
			66.5,16.6 66.5,17 64.7,17 		"/>
	</g>
	<g>
		<polygon class="st1" points="66.7,14.9 68.7,14.9 68.7,15.4 68,15.4 68,17 67.4,17 67.4,15.4 66.7,15.4 		"/>
	</g>
	<g>
		<polygon class="st1" points="71,14.9 71,17 70.4,17 70.4,15.9 69.6,17 69,17 69,14.9 69.6,14.9 69.6,16.1 70.4,14.9 		"/>
	</g>
	<g>
		<polygon class="st1" points="71.5,14.9 72.1,14.9 72.1,15.7 72.8,15.7 72.8,14.9 73.5,14.9 73.5,17 72.8,17 72.8,16.2 72.1,16.2 
			72.1,17 71.5,17 		"/>
	</g>
	<g>
		<polygon class="st1" points="75.6,15.4 74.6,15.4 74.6,17 73.9,17 73.9,14.9 75.6,14.9 		"/>
	</g>
	<g>
		<path class="st1" d="M77.2,16.7h-0.7L76.3,17h-0.7l0.8-2.1h0.7L78,17h-0.7L77.2,16.7L77.2,16.7z M77,16.2l-0.2-0.8l-0.2,0.8H77z"
			/>
	</g>
</g>
</svg>
