<svg id="Слой_2" data-name="Слой 2" xmlns="http://www.w3.org/2000/svg" width="28.11mm" height="5.84mm" viewBox="0 0 79.68 16.55">
  <defs>
    <style>
      .cls-1 {
        fill: #fff;
      }
    </style>
  </defs>
  <title>шаблон</title>
  <g id="yandex">
    <g>
      <path class="cls-1" d="M5.59,1.32H4.76c-1.26,0-2.48.83-2.48,3.25S3.4,7.67,4.76,7.67H5.59V1.32ZM4.29,9L1.81,14.54H0l2.72-6c-1.28-.65-2.13-1.83-2.13-4C0.59,1.53,2.52,0,4.82,0H7.16V14.54H5.59V9H4.29Z"/>
      <path class="cls-1" d="M37.59,9.42c0-3.21,1.24-5.27,3.64-5.27a3.22,3.22,0,0,1,1.89.53L42.9,6.18a2.71,2.71,0,0,0-1.69-.71c-1.14,0-2,1.28-2,3.86s0.61,4,1.89,4a2.59,2.59,0,0,0,1.73-.63l0.37,1.18a3.1,3.1,0,0,1-2.14.77c-2.2,0-3.52-1.77-3.52-5.27M33,9.44v5.11H31.37V4.29H33V9l2.46-4.74H37L34.48,9.11l2.91,5.43H35.66Zm-7.46-1h2.62c0-1.75-.28-3-1.2-3s-1.32,1.2-1.42,3m1.75,6.2c-2.12,0-3.42-1.69-3.42-4.84s0.92-5.7,3.09-5.7c1.71,0,2.83,1.28,2.83,4.76V9.78H25.47c0,2.32.65,3.54,1.91,3.54a3.54,3.54,0,0,0,2-.69l0.37,1.22a4,4,0,0,1-2.52.83M20.48,5.57H18.72V5.75a22.62,22.62,0,0,1-1,7.49h2.73V5.57Zm2.38,11H21.44v-2H17v2H15.62V13.24h0.63c0.94-2.18,1-5.35,1-8.07V4.29h4.76v8.95h0.81v3.31ZM14.71,4.29V14.54H13.14V9.94H10.78v4.6H9.2V4.29h1.59V8.64h2.36V4.29h1.56Z"/>
    </g>
    <polygon class="cls-1" points="50.34 0.83 50.34 14.54 49.32 14.54 49.32 0.83 46.45 0.83 46.45 0 53.23 0 53.23 0.83 50.34 0.83"/>
    <path class="cls-1" d="M57.64,12V9.13h-1.1c-1.69,0-2.5.77-2.5,2.56,0,1.44.63,2.28,1.61,2.28s1.63-.92,2-2m0,1.2a2.48,2.48,0,0,1-2.24,1.59c-1.38,0-2.34-1.1-2.34-3,0-2.2,1.2-3.34,3.42-3.34h1.12V7.16c0-1.57-.59-2.24-1.71-2.24A2.58,2.58,0,0,0,53.78,6l-0.26-.91a3,3,0,0,1,2.42-1c1.69,0,2.64.94,2.64,3v5.59a7.47,7.47,0,0,0,.22,1.89H57.93a6.19,6.19,0,0,1-.24-1.38"/>
    <polygon class="cls-1" points="61.74 14.54 60.78 14.54 60.78 4.29 61.74 4.29 61.74 9.11 65.17 4.29 66.11 4.29 62.73 9.05 66.35 14.54 65.3 14.54 61.74 9.23 61.74 14.54"/>
    <g>
      <path class="cls-1" d="M72.21,12.81l0.3,0.79a2.9,2.9,0,0,1-2.36,1.14c-2.05,0-3.23-2-3.23-5.31s1.16-5.35,3.25-5.35a2.76,2.76,0,0,1,2.24,1l-0.26,1a2.44,2.44,0,0,0-2-1.16c-1.56,0-2.3,1.65-2.3,4.53s0.71,4.47,2.3,4.47a2.59,2.59,0,0,0,2-1.1"/>
      <path class="cls-1" d="M78.77,7.4A14,14,0,0,1,78.85,6H78.79a9.11,9.11,0,0,1-.55,1.32L74.9,14.54H74.09V4.29H75v7.12c0,0.55,0,1-.08,1.44H75a11.19,11.19,0,0,1,.55-1.36l3.33-7.2h0.83V14.54H78.77V7.4Z"/>
    </g>
  </g>
</svg>
