<svg id="Слой_2" data-name="Слой 2" xmlns="http://www.w3.org/2000/svg" xmlns:xlink="http://www.w3.org/1999/xlink" width="28.11mm" height="8.59mm" viewBox="0 0 79.68 24.36">
  <defs>
    <style>
      .cls-1 {
        fill: none;
      }

      .cls-2 {
        fill: #fff;
      }

      .cls-3 {
        clip-path: url(#clip-path);
      }
    </style>
    <clipPath id="clip-path">
      <rect class="cls-1" x="18.69" width="60.13" height="24.36"/>
    </clipPath>
  </defs>
  <title>_</title>
  <g>
    <path class="cls-2" d="M31.61,7.23A2.26,2.26,0,0,1,31,8.82a2.31,2.31,0,0,1-1.52.76v3.19H28V9.58a2.35,2.35,0,0,1-2.13-2.35V4.89h1.49V7.23a0.83,0.83,0,0,0,.25.61,0.82,0.82,0,0,0,.6.25h1.06a0.86,0.86,0,0,0,.86-0.86V4.89h1.49V7.23h0Z"/>
    <path class="cls-2" d="M36.88,10.43V7.23a0.82,0.82,0,0,0-.25-0.6A0.84,0.84,0,0,0,36,6.37H35a0.86,0.86,0,0,0-.85.85v3.2a0.86,0.86,0,0,0,.85.85H36A0.83,0.83,0,0,0,36.63,11a0.82,0.82,0,0,0,.25-0.6m1.49,0A2.35,2.35,0,0,1,36,12.77H35a2.35,2.35,0,0,1-2.34-2.34V7.23A2.35,2.35,0,0,1,35,4.89H36a2.35,2.35,0,0,1,2.35,2.34v3.2h0Z"/>
    <path class="cls-2" d="M45.13,10.43a2.35,2.35,0,0,1-2.35,2.34H41.71a2.35,2.35,0,0,1-2.34-2.34V4.89h1.49v5.54a0.86,0.86,0,0,0,.85.85h1.06A0.83,0.83,0,0,0,43.39,11a0.82,0.82,0,0,0,.25-0.6V4.89h1.49v5.54h0Z"/>
    <path class="cls-2" d="M51.89,10.43a2.35,2.35,0,0,1-2.35,2.34h-3.3V11.28h3.3A0.83,0.83,0,0,0,50.15,11a0.84,0.84,0,0,0,0-1.2,0.83,0.83,0,0,0-.61-0.25H48.47a2.35,2.35,0,0,1-2.34-2.35,2.35,2.35,0,0,1,2.34-2.34h3.2V6.37h-3.2a0.86,0.86,0,0,0-.85.85,0.83,0.83,0,0,0,.25.61,0.82,0.82,0,0,0,.6.25h1.06a2.28,2.28,0,0,1,1.66.68,2.25,2.25,0,0,1,.69,1.66"/>
    <path class="cls-2" d="M58.65,10.43a2.35,2.35,0,0,1-2.35,2.34H55.23a2.35,2.35,0,0,1-2.34-2.34V7.23a2.35,2.35,0,0,1,2.34-2.34h1.06a2.35,2.35,0,0,1,2.35,2.34V8H57.16V7.23a0.82,0.82,0,0,0-.25-0.6,0.83,0.83,0,0,0-.61-0.25H55.23a0.85,0.85,0,0,0-.85.85v3.2a0.85,0.85,0,0,0,.85.85h1.06A0.83,0.83,0,0,0,56.91,11a0.81,0.81,0,0,0,.25-0.6V9.68h1.49v0.75h0Z"/>
    <path class="cls-2" d="M63.92,11.28V9.58H62a0.85,0.85,0,0,0,0,1.7h1.93Zm1.49,1.49H62a2.35,2.35,0,0,1-2.34-2.34A2.34,2.34,0,0,1,62,8.09h1.93V7.23a0.82,0.82,0,0,0-.25-0.6,0.84,0.84,0,0,0-.61-0.25H60.4V4.89h2.65a2.35,2.35,0,0,1,2.35,2.34v5.54h0Z"/>
    <g class="cls-3">
      <path class="cls-2" d="M72.16,12.77H70.67V7.23a0.82,0.82,0,0,0-.25-0.6,0.84,0.84,0,0,0-.61-0.25H68.75a0.86,0.86,0,0,0-.85.85v5.54H66.41V7.23a2.35,2.35,0,0,1,2.34-2.34h1.06a2.35,2.35,0,0,1,2.35,2.34v5.54h0Z"/>
      <path class="cls-2" d="M44,24c0.46-.48,9.09-9.06,9.09-9.06H50.67a2.4,2.4,0,0,0-1.75.68l-3.59,3.53V15H27.41a6.23,6.23,0,1,1,0-12.46H47.07L49.56,0H27.41a8.72,8.72,0,0,0,0,17.45H42.83v6.18c0,0.94.72,0.86,1.18,0.38"/>
      <path class="cls-2" d="M70.1,0H51.68L49.19,2.49H70.1A6.23,6.23,0,0,1,70.1,15H56.23a2.37,2.37,0,0,0-1.75.68L48.4,21.78v1.85c0,0.94.72,0.86,1.18,0.38l6.3-6.28a0.85,0.85,0,0,1,.66-0.28H70.1A8.72,8.72,0,0,0,70.1,0"/>
    </g>
  </g>
</svg>
